<svg id="undraw_online_art_re_f1pk" xmlns="http://www.w3.org/2000/svg" width="484.313" height="369" viewBox="0 0 484.313 369">
  <g id="Gruppe_230" data-name="Gruppe 230">
    <circle id="Ellipse_31" data-name="Ellipse 31" cx="32.847" cy="32.847" r="32.847" transform="translate(359.355 69.547)" fill="#ff6584"/>
    <path id="Pfad_650" data-name="Pfad 650" d="M295.758,236.862c0,86.777-55.562,107.329-133.188,107.329S62.385,342.144,62.385,255.367-38.226,17.831,39.4,17.831,295.758,150.085,295.758,236.862Z" fill="#f2f2f2"/>
    <path id="Pfad_651" data-name="Pfad 651" d="M382.748,326.512H125.06A18.637,18.637,0,0,1,106.443,307.9V113.105A18.637,18.637,0,0,1,125.06,94.489H382.748a18.637,18.637,0,0,1,18.616,18.616V307.9a18.637,18.637,0,0,1-18.616,18.616ZM125.06,95.887a17.238,17.238,0,0,0-17.218,17.218V307.9a17.238,17.238,0,0,0,17.218,17.218H382.748A17.238,17.238,0,0,0,399.966,307.9V113.105a17.238,17.238,0,0,0-17.218-17.218H125.06Z" fill="#3f3d56"/>
    <g id="Gruppe_228" data-name="Gruppe 228">
      <ellipse id="Ellipse_32" data-name="Ellipse 32" cx="5.281" cy="0.857" rx="5.281" ry="0.857" transform="translate(196.982 311.426) rotate(-1.469)" fill="#e6e6e6"/>
      <ellipse id="Ellipse_33" data-name="Ellipse 33" cx="5.281" cy="0.857" rx="5.281" ry="0.857" transform="translate(230.445 308.639) rotate(-1.469)" fill="#3f3d56"/>
      <ellipse id="Ellipse_34" data-name="Ellipse 34" cx="5.281" cy="0.857" rx="5.281" ry="0.857" transform="translate(183.512 305.663) rotate(-1.469)" fill="#ff6584"/>
      <ellipse id="Ellipse_35" data-name="Ellipse 35" cx="0.77" cy="2.346" rx="0.77" ry="2.346" transform="translate(172.977 305.418) rotate(-89.351)" fill="#e6e6e6"/>
      <ellipse id="Ellipse_36" data-name="Ellipse 36" cx="0.77" cy="2.346" rx="0.77" ry="2.346" transform="translate(164.791 300.896) rotate(-89.351)" fill="#3f3d56"/>
      <ellipse id="Ellipse_37" data-name="Ellipse 37" cx="0.77" cy="2.346" rx="0.77" ry="2.346" transform="translate(209.31 307.057) rotate(-89.351)" fill="#e6e6e6"/>
      <ellipse id="Ellipse_38" data-name="Ellipse 38" cx="0.77" cy="2.346" rx="0.77" ry="2.346" transform="translate(194.138 309.919) rotate(-89.351)" fill="#ff6584"/>
      <ellipse id="Ellipse_39" data-name="Ellipse 39" cx="0.77" cy="2.346" rx="0.77" ry="2.346" transform="translate(219.283 312.036) rotate(-89.351)" fill="#3f3d56"/>
    </g>
    <g id="Gruppe_229" data-name="Gruppe 229">
      <ellipse id="Ellipse_40" data-name="Ellipse 40" cx="5.281" cy="0.857" rx="5.281" ry="0.857" transform="translate(302.51 310.029) rotate(-1.469)" fill="#e6e6e6"/>
      <ellipse id="Ellipse_41" data-name="Ellipse 41" cx="5.281" cy="0.857" rx="5.281" ry="0.857" transform="translate(335.973 307.242) rotate(-1.469)" fill="#3f3d56"/>
      <ellipse id="Ellipse_42" data-name="Ellipse 42" cx="5.281" cy="0.857" rx="5.281" ry="0.857" transform="translate(289.04 304.266) rotate(-1.469)" fill="#ff6584"/>
      <ellipse id="Ellipse_43" data-name="Ellipse 43" cx="0.77" cy="2.346" rx="0.77" ry="2.346" transform="translate(278.505 304.02) rotate(-89.351)" fill="#e6e6e6"/>
      <ellipse id="Ellipse_44" data-name="Ellipse 44" cx="0.77" cy="2.346" rx="0.77" ry="2.346" transform="translate(270.319 299.498) rotate(-89.351)" fill="#3f3d56"/>
      <ellipse id="Ellipse_45" data-name="Ellipse 45" cx="0.77" cy="2.346" rx="0.77" ry="2.346" transform="translate(314.838 305.659) rotate(-89.351)" fill="#e6e6e6"/>
      <ellipse id="Ellipse_46" data-name="Ellipse 46" cx="0.77" cy="2.346" rx="0.77" ry="2.346" transform="translate(299.667 308.521) rotate(-89.351)" fill="#ff6584"/>
      <ellipse id="Ellipse_47" data-name="Ellipse 47" cx="0.77" cy="2.346" rx="0.77" ry="2.346" transform="translate(324.811 310.638) rotate(-89.351)" fill="#3f3d56"/>
    </g>
    <path id="Pfad_652" data-name="Pfad 652" d="M177.134,272.964a1.962,1.962,0,0,1-1.422-3.4l.134-.534-.053-.128a5.269,5.269,0,0,0-9.719.036c-1.59,3.828-3.613,7.663-4.112,11.711a15.587,15.587,0,0,0,.274,5.361,62.492,62.492,0,0,1-5.685-25.955,60.319,60.319,0,0,1,.374-6.729q.31-2.747.86-5.456a63.216,63.216,0,0,1,12.536-26.793,16.823,16.823,0,0,0,7-7.259,12.833,12.833,0,0,0,1.167-3.507c-.341.045-1.284-5.143-1.027-5.461-.475-.72-1.324-1.078-1.843-1.781-2.578-3.5-6.131-2.885-7.985,1.865-3.962,2-4,5.315-1.569,8.5,1.547,2.029,1.759,4.774,3.116,6.947-.14.179-.285.352-.424.531a63.624,63.624,0,0,0-6.641,10.521,26.449,26.449,0,0,0-1.579-12.285c-1.511-3.646-4.344-6.717-6.839-9.869a5.429,5.429,0,0,0-9.669,2.666q-.008.07-.015.139.556.314,1.088.666a2.661,2.661,0,0,1-1.073,4.843l-.054.008a26.48,26.48,0,0,0,.7,3.959c-3.2,12.377,3.709,16.885,13.575,17.087.218.112.43.223.648.329a64.942,64.942,0,0,0-3.5,16.451,61.593,61.593,0,0,0,.045,9.945l-.017-.117a16.276,16.276,0,0,0-5.556-9.4c-4.276-3.512-10.317-4.806-14.93-7.629a3.055,3.055,0,0,0-4.678,2.972l.019.123a17.876,17.876,0,0,1,2,.966q.556.314,1.088.666A2.661,2.661,0,0,1,132.3,257.8l-.054.008-.112.017a26.5,26.5,0,0,0,4.875,7.633c2,10.8,10.6,11.83,19.79,8.683h.006a64.922,64.922,0,0,0,4.361,12.732h15.58c.056-.173.106-.352.156-.525a17.7,17.7,0,0,1-4.311-.257c1.156-1.418,2.312-2.848,3.468-4.266a.959.959,0,0,0,.073-.084c.586-.726,1.178-1.446,1.765-2.172h0a25.928,25.928,0,0,0-.76-6.605h0Z" fill="#00a2d7"/>
    <path id="Pfad_653" data-name="Pfad 653" d="M330.519,272.964a1.962,1.962,0,0,0,1.422-3.4l-.134-.534.053-.128a5.269,5.269,0,0,1,9.719.036c1.59,3.828,3.613,7.663,4.112,11.711a15.588,15.588,0,0,1-.274,5.361,62.492,62.492,0,0,0,5.685-25.955,60.312,60.312,0,0,0-.374-6.729q-.31-2.747-.86-5.456a63.217,63.217,0,0,0-12.536-26.793,16.823,16.823,0,0,1-7-7.259,12.832,12.832,0,0,1-1.167-3.507c.341.045,1.284-5.143,1.027-5.461.475-.72,1.324-1.078,1.843-1.781,2.578-3.5,6.131-2.885,7.985,1.865,3.962,2,4,5.315,1.569,8.5-1.547,2.029-1.759,4.774-3.116,6.947.14.179.285.352.424.531a63.627,63.627,0,0,1,6.641,10.521,26.449,26.449,0,0,1,1.579-12.285c1.511-3.646,4.344-6.717,6.839-9.869a5.429,5.429,0,0,1,9.669,2.666q.008.07.015.139-.556.314-1.088.666a2.661,2.661,0,0,0,1.073,4.843l.054.008a26.48,26.48,0,0,1-.7,3.959c3.2,12.377-3.709,16.885-13.575,17.087-.218.112-.43.223-.648.329a64.939,64.939,0,0,1,3.5,16.451,61.592,61.592,0,0,1-.045,9.945l.017-.117a16.276,16.276,0,0,1,5.556-9.4c4.276-3.512,10.317-4.806,14.93-7.629a3.055,3.055,0,0,1,4.678,2.972l-.019.123a17.877,17.877,0,0,0-2,.966q-.556.314-1.088.666a2.661,2.661,0,0,0,1.073,4.843l.054.008.112.017a26.5,26.5,0,0,1-4.875,7.633c-2,10.8-10.6,11.83-19.79,8.683h-.006a64.922,64.922,0,0,1-4.361,12.732H330.91c-.056-.173-.106-.352-.156-.525a17.7,17.7,0,0,0,4.311-.257c-1.156-1.418-2.312-2.848-3.468-4.266a.957.957,0,0,1-.073-.084c-.586-.726-1.178-1.446-1.765-2.172h0a25.931,25.931,0,0,1,.76-6.605h0Z" fill="#00a2d7"/>
    <path id="Pfad_654" data-name="Pfad 654" d="M29.263,286.958a.829.829,0,0,0,.832.832H474.076a.832.832,0,0,0,0-1.663H30.094a.829.829,0,0,0-.832.832Z" fill="#3f3d56"/>
  </g>
  <path id="Pfad_655" data-name="Pfad 655" d="M62.866,60.8H44a3.494,3.494,0,0,1,0-6.989H62.866a3.494,3.494,0,0,1,0,6.989Z" fill="#e6e6e6"/>
  <g id="Gruppe_231" data-name="Gruppe 231">
    <circle id="Ellipse_48" data-name="Ellipse 48" cx="3.145" cy="3.145" r="3.145" transform="translate(352.926 53.813)" fill="#e6e6e6"/>
    <circle id="Ellipse_49" data-name="Ellipse 49" cx="3.145" cy="3.145" r="3.145" transform="translate(362.71 53.813)" fill="#e6e6e6"/>
    <circle id="Ellipse_50" data-name="Ellipse 50" cx="3.145" cy="3.145" r="3.145" transform="translate(372.494 53.813)" fill="#e6e6e6"/>
  </g>
  <path id="Pfad_656" data-name="Pfad 656" d="M484.313,198.128V353.143A15.876,15.876,0,0,1,468.455,369h-118.9l1.1-1.4,132.26-167.7Z" fill="#f2f2f2"/>
  <path id="Pfad_657" data-name="Pfad 657" d="M468.455,0H15.857A15.876,15.876,0,0,0,0,15.857V353.143A15.876,15.876,0,0,0,15.857,369h452.6a15.876,15.876,0,0,0,15.857-15.857V15.857A15.876,15.876,0,0,0,468.455,0Zm14.46,353.143a14.459,14.459,0,0,1-14.46,14.459H15.857A14.459,14.459,0,0,1,1.4,353.143V110.194A108.8,108.8,0,0,1,110.194,1.4H468.455a14.459,14.459,0,0,1,14.46,14.459Z" fill="#e6e6e6"/>
  <path id="Pfad_658" data-name="Pfad 658" d="M278.415,190.679,276.28,157.6a5.351,5.351,0,0,0-5.615-4.983h0a5.351,5.351,0,0,0-5.046,5.9l3.272,34.3L270,213.737a4.669,4.669,0,1,0,5.815,1.448l2.6-24.505Z" fill="#ffb6b6"/>
  <path id="Pfad_659" data-name="Pfad 659" d="M279.755,187.938h0a1.578,1.578,0,0,0,.173-1.9,2.047,2.047,0,0,1-.287-1.215c.007-.082.02-19.732.038-19.812a3.087,3.087,0,0,0-.666-2.776,9.765,9.765,0,0,1-1.944-4.789,23.281,23.281,0,0,0-1.255-5.457c-1.066-2.48-3.478-4.638-6.621-3.451a6.214,6.214,0,0,0-3.135,2.741c-1.5,2.587-1.4,5.647-1.286,8.574l-.612-1.136a23.76,23.76,0,0,1-1.363,9.4c.7-.163,1.24,20.34,1.036,21.033a4.154,4.154,0,0,1-1.348,1.663c-.663.625-1.277,1.541-.6,2.436a1.945,1.945,0,0,0,1.38.726,36.766,36.766,0,0,0,14.953-1.694,4.486,4.486,0,0,0,2.739-1.827c.527-.995-.075-2.568-1.2-2.512Z" fill="#00a2d7"/>
  <g id="Gruppe_232" data-name="Gruppe 232">
    <path id="Pfad_660" data-name="Pfad 660" d="M232.635,311.459l-4.751,1.862-9.6-17.845,7.011-2.748Z" fill="#ffb6b6"/>
    <path id="Pfad_661" data-name="Pfad 661" d="M220.494,325.079a2.284,2.284,0,0,0,2.956,1.292l9.445-3.7.306-4,1.954,3.114,3.565-1.394-5.706-11.614-1.269.414-5.18,1.677-1.67.544,1.332,3.4-5.5,8.166a2.28,2.28,0,0,0-.232,2.106Z" fill="#2f2e41"/>
  </g>
  <g id="Gruppe_233" data-name="Gruppe 233">
    <path id="Pfad_662" data-name="Pfad 662" d="M281.114,356.782l-5.1.106-2.844-20.064,7.529-.157Z" fill="#ffb6b6"/>
    <path id="Pfad_663" data-name="Pfad 663" d="M265.014,365.367a2.284,2.284,0,0,0,2.328,2.234l10.142-.211,1.67-3.65.757,3.6,3.827-.077L282.4,354.391l-1.334-.05-5.44-.216-1.755-.066.076,3.65-7.984,5.762a2.28,2.28,0,0,0-.945,1.9Z" fill="#2f2e41"/>
  </g>
  <path id="Pfad_664" data-name="Pfad 664" d="M239.8,190.282l33.55,5.859-1.263,6.313s2.1,2.648,1.263,3.639-2.525-.693-.842.991,2.223,2.137-.3,4.662,1.545-1.509,1.545-1.509.193,4.647,1.171,6.1c6.77,10.089,4.953,19.111,1.492,30.757-1.958,6.59,2.079,19.294,2.079,21.615l-.4,16.262s8.838,35.773,4.209,52.607l.654,6.475-10.755.258-12.626-50.5s-1.978-5.061-2.041-6.949-.063-.205-.063-1.888a32.634,32.634,0,0,0-.421-3.788c0-.421-3.367-41.575-3.367-41.575s-12.35,6.814-13.613,8.076-3.511.107-3.494,1.4-1.159,1.759-2.1,2.8-2.484-1.054-1.642,1.892-11.174,7.425-12.437,8.687,9.886,10.387,8.488,27.858l-.7,6.989-9.085,4.193-19.4-36.147a12.288,12.288,0,0,1,1.755-13.086L228.9,219.733s3.331-15.984,6.277-17.667l4.629-11.784Z" fill="#2f2e41"/>
  <path id="Pfad_665" data-name="Pfad 665" d="M271.612,192.589c.295-1.258-2.138-9.911-1.1-12.971.678-2,2.306-3.48,2.285-5.867a3.765,3.765,0,0,0-.029-.48c-.009-.085-.026-.172-.039-.258,2.107-7.5,3.161-21.45,3.161-21.45l-10.08-12.02c-.006-.052-.015-.1-.02-.155-.206-1.776-1.7-.487-3.345-1.421-.732-.412-.351-3.785-1.2-3.553-.029.008-.055.02-.083.029l-.027-.029-1.662-1.789-9.147-.842-2.125,2.9v.021c-1.811.336-2.276.534-2.552,2.542-.051.379-.084.758-.1,1.141-.062,1.432-7.55,2.869-7.207,4.231l-2.458,1.639s-9.239,11.516-5.872,14.882a9.757,9.757,0,0,1,2.222,5.715c.009.078.026.148.04.222-.386,1.239-.924,3.343-.043,3.8,1.567.808,4.941,24.326,1.376,26-8.446,3.976,14.212,11.8,23.227,12.281a27.417,27.417,0,0,0,8.32-.72l8.468.715-.7-4.193c6.069-.518-1.617-9.068-1.314-10.372Z" fill="#00a2d7"/>
  <g id="Gruppe_234" data-name="Gruppe 234">
    <path id="Pfad_666" data-name="Pfad 666" d="M199.512,128.843,224.206,150.1a5.494,5.494,0,0,0,7.632,1.078h0a5.494,5.494,0,0,0,.968-7.914l-26.355-21.648L197.726,98.5a4.794,4.794,0,1,0-5.8,2.061l7.584,28.287Z" fill="#ffb6b6"/>
    <path id="Pfad_667" data-name="Pfad 667" d="M199.878,132.387h0c-.126.723,16.346,13.988,17.007,14.308a2.1,2.1,0,0,1,.935.877,1.933,1.933,0,0,1,.106.231,3.17,3.17,0,0,0,2.145,2,10.026,10.026,0,0,1,4.381,3,23.9,23.9,0,0,0,4.17,3.957c2.32,1.518,5.608,2,7.624-.8a6.38,6.38,0,0,0,1.128-4.124c-.188-3.063-2-5.628-3.765-8.066l1.169.625c-1.965-2.619-5.644-3.289-6.421-6.469-.51.539-1.5.043-1.717-.666s-16.032-14.044-15.864-14.767c.212-.911.218-2.043-.867-2.426a2,2,0,0,0-1.592.162c-4.574,2.447-6.378,3.5-9.582,7.583a4.606,4.606,0,0,0-1.307,3.118c.113,1.15,1.521,2.155,2.451,1.469Z" fill="#00a2d7"/>
  </g>
  <circle id="Ellipse_51" data-name="Ellipse 51" cx="14.475" cy="14.475" r="14.475" transform="translate(238.206 103.583)" fill="#ffb6b6"/>
  <path id="Pfad_668" data-name="Pfad 668" d="M112.483,127.284H37.447a4.218,4.218,0,0,0,0,8.437h75.036a4.218,4.218,0,0,0,0-8.437Z" fill="#e6e6e6"/>
  <path id="Pfad_669" data-name="Pfad 669" d="M79.781,103.632H37.447a4.218,4.218,0,0,0,0,8.437H79.781a4.218,4.218,0,1,0,0-8.437Z" fill="#e6e6e6"/>
  <path id="Pfad_670" data-name="Pfad 670" d="M112.483,253.778H37.447a4.218,4.218,0,1,0,0,8.437h75.036a4.218,4.218,0,1,0,0-8.437Z" fill="#e6e6e6"/>
  <path id="Pfad_671" data-name="Pfad 671" d="M79.781,230.126H37.447a4.218,4.218,0,1,0,0,8.437H79.781a4.218,4.218,0,1,0,0-8.437Z" fill="#e6e6e6"/>
  <path id="Pfad_672" data-name="Pfad 672" d="M436.416,355.869a1.586,1.586,0,0,0,1.149-2.749l-.109-.432.043-.1a4.259,4.259,0,0,1,7.856.029c1.285,3.095,2.921,6.195,3.324,9.467a12.6,12.6,0,0,1-.221,4.333,50.516,50.516,0,0,0,4.6-20.98,48.766,48.766,0,0,0-.3-5.439q-.251-2.221-.7-4.41a51.1,51.1,0,0,0-10.134-21.658,13.6,13.6,0,0,1-5.656-5.868,10.375,10.375,0,0,1-.943-2.835c.275.036,1.038-4.157.831-4.415.384-.582,1.071-.872,1.49-1.44,2.084-2.826,4.956-2.332,6.455,1.508,3.2,1.616,3.233,4.3,1.268,6.875-1.25,1.64-1.422,3.859-2.519,5.615.113.144.23.284.343.429a51.428,51.428,0,0,1,5.368,8.5,21.38,21.38,0,0,1,1.276-9.931c1.222-2.947,3.512-5.43,5.528-7.978a4.388,4.388,0,0,1,7.816,2.155l.012.113q-.449.254-.88.538a2.151,2.151,0,0,0,.867,3.915l.044.007a21.408,21.408,0,0,1-.564,3.2c2.587,10-3,13.649-10.973,13.812-.176.09-.348.181-.524.266a52.495,52.495,0,0,1,2.826,13.3,49.786,49.786,0,0,1-.036,8.039l.014-.095a13.157,13.157,0,0,1,4.491-7.6c3.456-2.839,8.339-3.885,12.068-6.167a2.469,2.469,0,0,1,3.782,2.4l-.015.1a14.441,14.441,0,0,0-1.62.781q-.449.254-.88.538a2.151,2.151,0,0,0,.867,3.915l.044.007.09.014a21.422,21.422,0,0,1-3.941,6.17c-1.618,8.734-8.565,9.562-16,7.019h0a52.48,52.48,0,0,1-3.525,10.292H436.732c-.045-.14-.086-.284-.126-.424a14.31,14.31,0,0,0,3.485-.208c-.934-1.147-1.869-2.3-2.8-3.449a.785.785,0,0,1-.059-.068c-.474-.587-.952-1.169-1.426-1.756h0a20.959,20.959,0,0,1,.614-5.339h0Z" fill="#fff"/>
  <g id="Gruppe_235" data-name="Gruppe 235">
    <path id="Pfad_673" data-name="Pfad 673" d="M268.944,111.131c2.025-7.382-20.043-13.712-24.331-7.767-.6-.845-2.8-1.359-3.811-1.1a7.885,7.885,0,0,0-2.691,1.535,10.629,10.629,0,0,0-3.023,3.044,3.618,3.618,0,0,0,.135,4.055c.752.866,2.073,5.467,3.2,5.7.788.161,1.452.29,2.022.384.508-.741,1.8-1.673,1.711-2.57.767.508.487,1.4.332,2.316-.515,3.043-12.123,26.6-5.475,19.655a13.932,13.932,0,0,0,2.411,1.084,30.32,30.32,0,0,0,3.759-8.193l.006.055a6.459,6.459,0,0,0,4.664,5.4c9.979,2.891,18.052-1.351,20.828-9-1.017-2.064-1.459-1.84-1.368-1.9a2.389,2.389,0,0,1,3.558,1.134c.161.422.307.781.434,1.052,1.447-5.175,3.167-4.428-2.365-14.881Z" fill="#2f2e41"/>
    <path id="Pfad_674" data-name="Pfad 674" d="M262.059,105.775l-1.019-5.211a2.079,2.079,0,0,1,.031-1.314,1.409,1.409,0,0,1,1.474-.646c.568.082.992.6,1.557.7,1.964.347,4.559-1.592,5.263,3.314.293,2.046,3.558,2.262,4.648,4.018s1.224,4.29-.264,5.724a4.488,4.488,0,0,1-4.64.693,10.091,10.091,0,0,1-3.864-3.014,34.8,34.8,0,0,0-3.31-3.676" fill="#2f2e41"/>
    <path id="Pfad_675" data-name="Pfad 675" d="M269.721,113.7c-3.982-.556-6.7-2-8.067-4.3a8.078,8.078,0,0,1-.54-6.465l.842.313a7.29,7.29,0,0,0,.475,5.7c1.226,2.05,3.721,3.351,7.415,3.867l-.124.889Z" fill="#00a2d7"/>
  </g>
</svg>
