<svg xmlns="http://www.w3.org/2000/svg" width="511" height="355" viewBox="0 0 511 355">
  <g id="undraw_publish_post_re_wmql" transform="translate(0 0)">
    <path id="Pfad_676" data-name="Pfad 676" d="M763.082,682.988l17.5,10.162-17.252-4.164c.133,1.424.314,2.824.555,4.194.067.38.139.754.217,1.128a31.307,31.307,0,0,0,3.168,9c.29.519.579,1.026.881,1.515s.591.971.9,1.436h46.385c.386-.465.754-.947,1.092-1.436a21.709,21.709,0,0,0,3.729-16.063,27.143,27.143,0,0,0-.724-3.4,31.123,31.123,0,0,0-1.1-3.361,44.311,44.311,0,0,0-2.661-5.642,35.665,35.665,0,0,0-9.341-10.343,65.227,65.227,0,0,0-5.9-4.1q-.579-.371-1.177-.724c-.609-.362-1.219-.718-1.834-1.062-1.225-.7-2.462-1.364-3.7-1.991-.326-.169-.646-.332-.966-.489-2.685-1.34-5.358-2.54-7.9-3.6-.32-.133-.646-.266-.966-.392a140.792,140.792,0,0,0-15.52-5.316s-.018.048-.048.151c-.078.278-.278.947-.549,1.937-.754,2.746-2.082,7.983-3.15,14.307-.06.344-.115.694-.175,1.044a109.633,109.633,0,0,0-1.478,16.178c-.006.338-.006.67-.006,1.008Z" transform="translate(-409.162 -351.262)" fill="#f2f2f2"/>
    <path id="Pfad_677" data-name="Pfad 677" d="M769.892,647.174c.006.018.067.314.205.857.115.453.271,1.074.477,1.846.706,2.7,1.961,7.217,3.747,12.66.1.314.211.64.32.965,1.243,3.723,2.722,7.839,4.429,12.069.429,1.062.857,2.106,1.3,3.126.133.32.265.634.4.941q2.806,6.5,5.775,11.894l.5.9a81.178,81.178,0,0,0,7.959,11.839c.4.495.815.971,1.231,1.436h1.4c-.422-.465-.845-.947-1.255-1.436a79.738,79.738,0,0,1-8.37-12.31c-.169-.3-.338-.591-.5-.893-2.13-3.868-4.067-7.911-5.8-11.918-.139-.308-.272-.622-.4-.941-2.263-5.3-4.164-10.506-5.7-15.092-.109-.326-.217-.652-.32-.972-2.233-6.77-3.633-12.081-4.17-14.2-.072-.314-.133-.561-.175-.73s-.06-.247-.066-.266l-.489.115h-.006Z" transform="translate(-411.874 -350.707)" fill="#fff"/>
    <path id="Pfad_678" data-name="Pfad 678" d="M764,669.144c.3-.018.609-.042.911-.072a28.3,28.3,0,0,0,7.392-1.726c.326-.121.652-.253.972-.386a29.11,29.11,0,0,0,2.758-1.352,28.218,28.218,0,0,0,9.287-8.267c.078-.1.151-.205.223-.308q-.489-.2-.959-.4c-.073.1-.151.211-.229.314a27.321,27.321,0,0,1-8.816,7.766,27.655,27.655,0,0,1-2.583,1.273c-.326.139-.652.266-.971.392a27.152,27.152,0,0,1-6.9,1.647c-.308.03-.615.06-.923.078C764.111,668.444,764.056,668.788,764,669.144Z" transform="translate(-409.539 -354.55)" fill="#fff"/>
    <path id="Pfad_679" data-name="Pfad 679" d="M761.742,687.786c0,.344.006.682.006,1.026.271.03.543.06.814.084A28.392,28.392,0,0,0,777.54,686.1q.471-.235.941-.489c.127-.06.253-.133.374-.2a28.5,28.5,0,0,0,14.44-21.367c.018-.1.03-.2.042-.3-.32-.169-.646-.332-.971-.5-.012.1-.024.211-.036.314a27.5,27.5,0,0,1-13.969,20.963,2.555,2.555,0,0,1-.283.151q-.462.263-.941.489a27.378,27.378,0,0,1-14.6,2.709C762.273,687.847,762.008,687.817,761.742,687.786Z" transform="translate(-408.642 -357.171)" fill="#fff"/>
    <path id="Pfad_680" data-name="Pfad 680" d="M763.282,701.2c.073.386.151.772.241,1.159.223.072.447.145.67.205a28.466,28.466,0,0,0,20.233-1.321c.32-.151.646-.308.965-.471.338-.169.676-.35,1.014-.537a28.514,28.514,0,0,0,14.651-24.155,28.227,28.227,0,0,0-.441-5.908c-.012-.09-.03-.175-.048-.265-.392-.253-.791-.5-1.189-.748.024.1.042.193.06.29a26.4,26.4,0,0,1,.579,4.32A27.562,27.562,0,0,1,785.9,699.344c-.332.181-.67.362-1.014.531-.32.163-.64.32-.966.465a26.826,26.826,0,0,1-3.2,1.219,27.484,27.484,0,0,1-16.745-.127C763.741,701.36,763.511,701.281,763.282,701.2Z" transform="translate(-409.253 -359.515)" fill="#fff"/>
    <rect id="Rechteck_172" data-name="Rechteck 172" width="33.792" height="33.792" transform="translate(425.888 173.587) rotate(180)" fill="#ffb8b8"/>
    <path id="Pfad_681" data-name="Pfad 681" d="M734.25,549.636h-6.658l-3.167-25.68h9.826Z" transform="translate(-287.288 -207.994)" fill="#ffb8b8"/>
    <path id="Pfad_682" data-name="Pfad 682" d="M884.988,729.444a2.824,2.824,0,0,0,2.818,2.812h12.527l.247-.513,1.913-3.946.748,3.946.1.513h4.725l-.042-.513-1.285-15.411-2.257-.133-7.132-.428-1.135-.066v4.508l-10,6.909A2.818,2.818,0,0,0,884.988,729.444Z" transform="translate(-457.518 -377.975)" fill="#2f2e41"/>
    <path id="Pfad_683" data-name="Pfad 683" d="M665.309,543.288l-6.4,1.84-10.142-23.8,9.444-2.716Z" transform="translate(-257.284 -205.873)" fill="#ffb8b8"/>
    <path id="Pfad_684" data-name="Pfad 684" d="M826.147,727.534a2.83,2.83,0,0,0,3.488,1.925l1.406-.4,7.778-2.239,2.86-.821.839-4.882,2.046,4.055,4.538-1.309-5.678-14.935-2.2.495-.791.175-6.185,1.388-1.11.247,1.249,4.333-7.706,9.407a2.825,2.825,0,0,0-.531,2.565Z" transform="translate(-434.141 -375.286)" fill="#2f2e41"/>
    <path id="Pfad_685" data-name="Pfad 685" d="M787.943,534.332a10.182,10.182,0,0,1,.948-9.1l15.339-79.563,6.034-30.171h36.206s22.628,25.042,17.8,57.024l1.351,45.04a16.562,16.562,0,0,1,.907,9.767l-.538,2.548.207.384a12.873,12.873,0,0,1,.162,11.931l-.109,35.987-10.862-.6-14.351-44.409-10.56-53.4-17.8,41.335-.6,9.655.293,8.51,8.449,34.255-11.767,4.526Z" transform="translate(-418.771 -258.92)" fill="#2f2e41"/>
    <path id="Pfad_686" data-name="Pfad 686" d="M906.833,743.381H731.978a.718.718,0,1,1,0-1.437H906.836a.718.718,0,1,1,0,1.437Z" transform="translate(-396.554 -388.381)" fill="#ccc"/>
    <circle id="Ellipse_52" data-name="Ellipse 52" cx="18.041" cy="18.041" r="18.041" transform="translate(308.108 25.065)" fill="#00a2d7"/>
    <path id="Pfad_687" data-name="Pfad 687" d="M721.206,214.385a1.459,1.459,0,0,0-2.014,0,59.759,59.759,0,0,0-10.238,10.457l-2.188-4.234c-.842-1.629-3.3-.19-2.46,1.438l3.2,6.193a1.441,1.441,0,0,0,2.46,0A57.682,57.682,0,0,1,721.206,216.4a1.433,1.433,0,0,0,0-2.014Z" transform="translate(-385.796 -178.798)" fill="#fff"/>
    <path id="Pfad_688" data-name="Pfad 688" d="M737.375,242.594a6.044,6.044,0,0,1-.586.913l30.625,22.488,34.826,11.3a9.1,9.1,0,0,1-4.383,17.618h0a71.791,71.791,0,0,1-21.06-7.2L755,276.223l-26.37-31.406a6.033,6.033,0,1,1,8.745-2.223Z" transform="translate(-394.461 -186.654)" fill="#ffb8b8"/>
    <path id="Pfad_689" data-name="Pfad 689" d="M787.159,301.585l6.7-14.721,33.423,6.791a14.311,14.311,0,1,1-13.133,25.431Z" transform="translate(-418.722 -207.752)" fill="#2f2e41"/>
    <path id="Pfad_690" data-name="Pfad 690" d="M579.357,173.359H178.829a2.246,2.246,0,0,1-2.243-2.243v-13.2a2.246,2.246,0,0,1,2.243-2.243H579.357a2.246,2.246,0,0,1,2.243,2.243v13.2A2.246,2.246,0,0,1,579.357,173.359Z" transform="translate(-176.585 -155.675)" fill="#e4e4e4"/>
    <circle id="Ellipse_90" data-name="Ellipse 90" cx="3.185" cy="3.185" r="3.185" transform="translate(9.835 5.013)" fill="#fff"/>
    <circle id="Ellipse_91" data-name="Ellipse 91" cx="3.185" cy="3.185" r="3.185" transform="translate(21.925 5.013)" fill="#fff"/>
    <circle id="Ellipse_92" data-name="Ellipse 92" cx="3.185" cy="3.185" r="3.185" transform="translate(34.015 5.013)" fill="#fff"/>
    <path id="Pfad_691" data-name="Pfad 691" d="M814.6,164.273H800.68a1.031,1.031,0,1,1,0-2.063H814.6a1.031,1.031,0,1,1,0,2.063Z" transform="translate(-423.675 -158.267)" fill="#fff"/>
    <path id="Pfad_692" data-name="Pfad 692" d="M814.6,170.682H800.68a1.031,1.031,0,1,1,0-2.063H814.6a1.031,1.031,0,0,1,0,2.063Z" transform="translate(-423.675 -160.808)" fill="#fff"/>
    <path id="Pfad_693" data-name="Pfad 693" d="M814.6,177.091H800.68a1.031,1.031,0,1,1,0-2.062H814.6a1.031,1.031,0,0,1,0,2.063Z" transform="translate(-423.675 -163.35)" fill="#fff"/>
    <path id="Pfad_694" data-name="Pfad 694" d="M528.378,371.45H357.52a19.938,19.938,0,0,1-19.915-19.915V258.478a19.936,19.936,0,0,1,19.915-19.914H528.378a19.936,19.936,0,0,1,19.914,19.914v93.057a19.937,19.937,0,0,1-19.915,19.915Z" transform="translate(-240.441 -188.547)" fill="#f2f2f2"/>
    <path id="Pfad_695" data-name="Pfad 695" d="M522.718,313.009c1.375-.6-1.414-.949-4.578-1.063s-6.991-.108-9.013-.435c-1.956-.316-1.811-.877-1.976-1.386s-.916-1.03-3.968-1.143c-3.8-.141-10.073.4-12.943.076-2.679-.3-1.086-1.257-4.992-1.293-2.23-.021-5.1.293-7.586.369a27.652,27.652,0,0,1-5.263-.274c-1.21-.2-2.052-.449-3.414-.625-3.574-.46-10.567-.305-16.808.284a78.847,78.847,0,0,0-14.609,2.51c-3.017.956-3.851,1.9-3.148,2.7.449.51,1.6.986,4.383,1.191,5.211.383,14.488-.276,19.872.072,3,.194,4.332.676,6.965.939,2.829.283,6.97.3,11.039.291,8.471-.014,17.159-.1,26.018-.261,3.7-.067,7.578-.153,11.515-.471s7.954-.931,8.784-1.505" transform="translate(-278.743 -215.728)" fill="#e6e7e8"/>
    <path id="Pfad_696" data-name="Pfad 696" d="M630.044,299.067c-.066-.168-.137-.335-.211-.5.12.047.24.1.358.154Z" transform="translate(-356.331 -212.394)" fill="#ccc"/>
    <path id="Pfad_697" data-name="Pfad 697" d="M504.707,330.116c-1.094-1.809-2.39-3.741-4.42-4.331-2.351-.684-4.765.675-6.814,2.016A198.557,198.557,0,0,0,475.8,340.82l.006.07,13.186-.909c3.176-.219,6.46-.468,9.266-1.97a8.168,8.168,0,0,1,3.31-1.385c1.5-.066,2.806.981,3.834,2.075,6.077,6.471,7.835,16.366,14.653,22.052A216.357,216.357,0,0,0,504.707,330.116Z" transform="translate(-295.247 -223.13)" fill="#e6e7e8"/>
    <path id="Pfad_698" data-name="Pfad 698" d="M532.469,382.227c-.672-.849-.947-1.047-1.609-1.9q-8.1-10.471-15.219-21.649-4.838-7.592-9.2-15.475-2.075-3.748-4.036-7.555-1.522-2.952-2.976-5.938c-.277-.569-.547-1.14-.815-1.713-.632-1.347-1.251-2.7-1.917-4.028a11.082,11.082,0,0,0-3.074-4.119,4.194,4.194,0,0,0-2.185-.841,6.094,6.094,0,0,0-3.163.906,101.811,101.811,0,0,0-20.02,13.805A104.224,104.224,0,0,0,452,351.772c-.144.205-.484.009-.339-.2q.857-1.212,1.748-2.4A104.8,104.8,0,0,1,480.16,324.22q2.6-1.687,5.3-3.215c.907-.514,1.819-1.021,2.746-1.5a6.689,6.689,0,0,1,2.912-.9c3.533-.055,5.362,3.946,6.618,6.638q.592,1.271,1.2,2.534,2.293,4.8,4.762,9.5,1.524,2.906,3.114,5.779,4.95,8.945,10.522,17.528c4.921,7.579,9.8,14.275,15.41,21.363C532.9,382.146,532.625,382.425,532.469,382.227Z" transform="translate(-285.657 -220.359)" fill="#e4e4e4"/>
    <path id="Pfad_699" data-name="Pfad 699" d="M457.764,336.119c-.205-.229-.409-.458-.616-.686a18.15,18.15,0,0,0-5.614-4.615,8.145,8.145,0,0,0-3.412-.791,9.738,9.738,0,0,0-3.543.773c-.533.213-1.055.455-1.569.713-.587.3-1.164.611-1.738.928q-1.616.894-3.19,1.867-3.132,1.936-6.068,4.167-1.522,1.157-2.981,2.39-1.357,1.145-2.659,2.352c-.186.171-.463-.106-.277-.277.229-.213.46-.425.692-.634q.981-.886,1.993-1.739,1.845-1.557,3.786-2.994,3.018-2.236,6.244-4.168,1.612-.965,3.269-1.849c.333-.178.671-.352,1.012-.516a16.137,16.137,0,0,1,2.406-.979,8.558,8.558,0,0,1,3.633-.357,9.46,9.46,0,0,1,3.352,1.16,22.655,22.655,0,0,1,5.558,4.979C458.208,336.029,457.933,336.307,457.764,336.119Z" transform="translate(-275.51 -224.73)" fill="#e4e4e4"/>
    <path id="Pfad_700" data-name="Pfad 700" d="M553.045,368.473l5.263-1.925,2.613-.956a26.726,26.726,0,0,1,2.58-.889,4.07,4.07,0,0,1,2.335.03,5.382,5.382,0,0,1,1.821,1.129,14.775,14.775,0,0,1,1.494,1.6c.569.684,1.13,1.375,1.693,2.063q3.486,4.263,6.926,8.563t6.834,8.637q3.4,4.347,6.758,8.731l.821,1.075c.151.2.492,0,.339-.2q-3.38-4.428-6.808-8.819t-6.919-8.766q-3.483-4.364-7.014-8.691-.88-1.078-1.762-2.153c-.5-.6-.987-1.216-1.531-1.779a5.519,5.519,0,0,0-3.742-1.971,7.221,7.221,0,0,0-2.545.56c-.88.318-1.758.643-2.637.964l-5.3,1.939-1.325.485c-.235.086-.134.465.1.378Z" transform="translate(-325.784 -238.431)" fill="#e4e4e4"/>
    <path id="Pfad_701" data-name="Pfad 701" d="M461.52,334.771a8.5,8.5,0,0,0-8.558.612,122.07,122.07,0,0,1,13.887,3.241C464.954,337.514,463.473,335.774,461.52,334.771Z" transform="translate(-286.188 -226.416)" fill="#e6e7e8"/>
    <path id="Pfad_702" data-name="Pfad 702" d="M452.58,336.352l-.515.419c.174-.147.355-.284.541-.414Z" transform="translate(-285.833 -227.391)" fill="#f2f2f2"/>
    <path id="Pfad_703" data-name="Pfad 703" d="M575.4,370.33a4.382,4.382,0,0,0-1.853-1.547l-.723.029a82.069,82.069,0,0,0,21.859,24.99Z" transform="translate(-333.72 -240.269)" fill="#e6e7e8"/>
    <circle id="Ellipse_53" data-name="Ellipse 53" cx="7.274" cy="7.274" r="7.274" transform="translate(139.064 69.203)" fill="#ccc"/>
    <path id="Pfad_704" data-name="Pfad 704" d="M440.439,278.25a18.528,18.528,0,0,0-6.807-4.835,10.944,10.944,0,0,0-2.28-.573h-.018l-.038-.008a8.777,8.777,0,0,0-3.258.2,9.009,9.009,0,0,0-1.517.528,13.27,13.27,0,0,0-1.423.807,9.258,9.258,0,0,1-3.145,1.173,10.578,10.578,0,0,1-1.689.166,4.079,4.079,0,0,0-1.421.2,3.411,3.411,0,0,0-2.077,2.249.221.221,0,0,0,.1.242c.126.09.249.193.381.273a1.19,1.19,0,0,0,.372.1q.316.067.632.129,1.166.231,2.342.409,2.379.36,4.784.507a53.353,53.353,0,0,0,14.97-1.213.216.216,0,0,0,.095-.358Z" transform="translate(-271.83 -202.151)" fill="#f0f0f0"/>
    <path id="Pfad_705" data-name="Pfad 705" d="M408.577,289.487a10.943,10.943,0,0,0-2.28-.573h-.018l-.038-.008a8.777,8.777,0,0,0-3.258.2,9,9,0,0,0-1.517.528,13.262,13.262,0,0,0-1.423.807,9.256,9.256,0,0,1-3.145,1.173,10.58,10.58,0,0,1-1.689.166,4.081,4.081,0,0,0-1.421.2,3.411,3.411,0,0,0-2.077,2.249.221.221,0,0,0,.1.242c.126.09.249.193.381.273a1.189,1.189,0,0,0,.372.1q.316.067.632.129,1.166.231,2.342.409,2.379.36,4.784.507a53.353,53.353,0,0,0,14.97-1.213.216.216,0,0,0,.094-.358A18.525,18.525,0,0,0,408.577,289.487Z" transform="translate(-261.895 -208.531)" fill="#f0f0f0"/>
    <path id="Pfad_706" data-name="Pfad 706" d="M447.327,251.83l3.874-2.941,1.889,1.888-6.312,4.319Z" transform="translate(-177.18 -98.792)" fill="#ccc"/>
    <path id="Pfad_707" data-name="Pfad 707" d="M609.574,407.317H596.321l.465-1.506h0c2.881-1.043,1.263-3.285,4-4.655,6.7-3.351,9.3-13.352,8.316-17.306l4.393-.186S619.564,400.891,609.574,407.317Z" transform="translate(-343.041 -246.176)" fill="#ccc"/>
    <path id="Pfad_708" data-name="Pfad 708" d="M632.785,405.5a2.228,2.228,0,0,1-2.879.054l-.009-.007v-.011a2.134,2.134,0,0,0-.086-.545,1.524,1.524,0,0,1-.055.377l-.011.041-.03-.031c-.026-.027-.051-.053-.074-.08a2.247,2.247,0,0,1-.342-.518,6.549,6.549,0,0,0-1.817-2.265,3.184,3.184,0,0,1-.381-.367,3.143,3.143,0,0,1,3.946-4.788l.02.011-.01.02a1.637,1.637,0,0,1-.292.421,2.134,2.134,0,0,0,.45-.325l.014-.013.016.011a3.151,3.151,0,0,1,.575.512l.018.021a1.4,1.4,0,0,0,1.039.479,2.227,2.227,0,0,1,2.156,2.609l0,.015-.014,0a1.911,1.911,0,0,1-.778.1,2.172,2.172,0,0,0,.693.174l.031,0-.01.029a2.225,2.225,0,0,1-.642.968l-.008.007-.009.008a2.187,2.187,0,0,0-.755,1.518A2.244,2.244,0,0,1,632.785,405.5Z" transform="translate(-354.937 -251.437)" fill="#ccc"/>
    <path id="Pfad_709" data-name="Pfad 709" d="M637.69,409.247a2.218,2.218,0,0,1-.025.239,2.251,2.251,0,0,0,.362-1.115c0-.061.009-.121.018-.182A2.113,2.113,0,0,0,637.69,409.247Z" transform="translate(-359.436 -255.905)" opacity="0.15"/>
    <path id="Pfad_710" data-name="Pfad 710" d="M638.867,405.4a2.168,2.168,0,0,0,.554.157,2.243,2.243,0,0,0,.2-.248,1.887,1.887,0,0,1-.757.091Z" transform="translate(-359.913 -254.76)" opacity="0.15"/>
    <path id="Pfad_711" data-name="Pfad 711" d="M640.21,404.244a2.245,2.245,0,0,1-.016.578,2.217,2.217,0,0,0,.251-.517l.01-.029-.031,0a2.153,2.153,0,0,1-.214-.029Z" transform="translate(-360.44 -254.339)" opacity="0.15"/>
    <path id="Pfad_712" data-name="Pfad 712" d="M634.545,399.214a2.232,2.232,0,0,0-1.635-.756,1.4,1.4,0,0,1-1.039-.479l-.018-.021a3.156,3.156,0,0,0-.575-.512l-.016-.011-.014.013a2.135,2.135,0,0,1-.45.325,1.637,1.637,0,0,0,.292-.421l.01-.02-.02-.011a3.14,3.14,0,0,0-4.653,2.033,3.141,3.141,0,0,1,4.316-1.157l.02.011-.01.02a1.638,1.638,0,0,1-.292.421,2.135,2.135,0,0,0,.45-.325l.014-.013.016.011a3.154,3.154,0,0,1,.575.512l.018.021a1.4,1.4,0,0,0,1.039.479,2.227,2.227,0,0,1,2.154,1.831,2.691,2.691,0,0,0,.322-.078l.014,0,0-.015a2.219,2.219,0,0,0-.522-1.853Z" transform="translate(-354.98 -251.421)" opacity="0.15"/>
    <path id="Pfad_713" data-name="Pfad 713" d="M627.733,374.072a7.172,7.172,0,0,1-5.99,7.074l-.036.006-.027-.023a6.873,6.873,0,0,0-1.5-.951,4.91,4.91,0,0,1,.794.936l.076.115-.138.007c-.119.006-.237.009-.351.009a7.235,7.235,0,0,1-1.98-.275,21.086,21.086,0,0,0-9.34-.423,10.238,10.238,0,0,1-1.7.142,10.119,10.119,0,0,1-3.183-19.723l.07-.023.027.068a5.271,5.271,0,0,1,.4,1.6,6.871,6.871,0,0,0,.171-1.779l0-.063.061-.015a10.162,10.162,0,0,1,2.459-.3h.09A4.517,4.517,0,0,0,611,358.961a7.17,7.17,0,0,1,10.893.335l.03.037-.02.044a6.154,6.154,0,0,1-1.42,2.088,6.991,6.991,0,0,0,1.894-1.307l.072-.069.05.086a7.166,7.166,0,0,1,.976,3.612v.075a7.041,7.041,0,0,0,2.063,5.054A7.225,7.225,0,0,1,627.733,374.072Z" transform="translate(-343.48 -235.439)" fill="#ccc"/>
    <g id="Gruppe_236" data-name="Gruppe 236" transform="translate(254.921 121.685)" opacity="0.15">
      <path id="Pfad_714" data-name="Pfad 714" d="M632.527,357.459a5.064,5.064,0,0,1-.9,1.108,6.973,6.973,0,0,0,1.412-.882Q632.785,357.562,632.527,357.459Z" transform="translate(-611.962 -357.459)"/>
      <path id="Pfad_715" data-name="Pfad 715" d="M638.655,367.966a7.2,7.2,0,0,1,1.031,1.256,7.33,7.33,0,0,1-.671-3.079v-.075a7.165,7.165,0,0,0-.975-3.612l-.05-.086-.072.069a7.005,7.005,0,0,1-1.308,1A6.985,6.985,0,0,0,638.655,367.966Z" transform="translate(-613.939 -359.407)"/>
      <path id="Pfad_716" data-name="Pfad 716" d="M636.281,361.491v.075c0,.07,0,.141,0,.211a7.469,7.469,0,0,0,.849-1.464l.02-.044-.03-.037a7.226,7.226,0,0,0-1.3-1.255A7.181,7.181,0,0,1,636.281,361.491Z" transform="translate(-613.628 -358.061)"/>
      <path id="Pfad_717" data-name="Pfad 717" d="M626.18,376.268a6.479,6.479,0,0,1-.914-1.112,7.164,7.164,0,0,1-5.308,10.11l-.035.006-.027-.023a6.872,6.872,0,0,0-1.5-.952,4.909,4.909,0,0,1,.794.936l.076.115-.138.007c-.119.006-.237.009-.351.009a7.233,7.233,0,0,1-1.98-.275,21.086,21.086,0,0,0-9.34-.423,10.241,10.241,0,0,1-1.7.142,10.073,10.073,0,0,1-6.72-2.563,10.128,10.128,0,0,0,9.144,5.794,10.236,10.236,0,0,0,1.7-.142,21.086,21.086,0,0,1,9.339.423,7.23,7.23,0,0,0,1.98.275c.114,0,.232,0,.351-.009l.138-.007-.076-.115a4.91,4.91,0,0,0-.794-.936,6.872,6.872,0,0,1,1.5.951l.027.023.035-.006a7.167,7.167,0,0,0,3.8-12.23Z" transform="translate(-599.04 -364.477)"/>
    </g>
    <path id="Pfad_718" data-name="Pfad 718" d="M226.676,244.722l-5.25-3.986-2.559,2.559,8.553,5.853Z" transform="translate(-86.796 -95.556)" fill="#ccc"/>
    <path id="Pfad_719" data-name="Pfad 719" d="M411.388,400.141h17.96l-.63-2.041h0c-3.9-1.413-1.711-4.451-5.425-6.308-9.083-4.542-12.6-18.095-11.27-23.452l-5.953-.252S397.85,391.434,411.388,400.141Z" transform="translate(-266.612 -239.995)" fill="#ccc"/>
    <path id="Pfad_720" data-name="Pfad 720" d="M388.046,395.55a2.964,2.964,0,0,0-1.024-2.057l-.012-.011-.011-.01a3.016,3.016,0,0,1-.87-1.312l-.013-.04.042,0a2.941,2.941,0,0,0,.939-.235,2.589,2.589,0,0,1-1.055-.132l-.019-.006,0-.02a3.018,3.018,0,0,1,2.922-3.536,1.9,1.9,0,0,0,1.408-.65l.025-.028a4.277,4.277,0,0,1,.779-.693l.022-.015.019.018a2.892,2.892,0,0,0,.61.44,2.218,2.218,0,0,1-.4-.571l-.014-.028.027-.016a4.259,4.259,0,0,1,5.348,6.488,4.311,4.311,0,0,1-.517.5,8.874,8.874,0,0,0-2.462,3.069,3.045,3.045,0,0,1-.464.7c-.032.036-.065.073-.1.108l-.04.042-.015-.056a2.064,2.064,0,0,1-.075-.511,2.893,2.893,0,0,0-.116.738v.015l-.012.01a3.017,3.017,0,0,1-4.921-2.2Z" transform="translate(-259.623 -247.126)" fill="#ccc"/>
    <path id="Pfad_721" data-name="Pfad 721" d="M389.872,402.757a3.014,3.014,0,0,0,.034.324,3.051,3.051,0,0,1-.49-1.512c0-.082-.013-.164-.024-.246a2.863,2.863,0,0,1,.481,1.433Z" transform="translate(-260.978 -253.18)" opacity="0.15"/>
    <path id="Pfad_722" data-name="Pfad 722" d="M387.94,397.539a2.937,2.937,0,0,1-.751.212,3.019,3.019,0,0,1-.275-.336,2.56,2.56,0,0,0,1.026.123Z" transform="translate(-259.996 -251.628)" opacity="0.15"/>
    <path id="Pfad_723" data-name="Pfad 723" d="M386.562,395.977a3.037,3.037,0,0,0,.021.783,3,3,0,0,1-.34-.7l-.013-.04.042,0A2.92,2.92,0,0,0,386.562,395.977Z" transform="translate(-259.724 -251.057)" opacity="0.15"/>
    <path id="Pfad_724" data-name="Pfad 724" d="M386.748,389.161a3.025,3.025,0,0,1,2.215-1.024,1.9,1.9,0,0,0,1.408-.65l.025-.028a4.278,4.278,0,0,1,.779-.693l.022-.015.019.018a2.894,2.894,0,0,0,.61.44,2.218,2.218,0,0,1-.4-.571l-.014-.028.027-.016a4.256,4.256,0,0,1,6.3,2.755,4.256,4.256,0,0,0-5.848-1.568l-.027.016.014.028a2.218,2.218,0,0,0,.4.571,2.892,2.892,0,0,1-.61-.44l-.019-.018-.022.015a4.278,4.278,0,0,0-.779.693l-.025.028a1.9,1.9,0,0,1-1.408.65A3.018,3.018,0,0,0,386.5,391.8a3.649,3.649,0,0,1-.437-.106l-.019-.006,0-.02a3.006,3.006,0,0,1,.707-2.511Z" transform="translate(-259.631 -247.103)" opacity="0.15"/>
    <path id="Pfad_725" data-name="Pfad 725" d="M379.684,348.1a9.542,9.542,0,0,0,2.8-6.85c0-.017,0-.035,0-.052v-.049a9.71,9.71,0,0,1,1.322-4.9l.068-.117.1.094A9.473,9.473,0,0,0,386.534,338a8.338,8.338,0,0,1-1.925-2.83l-.027-.059.041-.051a9.717,9.717,0,0,1,14.762-.453,6.122,6.122,0,0,0,4.564,2.022h.122a13.774,13.774,0,0,1,3.334.409l.081.02,0,.086a9.315,9.315,0,0,0,.231,2.41,7.144,7.144,0,0,1,.539-2.171l.037-.092.094.031a13.713,13.713,0,0,1-4.314,26.727,13.874,13.874,0,0,1-2.3-.192,28.575,28.575,0,0,0-12.656.574,9.8,9.8,0,0,1-2.684.372c-.154,0-.314,0-.475-.012l-.186-.009.1-.156a6.653,6.653,0,0,1,1.076-1.268,9.312,9.312,0,0,0-2.031,1.289l-.037.031-.048-.008a9.713,9.713,0,0,1-5.148-16.573Z" transform="translate(-255.95 -225.444)" fill="#ccc"/>
    <g id="Gruppe_237" data-name="Gruppe 237" transform="translate(120.763 106.679)" opacity="0.15">
      <path id="Pfad_726" data-name="Pfad 726" d="M395.949,332.577a6.867,6.867,0,0,0,1.224,1.5,9.448,9.448,0,0,1-1.913-1.2Q395.6,332.716,395.949,332.577Z" transform="translate(-384.068 -332.577)"/>
      <path id="Pfad_727" data-name="Pfad 727" d="M386.161,346.815a9.758,9.758,0,0,0-1.4,1.7,9.932,9.932,0,0,0,.909-4.173c0-.017,0-.035,0-.052v-.049a9.711,9.711,0,0,1,1.322-4.9l.068-.117.1.094a9.495,9.495,0,0,0,1.772,1.35,9.465,9.465,0,0,1-2.771,6.14Z" transform="translate(-379.905 -335.216)"/>
      <path id="Pfad_728" data-name="Pfad 728" d="M390.936,338.041v.1c0,.1,0,.191,0,.286a10.118,10.118,0,0,1-1.151-1.984l-.027-.059.041-.051a9.8,9.8,0,0,1,1.758-1.7,9.733,9.733,0,0,0-.617,3.408Z" transform="translate(-381.884 -333.392)"/>
      <path id="Pfad_729" data-name="Pfad 729" d="M379.684,358.066a8.785,8.785,0,0,0,1.239-1.507,9.708,9.708,0,0,0,7.193,13.7l.048.008.037-.031a9.314,9.314,0,0,1,2.031-1.289,6.653,6.653,0,0,0-1.076,1.268l-.1.156.186.009c.161.008.321.012.475.012a9.8,9.8,0,0,0,2.684-.372,28.575,28.575,0,0,1,12.657-.573,13.871,13.871,0,0,0,2.3.192,13.65,13.65,0,0,0,9.107-3.473,13.725,13.725,0,0,1-12.391,7.852,13.875,13.875,0,0,1-2.3-.192,28.575,28.575,0,0,0-12.656.574,9.8,9.8,0,0,1-2.684.372c-.154,0-.314,0-.475-.012l-.186-.009.1-.156a6.653,6.653,0,0,1,1.076-1.268,9.312,9.312,0,0,0-2.031,1.289l-.037.031-.048-.008a9.713,9.713,0,0,1-5.148-16.573Z" transform="translate(-376.712 -342.088)"/>
    </g>
    <circle id="Ellipse_54" data-name="Ellipse 54" cx="0.713" cy="0.713" r="0.713" transform="translate(185.701 94.862)" fill="#fff"/>
    <circle id="Ellipse_55" data-name="Ellipse 55" cx="0.428" cy="0.428" r="0.428" transform="translate(239.327 112.252)" fill="#fff"/>
    <circle id="Ellipse_56" data-name="Ellipse 56" cx="0.428" cy="0.428" r="0.428" transform="translate(247.599 93.009)" fill="#fff"/>
    <circle id="Ellipse_57" data-name="Ellipse 57" cx="0.428" cy="0.428" r="0.428" transform="translate(171.011 80.18)" fill="#ccc"/>
    <circle id="Ellipse_58" data-name="Ellipse 58" cx="0.428" cy="0.428" r="0.428" transform="translate(166.732 97.428)" fill="#fff"/>
    <circle id="Ellipse_59" data-name="Ellipse 59" cx="0.428" cy="0.428" r="0.428" transform="translate(145.91 93.009)" fill="#ccc"/>
    <circle id="Ellipse_60" data-name="Ellipse 60" cx="0.428" cy="0.428" r="0.428" transform="translate(219.646 96.573)" fill="#fff"/>
    <circle id="Ellipse_61" data-name="Ellipse 61" cx="0.428" cy="0.428" r="0.428" transform="translate(263.43 82.746)" fill="#ccc"/>
    <path id="Pfad_730" data-name="Pfad 730" d="M585.395,401.38a3.131,3.131,0,0,1,.048-3.244,5.254,5.254,0,0,0,2.093,2.938c.4.269.863.527,1,.986a1.174,1.174,0,0,1-.122.862,3.485,3.485,0,0,1-.541.707l-.019.072A6.37,6.37,0,0,1,585.395,401.38Z" transform="translate(-338.537 -251.915)" fill="#e6e7e8"/>
    <path id="Pfad_731" data-name="Pfad 731" d="M510,362.854a3.131,3.131,0,0,1,.048-3.244,5.254,5.254,0,0,0,2.093,2.938c.4.269.863.527,1,.986a1.174,1.174,0,0,1-.122.862,3.491,3.491,0,0,1-.541.707l-.019.072A6.369,6.369,0,0,1,510,362.854Z" transform="translate(-308.637 -236.623)" fill="#e6e7e8"/>
    <path id="Pfad_732" data-name="Pfad 732" d="M438.147,390.271a3.131,3.131,0,0,1,.048-3.244,5.254,5.254,0,0,0,2.093,2.938c.4.269.863.527,1,.986a1.175,1.175,0,0,1-.122.862,3.488,3.488,0,0,1-.541.707l-.019.072A6.37,6.37,0,0,1,438.147,390.271Z" transform="translate(-280.143 -247.506)" fill="#e6e7e8"/>
    <rect id="Rechteck_173" data-name="Rechteck 173" width="1.569" height="84.004" transform="translate(241.039 78.884)" fill="#ccc"/>
    <rect id="Rechteck_174" data-name="Rechteck 174" width="10.269" height="10.269" rx="5.134" transform="translate(236.76 72.055)" fill="#ccc"/>
    <path id="Pfad_733" data-name="Pfad 733" d="M519.662,398.686l-4.024-1.775v-1.526l1.434-.008a1.065,1.065,0,0,0,1-.728l1.007-3.023a1.065,1.065,0,0,0-1.011-1.4h-2.436V388.8h3.058a1.065,1.065,0,0,0,1.038-.827l.694-3.018a1.065,1.065,0,0,0-1.038-1.3h-3.752V383.3a.71.71,0,1,0-1.42,0v.355H489.064V383.3a.71.71,0,0,0-1.42,0v.355h-2.982a1.065,1.065,0,0,0-1.038,1.3l.694,3.018a1.065,1.065,0,0,0,1.038.827h2.289v1.42h-1.666a1.065,1.065,0,0,0-1.014,1.392l1.028,3.191a1.065,1.065,0,0,0,1.02.739l.632,0v1.369l-3.255,1.775a1.065,1.065,0,0,0-1.065,1.065h0a1.065,1.065,0,0,0,1.065,1.065h3.255v7.812a.71.71,0,0,0,1.42,0v-7.812h25.152v7.812a.71.71,0,1,0,1.42,0v-7.812h4.024a1.065,1.065,0,0,0,1.065-1.065h0A1.065,1.065,0,0,0,519.662,398.686Zm-30.6-9.884h25.152v1.42H489.064Zm0,8.108v-1.377l25.152-.141v1.518Z" transform="translate(-298.229 -245.749)" fill="#ccc"/>
    <path id="Pfad_734" data-name="Pfad 734" d="M536.118,497.509H382.459a3.652,3.652,0,0,1,0-7.3h153.66a3.652,3.652,0,1,1,0,7.3Z" transform="translate(-256.78 -288.461)" fill="#e6e6e6"/>
    <path id="Pfad_735" data-name="Pfad 735" d="M518.443,524.832H467.9a3.653,3.653,0,1,1,0-7.305h50.543a3.653,3.653,0,0,1,0,7.305Z" transform="translate(-290.664 -299.306)" fill="#e6e6e6"/>
    <path id="Pfad_736" data-name="Pfad 736" d="M518.443,580.256H467.9a3.653,3.653,0,1,1,0-7.305h50.543a3.653,3.653,0,0,1,0,7.305Z" transform="translate(-290.664 -321.306)" fill="#e6e6e6"/>
    <path id="Pfad_737" data-name="Pfad 737" d="M518.444,608.643H467.9a3.652,3.652,0,1,1,0-7.3h50.543a3.652,3.652,0,0,1,0,7.3Z" transform="translate(-290.664 -332.573)" fill="#e6e6e6"/>
    <path id="Pfad_738" data-name="Pfad 738" d="M528.161,552.155H420.926a3.652,3.652,0,0,1,0-7.3H528.161a3.652,3.652,0,1,1,0,7.3Z" transform="translate(-272.035 -310.152)" fill="#e6e6e6"/>
    <circle id="Ellipse_62" data-name="Ellipse 62" cx="17.939" cy="17.939" r="17.939" transform="translate(382.817 54.978) rotate(-28.663)" fill="#ffb8b8"/>
    <path id="Pfad_739" data-name="Pfad 739" d="M834.091,290.472l6.8-8.743,9.7-.421.968,8.223,4.807,2.217a128.933,128.933,0,0,1,2.172,55.859h0a4.974,4.974,0,0,0-1.415,4.831l.312,1.242-.029.046a7.278,7.278,0,0,0-.966,5.434h0l8.789,15.617c-18.664,7.607-32.346-6.579-45.021-25.169l-7.845-27.154Z" transform="translate(-428.719 -205.558)" fill="#00a2d7"/>
    <path id="Pfad_740" data-name="Pfad 740" d="M834.074,222.494h11.588c7.6,0,13.756,6.928,13.756,15.475,5.733,5.756,4.012,12.967-.536,20.73a90.047,90.047,0,0,0-23.86,6.382l-1.082-4.619-2.134,6.083q-2.846,1.379-5.644,3.016c2.177-10.229,3.073-20.434,1.578-28.361h-3.925v-4.3l-1.332,4.3h-7.116a18.706,18.706,0,0,1,18.706-18.706Z" transform="translate(-429.909 -182.174)" fill="#2f2e41"/>
    <path id="Pfad_741" data-name="Pfad 741" d="M636.693,188.43l-1.832-18.32,24.319-36,1,.675-24.074,35.638,1.789,17.886Z" transform="translate(-251.769 -53.241)" fill="#2f2e41"/>
    <circle id="Ellipse_63" data-name="Ellipse 63" cx="1.81" cy="1.81" r="1.81" transform="translate(383.714 133.296)" fill="#2f2e41"/>
    <circle id="Ellipse_64" data-name="Ellipse 64" cx="8.448" cy="8.448" r="8.448" transform="translate(411.17 30.491)" fill="#2f2e41"/>
    <path id="Pfad_742" data-name="Pfad 742" d="M837.681,397.3a6.047,6.047,0,0,1,1.08.1l5.928-37.53-5.939-36.13a9.1,9.1,0,0,1,17.665-4.19h0a71.79,71.79,0,0,1,3.265,22.016l-.207,24.64-15.8,37.841a6.033,6.033,0,1,1-5.988-6.75Z" transform="translate(-436.365 -218.209)" fill="#ffb8b8"/>
    <path id="Pfad_743" data-name="Pfad 743" d="M861.379,355.722l-16.154.8-9.3-32.813a14.311,14.311,0,0,1,28.622,0Z" transform="translate(-438.061 -216.701)" fill="#2f2e41"/>
  </g>
</svg>
