<svg xmlns="http://www.w3.org/2000/svg" width="419.135" height="354.309" viewBox="0 0 419.135 354.309">
  <g id="undraw_active_support_re_b7sj" transform="translate(0.001 0)">
    <path id="Pfad_744" data-name="Pfad 744" d="M606.285,245.97c13.9-10.271,33.48-14.209,48.8-6.2a79.647,79.647,0,0,0-39.635,37.674c-3.2,6.507-6.076,14.077-12.673,17.084-4.1,1.871-8.949,1.51-13.2,0s-8.032-4.078-11.76-6.618l-1.118-.135C583.332,271.817,592.38,256.242,606.285,245.97Z" transform="translate(-382.115 -196.176)" fill="#f0f0f0"/>
    <path id="Pfad_745" data-name="Pfad 745" d="M655.094,242.255a68.078,68.078,0,0,0-39.431,14.127,29.316,29.316,0,0,0-6.424,6.565,16.814,16.814,0,0,0-2.772,8.4c-.2,2.793-.087,5.673-.965,8.368a10.3,10.3,0,0,1-5.746,6.155c-3.3,1.49-6.93,1.706-10.492,1.794-3.954.1-8.064.137-11.66,2-.436.226-.76-.464-.325-.689,6.257-3.24,13.569-1.126,20.145-3.054,3.069-.9,5.885-2.73,7.117-5.791,1.077-2.677.96-5.648,1.141-8.477a17.942,17.942,0,0,1,2.4-8.318,27.1,27.1,0,0,1,6.148-6.788,66.047,66.047,0,0,1,17.872-10.33,69.284,69.284,0,0,1,23.054-4.723c.489-.015.419.744-.067.759Z" transform="translate(-382.249 -198.315)" fill="#fff"/>
    <path id="Pfad_746" data-name="Pfad 746" d="M641.748,252.668a10.214,10.214,0,0,1,2.4-13.006c.381-.309.878.269.5.578a9.458,9.458,0,0,0-2.207,12.1c.246.424-.444.747-.689.325Z" transform="translate(-404.85 -197.629)" fill="#fff"/>
    <path id="Pfad_747" data-name="Pfad 747" d="M622.372,284.879a19.686,19.686,0,0,0,14.274-1.438c.437-.224.761.465.325.689a20.477,20.477,0,0,1-14.857,1.466C621.642,285.463,621.9,284.746,622.372,284.879Z" transform="translate(-398.238 -213.313)" fill="#fff"/>
    <path id="Pfad_748" data-name="Pfad 748" d="M673.645,245.815a5.782,5.782,0,0,0,3.976,3.78c.474.128.214.844-.257.717a6.479,6.479,0,0,1-4.408-4.172.394.394,0,0,1,.182-.507A.383.383,0,0,1,673.645,245.815Z" transform="translate(-416.465 -199.78)" fill="#fff"/>
    <path id="Pfad_749" data-name="Pfad 749" d="M666.7,317.623c-.3-.071-.6-.142-.9-.209a76.144,76.144,0,0,0-12.216-1.821c-.318-.026-.64-.048-.958-.065a80.268,80.268,0,0,0-29.306,3.8,77.945,77.945,0,0,0-10.949,4.515c-4.875,2.459-9.965,5.514-15.213,6.2a13.376,13.376,0,0,1-1.65.131l-19.416-20.43c-.021-.069-.047-.133-.068-.2l-.812-.78c.176-.1.36-.209.536-.314.1-.061.208-.118.309-.179.069-.039.138-.078.2-.118.023-.013.046-.026.064-.035.06-.039.12-.07.176-.1q1.544-.882,3.105-1.745s0,0,.014,0a114.613,114.613,0,0,1,25-10.453c.261-.071.527-.146.8-.207a74.379,74.379,0,0,1,11.948-2.138A65.752,65.752,0,0,1,624,293.19a54.682,54.682,0,0,1,16.856,2.858c10.832,3.651,20.377,10.725,25.456,20.8C666.446,317.106,666.571,317.36,666.7,317.623Z" transform="translate(-381.583 -216.816)" fill="#f0f0f0"/>
    <path id="Pfad_750" data-name="Pfad 750" d="M666.656,324.156A68.077,68.077,0,0,0,626.667,311.7a29.316,29.316,0,0,0-9.082,1.374,16.815,16.815,0,0,0-7.273,5.041c-1.843,2.108-3.485,4.478-5.808,6.1a10.3,10.3,0,0,1-8.293,1.455c-3.528-.795-6.561-2.81-9.458-4.884-3.216-2.3-6.521-4.745-10.513-5.424-.484-.082-.328-.828.155-.746,6.946,1.181,11.512,7.27,17.924,9.69,2.992,1.129,6.342,1.364,9.169-.339,2.472-1.489,4.167-3.931,6.015-6.082a17.942,17.942,0,0,1,6.928-5.194,27.1,27.1,0,0,1,9-1.718,66.047,66.047,0,0,1,20.489,2.512,69.285,69.285,0,0,1,21.251,10.109c.4.282-.114.846-.51.566Z" transform="translate(-381.846 -223.153)" fill="#fff"/>
    <path id="Pfad_751" data-name="Pfad 751" d="M661.983,306.66a10.214,10.214,0,0,1,9.747-8.94c.49-.017.539.744.049.761a9.458,9.458,0,0,0-9.049,8.335c-.058.487-.8.329-.746-.155Z" transform="translate(-412.558 -218.432)" fill="#fff"/>
    <path id="Pfad_752" data-name="Pfad 752" d="M630.229,320.158a19.686,19.686,0,0,0,12.263,7.446c.483.084.328.83-.155.746a20.477,20.477,0,0,1-12.745-7.774c-.3-.391.342-.807.637-.418Z" transform="translate(-400.969 -226.394)" fill="#fff"/>
    <path id="Pfad_753" data-name="Pfad 753" d="M695,319.183a5.782,5.782,0,0,0,.9,5.412c.3.387-.337.8-.637.418a6.478,6.478,0,0,1-1.008-5.985.394.394,0,0,1,.451-.3A.383.383,0,0,1,695,319.183Z" transform="translate(-423.962 -225.938)" fill="#fff"/>
    <path id="Pfad_754" data-name="Pfad 754" d="M541.2,239.42h-1.5V198.2a23.856,23.856,0,0,0-23.856-23.856H428.515A23.856,23.856,0,0,0,404.659,198.2V424.33a23.856,23.856,0,0,0,23.856,23.856h87.327A23.856,23.856,0,0,0,539.7,424.33V268.76h1.5Z" transform="translate(-320.702 -174.345)" fill="#3f3d56"/>
    <path id="Pfad_755" data-name="Pfad 755" d="M520.46,184h-11.4a8.464,8.464,0,0,1-7.837,11.661H451.2A8.464,8.464,0,0,1,443.359,184H432.712A17.816,17.816,0,0,0,414.9,201.813v225.8a17.816,17.816,0,0,0,17.816,17.816H520.46a17.816,17.816,0,0,0,17.816-17.816h0v-225.8A17.815,17.815,0,0,0,520.461,184Z" transform="translate(-324.356 -177.79)" fill="#fff"/>
    <path id="Pfad_756" data-name="Pfad 756" d="M486.146,423.136a49.2,49.2,0,1,1,48.528-41.159,49.146,49.146,0,0,1-48.528,41.159Zm0-96.454a46.741,46.741,0,0,0-21.463,5.148,47.3,47.3,0,1,0,21.463-5.148Z" transform="translate(-332.23 -228.111)" fill="#f0f0f0"/>
    <path id="Pfad_757" data-name="Pfad 757" d="M341.814,333.316a9.308,9.308,0,0,1,7.731,12l16.344,13.614-5.85,11.95-22.811-19.55a9.359,9.359,0,0,1,4.587-18.012Z" transform="translate(-294.49 -231.128)" fill="#ffb6b6"/>
    <path id="Pfad_758" data-name="Pfad 758" d="M500.016,398.25c-.328-3.524-1.683-9.858-2.833-12.2-3.535-9.252-26.374-16.856-29.441-17.836l-.778-8.649-31.734-3.414-4.026,11.06-11.381,4.27a5.59,5.59,0,0,0-3.331,3.414h0l-10.211,2.951-10.076,2.913L361.2,356.093l-1.653,1.08L348.5,364.382l-1.7,1.112,45.3,40.871,16.828-3.948,12.655-2.977,1.08,4.385-2.8,15.407a48.212,48.212,0,0,0,62.348,4.983l7.189-6.379a48.156,48.156,0,0,0,10.809-18.989Z" transform="translate(-300.046 -239.307)" fill="#e4e4e4"/>
    <circle id="Ellipse_65" data-name="Ellipse 65" cx="22.848" cy="22.848" r="22.848" transform="translate(124.968 73.615) rotate(-18.319)" fill="#ffb6b6"/>
    <path id="Pfad_759" data-name="Pfad 759" d="M482.754,267.323a15.422,15.422,0,0,1,9.338-6.22,14.723,14.723,0,0,1,10.858,1.992,22.235,22.235,0,0,1,11-1.873,11.727,11.727,0,0,1,9.072,5.968,16.311,16.311,0,0,0,1.311,2.546c1.514,2.02,4.327,2.282,6.812,2.379l-3.769,2.2,3.757,1.75-5.113,1.952c3.966,3.487,4.926,9.692,3.424,14.894-1.422,4.926-4.682,9.072-8.322,12.622-.71-2.649.071-5.52.591-8.263.549-2.9.637-6.286-1.391-8.331-1.369-1.38-3.376-1.8-5.269-2.132a255.725,255.725,0,0,0-28.863-3.427,8.166,8.166,0,0,0-3.847.393c-2.355,1.047-3.3,3.921-3.984,6.469a51.3,51.3,0,0,1,.777-13.376A24.5,24.5,0,0,1,482.754,267.323Z" transform="translate(-346.961 -205.243)" fill="#2f2e41"/>
    <path id="Pfad_760" data-name="Pfad 760" d="M514.5,509.868H487.491a3.537,3.537,0,1,1,0-7.073H514.5a3.537,3.537,0,0,1,0,7.073Z" transform="translate(-349.008 -291.713)" fill="#00a2d7"/>
    <path id="Pfad_761" data-name="Pfad 761" d="M350.963,216.6H276.677a2.584,2.584,0,1,1,0-5.167h74.286a2.584,2.584,0,1,1,0,5.167Z" transform="translate(-274.094 -187.584)" fill="#00a2d7"/>
    <path id="Pfad_762" data-name="Pfad 762" d="M393.853,242.264H276.677a2.584,2.584,0,1,1,0-5.167H393.853a2.584,2.584,0,1,1,0,5.167Z" transform="translate(-274.094 -196.745)" fill="#00a2d7"/>
    <path id="Pfad_763" data-name="Pfad 763" d="M371.336,266.441H276.678a2.584,2.584,0,0,1,0-5.167h94.658a2.584,2.584,0,1,1,0,5.167Z" transform="translate(-274.094 -205.376)" fill="#cacaca"/>
    <path id="Pfad_764" data-name="Pfad 764" d="M330.055,290.53H276.678a2.584,2.584,0,0,1,0-5.167h53.377a2.584,2.584,0,1,1,0,5.167Z" transform="translate(-274.094 -214.016)" fill="#cacaca"/>
    <path id="Pfad_765" data-name="Pfad 765" d="M359.541,314.616H276.677a2.584,2.584,0,0,1,0-5.167h82.864a2.584,2.584,0,0,1,0,5.167Z" transform="translate(-274.094 -222.623)" fill="#cacaca"/>
    <path id="Pfad_766" data-name="Pfad 766" d="M490.605,521.97h-6.658l-3.168-25.681h9.827Z" transform="translate(-171.625 -177.359)" fill="#9f616a"/>
    <path id="Pfad_767" data-name="Pfad 767" d="M760.116,717.274H734.7v-.322a9.894,9.894,0,0,1,9.893-9.894h0l4.643-3.523,8.663,3.523h2.219Z" transform="translate(-438.516 -363.449)" fill="#2f2e41"/>
    <path id="Pfad_768" data-name="Pfad 768" d="M761.21,493.951l-2.937-35.8-2.307-13.438,12.916-2.852,4.286,18.4-3.734,34.69a5.974,5.974,0,1,1-8.224-.994Z" transform="translate(-446.109 -269.956)" fill="#9f616a"/>
    <path id="Pfad_769" data-name="Pfad 769" d="M435.605,521.97h-6.658l-3.168-25.681h9.827Z" transform="translate(-151.991 -177.359)" fill="#9f616a"/>
    <path id="Pfad_770" data-name="Pfad 770" d="M695.614,535.035l-2.952,5.106s-3.243.886-2.183,11.458,1.106,73.209,6.236,80.916l.928,6.619,9.688.926.244-5.873,11.552-81.59s6.8,80.1,12.432,82.056l2.033,6.673,8.879,0-.524-7.864.572-99.257Z" transform="translate(-422.656 -303.004)" fill="#2f2e41"/>
    <path id="Pfad_771" data-name="Pfad 771" d="M693.424,488.2l-.2-.053c6.092-22.787,4.335-52.293.033-83.978v-.131L708.8,389.8h13.5l13.387,8.639c8.654,4.327,10.621,13.49,10.64,13.583l.013.065-5.3,18.509,3.995,53.528,0,.062-.023.058c-1.293,3.278-4.757,2.811-8.769,2.27s-18.761,4.4-23.286,4.4C704.124,490.906,694.055,488.363,693.424,488.2Z" transform="translate(-423.71 -251.363)" fill="#e4e4e4"/>
    <path id="Pfad_772" data-name="Pfad 772" d="M754.035,413.048l5.8-2.524,7.643,9.371,6.2,30.028-21.22-3.215Z" transform="translate(-444.855 -258.75)" fill="#e4e4e4"/>
    <path id="Pfad_773" data-name="Pfad 773" d="M611.964,481.529,638.484,457.3l9.217-10.048,10.16,8.469-11.928,14.649-29.721,18.276a5.974,5.974,0,1,1-4.247-7.112Z" transform="translate(-392.01 -271.876)" fill="#9f616a"/>
    <path id="Pfad_774" data-name="Pfad 774" d="M656.5,444.985l7.345-9.538c.061-.137,6.155-13.754,11.437-19.671,5.418-6.07,9.684-2.966,9.727-2.932l.106.08.295,22.414-20.338,24.3Z" transform="translate(-410.601 -259.287)" fill="#e4e4e4"/>
    <circle id="Ellipse_66" data-name="Ellipse 66" cx="12.379" cy="12.379" r="12.379" transform="translate(276.304 133.309) rotate(-80.783)" fill="#9f616a"/>
    <path id="Pfad_775" data-name="Pfad 775" d="M707.217,353.725a36.008,36.008,0,0,0-.649-6.277c-.55-1.926-1.651-3.576-1.1-3.576s.825-1.375.825-1.375.55-.275.825,0,.55-1.926.55-1.926.275-.825.55-.275.275.275.55-.55,1.651-1.375,1.651-1.375,5.227.275,6.052-.825,10.178-.275,12.1,1.1,10.453,6.327,9.078,10.453-5.335,13.627-6.327,14.579c-1.569,1.506-2.655,2.049-10.079,3.527-1.453.289-8.869-4.454-8.869-5.279s.894-3.442-.543-3.8c-2.172-.543-2.417,2.2-2.967,1.378S707.217,353.725,707.217,353.725Z" transform="translate(-428.028 -232.484)" fill="#2f2e41"/>
    <path id="Pfad_776" data-name="Pfad 776" d="M705.116,717.274H679.7v-.322a9.894,9.894,0,0,1,9.893-9.894h0l4.643-3.523,8.663,3.523h2.219Z" transform="translate(-418.882 -363.449)" fill="#2f2e41"/>
    <path id="Pfad_777" data-name="Pfad 777" d="M693.226,724.8H277a.766.766,0,0,1,0-1.531H693.226a.766.766,0,0,1,0,1.531Z" transform="translate(-274.857 -370.496)" fill="#cacaca"/>
  </g>
</svg>
