<svg id="undraw_team_up_re_84ok" xmlns="http://www.w3.org/2000/svg" width="543.78" height="550.752" viewBox="0 0 543.78 550.752">
  <path id="Pfad_613" data-name="Pfad 613" d="M117.821,88.744l-4.146,21.765,20.669,5.827L131.776,93.1Z" transform="translate(4.14 3.232)" fill="#a0616a"/>
  <path id="Pfad_614" data-name="Pfad 614" d="M0,523.488a1.23,1.23,0,0,0,1.233,1.233H542.547a1.233,1.233,0,0,0,0-2.467H1.233A1.23,1.23,0,0,0,0,523.488Z" transform="translate(0 19.022)" fill="#3f3d56"/>
  <g id="Gruppe_220" data-name="Gruppe 220" transform="translate(111.041 245.952)">
    <path id="Pfad_615" data-name="Pfad 615" d="M365.067,238.309H151.907a43.768,43.768,0,0,0-43.768,43.768v206.7a43.768,43.768,0,0,0,43.768,43.768h213.16a43.768,43.768,0,0,0,43.768-43.768v-206.7a43.768,43.768,0,0,0-43.768-43.768h0Z" transform="translate(-107.103 -237.272)" fill="#fff"/>
    <path id="Pfad_616" data-name="Pfad 616" d="M365.1,533.614H151.944a44.855,44.855,0,0,1-44.8-44.8v-206.7a44.856,44.856,0,0,1,44.8-44.8H365.1a44.856,44.856,0,0,1,44.8,44.8v206.7a44.855,44.855,0,0,1-44.8,44.8ZM151.944,239.382a42.78,42.78,0,0,0-42.732,42.732v206.7a42.78,42.78,0,0,0,42.732,42.731H365.1a42.78,42.78,0,0,0,42.732-42.731v-206.7A42.78,42.78,0,0,0,365.1,239.382Z" transform="translate(-107.139 -237.309)" fill="#3f3d56"/>
    <path id="Pfad_617" data-name="Pfad 617" d="M374.179,325.233H288.5a6.591,6.591,0,0,1,0-13.181h85.679a6.591,6.591,0,0,1,0,13.181h0Z" transform="translate(-100.773 -234.586)" fill="#00a2d7"/>
    <path id="Pfad_618" data-name="Pfad 618" d="M296.443,375.045H213.159a3.808,3.808,0,1,1,0-7.615h83.284a3.808,3.808,0,0,1,0,7.615Z" transform="translate(-103.416 -232.569)" fill="#00a2d7"/>
    <rect id="Rechteck_171" data-name="Rechteck 171" width="48.192" height="6.178" rx="0.31" transform="translate(27.443 15.192)" fill="#00a2d7"/>
    <circle id="Ellipse_23" data-name="Ellipse 23" cx="4.943" cy="4.943" r="4.943" transform="translate(230.53 11.485)" fill="#3f3d56"/>
    <circle id="Ellipse_24" data-name="Ellipse 24" cx="4.943" cy="4.943" r="4.943" transform="translate(244.122 11.485)" fill="#3f3d56"/>
    <circle id="Ellipse_25" data-name="Ellipse 25" cx="4.943" cy="4.943" r="4.943" transform="translate(257.715 11.485)" fill="#3f3d56"/>
    <path id="Pfad_619" data-name="Pfad 619" d="M149.868,394.488a1.23,1.23,0,0,0,1.233,1.233H362.832a1.233,1.233,0,1,0,0-2.467H151.1a1.23,1.23,0,0,0-1.233,1.233Z" transform="translate(-105.583 -231.628)" fill="#3f3d56"/>
  </g>
  <g id="Gruppe_224" data-name="Gruppe 224" transform="translate(100.357 55.268)">
    <path id="uuid-d0b76542-8f08-4363-846d-0cc3b89caf22-263" d="M213.016,101.034c4.508-3.725,10.083-4.418,12.453-1.549s.637,8.213-3.873,11.938a14.634,14.634,0,0,1-6.175,3.1l-19.3,15.54-7.1-9.211L208.8,106.514a14.635,14.635,0,0,1,4.214-5.48h0Z" transform="translate(-93.472 -51.709)" fill="#a0616a"/>
    <path id="Pfad_620" data-name="Pfad 620" d="M104.553,135.694c-.01-.687,0-6.682,4.435-10.471,5.1-4.352,12.292-2.591,14.815-1.973,5.828,1.427,6.306,3.928,11.78,6.5,10.24,4.806-2.59,2.346,3.5.805,2.109-.533,32.453-2.638,40.006-7.287,14.69-9.041,24.7-14.524,24.7-14.524l6.543,13.086a116.63,116.63,0,0,1-22.778,22.9c-13.659,10-20.489,15-30.868,16.927-.894.166-22.876,3.92-40.581-9.308-4.038-3.017-11.438-8.545-11.553-16.655h0Z" transform="translate(-96.549 -51.307)" fill="#e6e6e6"/>
    <circle id="Ellipse_26" data-name="Ellipse 26" cx="22.794" cy="22.794" r="22.794" transform="translate(5.507 5.518)" fill="#a0616a"/>
    <g id="Gruppe_221" data-name="Gruppe 221" transform="translate(43.27 106.017)">
      <path id="Pfad_621" data-name="Pfad 621" d="M297.626,229.242l-23.475-24.029-12.117,12.64,17.489,23.04,17.348,1.984Z" transform="translate(-134.082 -153.81)" fill="#a0616a"/>
      <path id="Pfad_622" data-name="Pfad 622" d="M168.083,185.989c1.373.114,5.736.988,9.907-1.306a13.549,13.549,0,0,0,4.8-4.635c6.116-9.186,29.592-23.511,50.661-24.392,4.771-.2,7.912.353,10.766,1.841,4.048,2.11,5.664,5.132,10.8,12.212,2.81,3.873,5.918,7.521,8.762,11.369,16.647,22.528,22.958,24.3,22.313,31.519-.716,8.013-9.358,15.616-15.1,14.738-2.352-.359-3.263-2-6.406-5.306-9.215-9.709-13.027-7.915-19.588-15.352-7.66-8.682-6.657-15.881-10.653-16.159-3.706-.258-5.281,5.883-13.193,14.042-3.62,3.733-6.2,5.446-14.052,10.894-30.585,21.219-31.074,22.71-37.246,24.4-2.7.74-21.868,6-28.7-2.367-10.685-13.087,14.557-52.528,26.929-51.5h0Z" transform="translate(-138.579 -155.617)" fill="#2f2e41"/>
      <path id="Pfad_623" data-name="Pfad 623" d="M290.235,233.992c1.726-.775,3.745-1.682,4.395-3.766a5.011,5.011,0,0,0-.722-4.351c-1.048-1.387-2.6-1.569-2.537-1.815.1-.374,3.764-.228,7.791,1.2a31.17,31.17,0,0,1,8.582,4.945c3.509,2.739,3.036,3.288,5.237,4.868,6.754,4.848,13.088,1.027,16.743,5.574a7.2,7.2,0,0,1,1.418,6.26c-1.192,4.045-6.988,5.438-10.156,6.156-7.63,1.731-13.4.318-19.435-.7-20.507-3.456-32.03-.308-33.572-5.059-.292-.9.182-.823,1.764-7.421,1.561-6.513,1.509-8.3,2.839-8.823,2-.785,3.344,2.786,8.384,4.008a14.282,14.282,0,0,0,9.27-1.074Z" transform="translate(-133.869 -153.13)" fill="#2f2e41"/>
    </g>
    <g id="Gruppe_222" data-name="Gruppe 222" transform="translate(28.231 145.662)">
      <path id="Pfad_624" data-name="Pfad 624" d="M256.918,305.405l-5.931-33.065-17.125,3.654L235.4,304.88l13.24,11.383Z" transform="translate(-120.07 -191.011)" fill="#a0616a"/>
      <path id="Pfad_625" data-name="Pfad 625" d="M175.309,195.71c1.072.865,4.192,4.039,8.931,4.482a13.55,13.55,0,0,0,6.573-1.14c10.219-4.167,37.688-2.837,55.617,8.265,4.06,2.514,6.348,4.735,7.875,7.569,2.164,4.019,1.8,7.427,2.079,16.169.15,4.782.674,9.547.866,14.328,1.124,27.989,5.353,33,.764,38.61-5.092,6.229-16.512,7.667-20.772,3.715-1.745-1.618-1.58-3.483-2.321-7.988-2.173-13.208-6.335-13.865-7.588-23.7-1.463-11.485,3.409-16.879.259-19.353-2.922-2.294-7.673,1.9-18.8,4.211C203.7,241.93,200.6,241.9,191.045,242c-37.223.382-38.464,1.342-44.522-.724-2.65-.9-21.461-7.319-22.415-18.073-1.493-16.829,41.542-35.289,51.2-27.492h0Z" transform="translate(-124.069 -193.869)" fill="#2f2e41"/>
      <path id="Pfad_626" data-name="Pfad 626" d="M248.35,305.124c1.864.328,4.043.712,5.751-.649a5.011,5.011,0,0,0,1.846-4.006c-.089-1.736-1.27-2.758-1.08-2.926.289-.255,3.242,1.925,5.775,5.365a31.169,31.169,0,0,1,4.324,8.911c1.365,4.237.666,4.426,1.6,6.968,2.866,7.8,10.253,8.2,10.724,14.014a7.2,7.2,0,0,1-2.342,5.977c-3.258,2.678-8.836.575-11.861-.609-7.285-2.852-11.27-7.264-15.689-11.491-15.028-14.375-26.33-18.241-24.938-23.038.263-.908.613-.578,5.626-5.15,4.948-4.513,5.91-6.021,7.3-5.706,2.1.474,1.2,4.183,4.687,8.024a14.282,14.282,0,0,0,8.274,4.317h0Z" transform="translate(-120.49 -190.267)" fill="#2f2e41"/>
    </g>
    <path id="Pfad_627" data-name="Pfad 627" d="M128.162,86c.887-3.174-.227-4.331.909-5.756,0,0,.457-.573,4.544-2.121h0c-1.206-7-.3-8.179-.3-8.179,1.041-1.363,3.125-1.693,4.544-1.515,3,.377,3.533,3.09,5.453,3.029,2.653-.084,5.835-5.394,4.847-10-.806-3.754-4.279-6.543-5.15-6.059s-3.971-1.636-5.15-1.212c-.8.289-4.594-.1-5.453.3-.938.435-3.625,3.145-3.882,2.8-1.785-2.373-1.747-3.2-2.783-3.713-1.835-.906-3.83.769-7.271,2.424-7.078,3.4-9.151,1.374-12.421,4.241-1.652,1.448-2.537,4.217-4.241,9.694-2.383,7.66-3.574,11.49-2.424,15.147,1.174,3.729,2.9,2.918,5.453,8.179,2.84,5.857,1.861,9.262,4.544,10.6,2.074,1.037,5.406.377,6.665-1.515,2.154-3.239-3.414-7.62-1.515-12.723,1.166-3.133,4.762-5.509,6.968-4.847,2.494.748,2.677,5.219,4.241,5.15,1.339-.059,2.269-3.385,2.424-3.938h0Z" transform="translate(-96.753 -53.326)" fill="#2f2e41"/>
    <path id="Pfad_628" data-name="Pfad 628" d="M110.953,105.964c4.664-5.23,23.664.183,25.447,8.482.733,3.414-1.974,4.855-1.212,8.785,1.115,5.749,7.43,5.357,12.118,11.209,6.655,8.308-.2,16.429,7.271,30.294,1.6,2.963,2.942,5.46,5.756,7.876,6.457,5.546,12.465,3.644,15.753,8.785,2.458,3.845,1.448,8.584,1.212,9.694-.97,4.552-3.6,5.661-5.453,9.391-3.083,6.206.408,10.762.606,18.176.248,9.277-4.682,22.136-14.541,26.356-11.076,4.74-24.435-3.111-30.9-10.906-3.857-4.651-4.977-8.942-6.665-14.238-7.542-23.669-11.8-21.528-17.57-40.291-6.593-21.449-7.89-46.577,0-54.529a22.709,22.709,0,0,0,5.756-7.876c2.466-5.9.336-8.868,2.424-11.209h0Z" transform="translate(-96.812 -51.483)" fill="#e6e6e6"/>
    <g id="Gruppe_223" data-name="Gruppe 223" transform="translate(0 74.093)">
      <path id="uuid-35da8825-ceb1-46f8-a8e3-884fcc945dd4-264" d="M177.979,224.186c3.616,4.595,4.177,10.185,1.252,12.486s-8.226.441-11.843-4.156a14.634,14.634,0,0,1-2.956-6.247l-15.077-19.662,7.79-5.942L172.6,219.842a14.635,14.635,0,0,1,5.379,4.344h0Z" transform="translate(-94.917 -122.052)" fill="#a0616a"/>
      <path id="Pfad_629" data-name="Pfad 629" d="M124.676,125.134c.671-.15,6.541-1.367,11.156,2.2,5.3,4.1,5.044,11.5,4.954,14.1-.208,6-2.558,6.975-3.956,12.858-2.616,11.006,2.366,21.234,5.118,26.884a58.687,58.687,0,0,0,10.105,14.386,127.59,127.59,0,0,0,22.42,19.132l-11.357,10.1s-18.091-5.514-30.349-16.561c-12.574-11.332-31.911-51.426-35.919-61.193-.345-.841,4.545,12.833,13.881-7.2,2.13-4.569,6.032-12.941,13.947-14.708h0Z" transform="translate(-96.83 -124.815)" fill="#e6e6e6"/>
    </g>
  </g>
  <g id="Gruppe_226" data-name="Gruppe 226" transform="translate(195.15 345.138)">
    <path id="uuid-ba1531a6-e7ab-4297-b996-1d676f43fe3f-265" d="M274.362,421.815c-7.219,1.106-12.5,5.728-11.794,10.322s7.128,7.42,14.349,6.312a18.277,18.277,0,0,0,8.026-3.177l30.527-5.074-2.037-12.067-30.458,4.31a18.278,18.278,0,0,0-8.612-.626h0Z" transform="translate(-185.588 -329.908)" fill="#ffb6b6"/>
    <path id="Pfad_630" data-name="Pfad 630" d="M405.156,385.438l-11.837,25.118-59.506,20.032-49.377,2.634-1.236-11.86,53.514-11.189,54.913-25.949Z" transform="translate(-184.835 -331.143)" fill="#e6e6e6"/>
    <path id="Pfad_631" data-name="Pfad 631" d="M295.833,477.789l-10.628,26.88-13.752-9.377,8.127-28.131Z" transform="translate(-185.262 -328.122)" fill="#ffb6b6"/>
    <path id="Pfad_632" data-name="Pfad 632" d="M253.141,467.765,225.01,494.646l11.251,11.877,28.757-22.5Z" transform="translate(-186.954 -328.1)" fill="#ffb6b6"/>
    <path id="Pfad_633" data-name="Pfad 633" d="M407.055,383.894l-.313-2.188-7.189-14.065L375.8,373.893l4.376,19.378Z" transform="translate(-181.462 -331.747)" fill="#ffb6b6"/>
    <path id="Pfad_634" data-name="Pfad 634" d="M400.634,475.744l.731,9.389s3.02,39.371-21.36,42.5S345,533.88,330.62,509.5l-22.5-40.008-13.145,15.64-17.486-13.765s12.5-48.76,22.5-50.635a22.82,22.82,0,0,1,3.731-.377,25.756,25.756,0,0,1,21.04,10.515l28.364,38,10.315-4.688,37.2,11.565h0Z" transform="translate(-185.043 -329.827)" fill="#2f2e41"/>
    <path id="Pfad_635" data-name="Pfad 635" d="M267.1,502.518l5.626-10.627,16.253,11.252s3.751,13.753-1.875,15.628-21.254-.625-21.254-.625-28.756,6.251-29.381.625S249.6,511.9,249.6,511.9l17.5-9.377h0Z" transform="translate(-186.537 -327.221)" fill="#2f2e41"/>
    <path id="Pfad_636" data-name="Pfad 636" d="M327.968,497.39l-43.446-27.375L262.33,489.888l-15-17.5s27.506-40.633,35.632-42.509,21.254-3.126,21.254-3.126l40.008,36.883L327.968,497.39Z" transform="translate(-186.141 -329.594)" fill="#2f2e41"/>
    <path id="Pfad_637" data-name="Pfad 637" d="M225.721,491.288,240.1,506.916l-1.9,1.622s-3.73,16.246-12.482,10.75-9.377-6.746-9.377-6.746-25.005,5.626-27.506-4.376,4.376-8.127,4.376-8.127l6.244,3.751,26.263-12.5h0Z" transform="translate(-188.292 -327.243)" fill="#2f2e41"/>
    <circle id="Ellipse_27" data-name="Ellipse 27" cx="20.004" cy="20.004" r="20.004" transform="translate(181.835 9.013)" fill="#ffb6b6"/>
    <path id="Pfad_638" data-name="Pfad 638" d="M379.364,388.758l28.756-8.752s11.252,26.255,9.377,38.133S398.536,486.6,398.536,486.6l-37.926-20.954s-.625-12.5-2.5-18.129-7.814-22.817,5.314-37.2,15.941-21.567,15.941-21.567h0Z" transform="translate(-182.214 -331.297)" fill="#e6e6e6"/>
    <g id="Gruppe_225" data-name="Gruppe 225" transform="translate(129.666 70.073)">
      <path id="uuid-375aaccb-22f9-42b6-a352-baabb12db8d2-266" d="M317.6,516.108c-4.68,5.607-5.58,12.566-2.012,15.544s10.254.846,14.935-4.763a18.276,18.276,0,0,0,3.915-7.693l19.529-24.006-9.513-7.7-19.983,23.387a18.278,18.278,0,0,0-6.871,5.23h0Z" transform="translate(-313.4 -397.455)" fill="#ffb6b6"/>
      <path id="Pfad_639" data-name="Pfad 639" d="M402.306,400.619l6.8,26.922-33.266,53.25-33.959,34.13-11.008-9.132,34.25-42.615,25.96-54.907Z" transform="translate(-312.764 -400.619)" fill="#e6e6e6"/>
    </g>
    <path id="Pfad_640" data-name="Pfad 640" d="M365.367,358.588c5.13-.012,5.422.022,6.251,0,6.363-.168,8.027-2.671,11.252-2.5,5.756.3-1.841,29.166-5,42.509-3.1,13.086,7.374,24.812,8.127,25.63,10.63,11.561,29.3,13.675,32.507,8.752,2.593-3.985-6.6-10.044-4.376-18.754,2.172-8.514,12.2-7.607,15-15.628,2.936-8.4-6.93-12.636-13.128-33.132-3.56-11.771-2.93-13.964-6.251-21.254-8.878-19.487-52.395-11.19-47.51,6.876.945,3.495-1.57,7.513,3.126,7.5h0Z" transform="translate(-181.97 -333.008)" fill="#2f2e41"/>
  </g>
  <g id="Gruppe_227" data-name="Gruppe 227" transform="translate(221.403)">
    <path id="Pfad_641" data-name="Pfad 641" d="M434.643,133.244H224.4a10.8,10.8,0,0,1-10.782-10.782V10.782A10.8,10.8,0,0,1,224.4,0h210.24a10.8,10.8,0,0,1,10.782,10.782V122.461a10.8,10.8,0,0,1-10.782,10.782Z" transform="translate(-213.622)" fill="#fff"/>
    <path id="Pfad_642" data-name="Pfad 642" d="M434.643,133.244H224.4a10.8,10.8,0,0,1-10.782-10.782V10.782A10.8,10.8,0,0,1,224.4,0h210.24a10.8,10.8,0,0,1,10.782,10.782V122.461a10.8,10.8,0,0,1-10.782,10.782ZM224.4,1.8a8.992,8.992,0,0,0-8.982,8.982V122.461a8.992,8.992,0,0,0,8.982,8.982h210.24a8.992,8.992,0,0,0,8.982-8.982V10.782A8.992,8.992,0,0,0,434.645,1.8H224.4Z" transform="translate(-213.622)" fill="#3f3d56"/>
    <circle id="Ellipse_28" data-name="Ellipse 28" cx="2.701" cy="2.701" r="2.701" transform="translate(202.094 8.103)" fill="#3f3d56"/>
    <circle id="Ellipse_29" data-name="Ellipse 29" cx="2.701" cy="2.701" r="2.701" transform="translate(209.296 8.103)" fill="#3f3d56"/>
    <circle id="Ellipse_30" data-name="Ellipse 30" cx="2.701" cy="2.701" r="2.701" transform="translate(216.499 8.103)" fill="#3f3d56"/>
    <path id="Pfad_643" data-name="Pfad 643" d="M228.436,52.554a1.352,1.352,0,0,0-1.35,1.35,1.363,1.363,0,0,0,1.35,1.35H430.531a1.352,1.352,0,0,0,1.35-1.35,1.363,1.363,0,0,0-1.35-1.35Z" transform="translate(-213.132 1.914)" fill="#e6e6e6"/>
    <path id="Pfad_644" data-name="Pfad 644" d="M405.339,52.119v3.6H228.452a1.814,1.814,0,0,1-1.8-1.8,1.806,1.806,0,0,1,1.8-1.8H405.339Z" transform="translate(-213.148 1.898)" fill="#00a2d7"/>
    <path id="Pfad_645" data-name="Pfad 645" d="M421.969,45.858H403.963a3.6,3.6,0,0,1,0-7.2h18.006a3.6,3.6,0,0,1,0,7.2Z" transform="translate(-206.821 1.408)" fill="#e6e6e6"/>
    <path id="Pfad_646" data-name="Pfad 646" d="M310.374,27.616H229.819a3.6,3.6,0,1,1,0-7.2h80.555a3.6,3.6,0,0,1,0,7.2Z" transform="translate(-213.164 0.744)" fill="#e6e6e6"/>
    <path id="Pfad_647" data-name="Pfad 647" d="M228.436,91.643a1.352,1.352,0,0,0-1.35,1.35,1.363,1.363,0,0,0,1.35,1.35H430.531a1.352,1.352,0,0,0,1.35-1.35,1.363,1.363,0,0,0-1.35-1.35Z" transform="translate(-213.132 3.338)" fill="#e6e6e6"/>
    <path id="Pfad_648" data-name="Pfad 648" d="M336.016,91.209v3.6H228.453a1.814,1.814,0,0,1-1.8-1.8,1.806,1.806,0,0,1,1.8-1.8Z" transform="translate(-213.148 3.322)" fill="#00a2d7"/>
    <path id="Pfad_649" data-name="Pfad 649" d="M421.969,84.947H403.963a3.6,3.6,0,0,1,0-7.2h18.006a3.6,3.6,0,0,1,0,7.2Z" transform="translate(-206.821 2.832)" fill="#e6e6e6"/>
  </g>
</svg>
