<?xml version="1.0" standalone="no"?>
<!DOCTYPE svg PUBLIC "-//W3C//DTD SVG 20010904//EN"
 "http://www.w3.org/TR/2001/REC-SVG-20010904/DTD/svg10.dtd">
<svg version="1.0" xmlns="http://www.w3.org/2000/svg"
 width="434.000000pt" height="434.000000pt" viewBox="0 0 434.000000 434.000000"
 preserveAspectRatio="xMidYMid meet">
<metadata>
Created by potrace 1.14, written by Peter Selinger 2001-2017
</metadata>
<g transform="translate(0.000000,434.000000) scale(0.100000,-0.100000)"
fill="#000000" stroke="none">
<path d="M1975 4239 c-94 -55 -177 -103 -185 -108 -25 -16 -689 -405 -708
-416 -10 -5 -194 -113 -410 -240 l-392 -230 6 -930 c3 -511 7 -999 8 -1084 l1
-153 135 -77 c160 -92 510 -291 560 -318 19 -11 168 -96 330 -188 162 -92 315
-179 340 -193 25 -14 150 -86 279 -159 129 -74 240 -132 245 -130 9 4 466 270
637 371 20 11 107 63 195 114 87 51 166 97 174 103 8 5 67 39 131 76 63 38
257 151 430 252 l314 184 -1 404 c-1 222 -3 405 -5 406 -2 2 -236 -133 -519
-300 -283 -167 -522 -307 -530 -311 -8 -4 -71 -40 -140 -81 -69 -41 -254 -150
-411 -243 l-286 -168 -204 116 c-112 64 -224 128 -249 142 -25 14 -82 47 -128
73 -45 27 -85 49 -88 49 -3 0 -18 8 -32 19 -15 10 -52 32 -82 48 -30 16 -71
39 -90 50 -19 11 -92 53 -163 92 -70 40 -131 80 -135 89 -4 9 -9 316 -10 682
l-3 665 316 185 c174 102 338 197 363 212 26 15 79 46 117 68 39 22 77 45 85
50 76 49 277 163 285 163 5 0 159 -86 340 -190 182 -104 363 -207 402 -229 40
-21 73 -41 73 -44 0 -3 -15 -15 -33 -26 -26 -17 -928 -550 -1177 -696 l-65
-38 2 -162 c1 -90 2 -181 3 -203 0 -31 5 -42 23 -51 34 -17 161 -86 172 -94 6
-4 37 -22 70 -40 33 -18 67 -38 76 -43 13 -8 60 15 219 109 111 65 214 126
229 134 126 73 181 106 211 125 33 21 443 263 520 307 54 31 322 189 350 207
14 8 37 22 52 31 15 8 120 70 235 138 l208 123 -1 185 -1 185 -29 18 c-16 10
-54 31 -84 48 -30 17 -165 93 -300 170 -284 162 -589 335 -675 383 -33 18 -93
53 -133 77 -41 24 -75 43 -78 43 -2 0 -25 13 -51 28 -149 89 -532 306 -553
314 -10 3 -84 -34 -185 -93z"/>
</g>
</svg>
