<svg xmlns="http://www.w3.org/2000/svg" xmlns:xlink="http://www.w3.org/1999/xlink" width="961.39" height="296.542" viewBox="0 0 961.39 296.542"><defs><linearGradient id="a" x1="1.018" y1="0.231" x2="-0.111" y2="0.814" gradientUnits="objectBoundingBox"><stop offset="0.031" stop-color="#009be5"/><stop offset="0.896" stop-color="#00bba6"/></linearGradient></defs><g transform="translate(-399.565 -389.292)"><path d="M138.875-64.35q0,2.75-.275,5.775t-.825,6.05h-97.9q3.3,14.575,14.162,22.138a39.928,39.928,0,0,0,23.237,7.563,44.717,44.717,0,0,0,17.6-3.163,76.458,76.458,0,0,0,13.75-7.563L123.2-12.925Q104.225,1.925,77.275,1.925A70.49,70.49,0,0,1,43.45-6.325,64.443,64.443,0,0,1,18.838-29.288Q9.625-44,9.625-63.525q0-20.075,9.075-34.238a61.949,61.949,0,0,1,23.788-21.863,68.617,68.617,0,0,1,32.313-7.7q20.35,0,34.788,8.662A57.172,57.172,0,0,1,131.45-95.7,67,67,0,0,1,138.875-64.35Zm-99-11.825h69.85Q106.15-89.1,97.075-95.838t-22-6.738q-13.75,0-22.962,7.012T39.875-76.175ZM240.625-125.4H271.7L215.875,0H200.75l-56.1-125.4h32.175l31.9,78.1Zm96.25-1.925a73.782,73.782,0,0,1,29.15,5.5,46.539,46.539,0,0,1,20.487,16.363q7.562,10.863,7.563,27.087v47.85Q386.1-14.3,372.35-6.188T337.7,1.925a77.238,77.238,0,0,1-26.538-4.538,47.806,47.806,0,0,1-20.35-13.613q-7.838-9.075-7.837-22.55,0-16.5,12.925-26.95t37.675-10.45h31.9v-2.2q0-12.1-7.975-18.15t-20.625-6.05a63.031,63.031,0,0,0-19.8,3.162A93.961,93.961,0,0,0,299.75-91.85l-12.1-22.275a114.943,114.943,0,0,1,23.238-9.625A92.241,92.241,0,0,1,336.875-127.325Zm28.6,84.15v-9.35h-31.9q-11.275,0-16.225,3.3T312.4-39.05q0,8.525,7.425,12.375t18.15,3.85a48.306,48.306,0,0,0,13.2-1.788A21.42,21.42,0,0,0,361.488-30.8Q365.475-35.2,365.475-43.175Zm118.25-9.35h28.6V-44q0,22.275-12.237,34.1T466.675,1.925q-21.45,0-33.55-11.825T421.025-44V-152.9h28.6v39.325H502.7v24.75H449.625V-44q0,10.45,3.713,15.538t13.337,5.088q9.625,0,13.337-5.088T483.725-44ZM650.1-125.4,574.475,54.175h-31.35l29.7-67.65L521.675-125.4H553.3l34.65,78.1,31.35-78.1Z" transform="translate(710.855 587.925)" fill="#00a2d7"/><path d="M724.054,430.058l65.292-39.846-19.84-11.668L757.892,371.7l-23.1-13.579-50.649,30.756L657.633,404.96l.609,92.584,77.766,45.745,23.514-14.265L861,467.418v55.91L759.882,584.71l-23.514,14.265L611.823,525.7l-.968-148.271,26.508-16.083,97.069-58.915,23.084,13.579,3.62,2.133,54.556,32.092L861,376.893v25.451L751.87,469.05l-23.425,14.321-23.783-13.987L704.483,442Z" transform="translate(-211.29 86.858)" fill="url(#a)"/></g></svg>