<svg xmlns="http://www.w3.org/2000/svg" width="320" height="103.461" viewBox="0 0 320 103.461"><path d="M74.2-108.658q0,1.374-.137,2.885t-.412,3.023H24.739a17.614,17.614,0,0,0,7.076,11.061,19.949,19.949,0,0,0,11.61,3.778,22.342,22.342,0,0,0,8.793-1.58,38.2,38.2,0,0,0,6.87-3.778l7.282,10.3q-9.48,7.42-22.945,7.419a35.219,35.219,0,0,1-16.9-4.122,32.2,32.2,0,0,1-12.3-11.473,31.554,31.554,0,0,1-4.6-17.106q0-10.03,4.534-17.106a30.952,30.952,0,0,1,11.885-10.923,34.283,34.283,0,0,1,16.144-3.847q10.167,0,17.381,4.328a28.565,28.565,0,0,1,10.923,11.473A33.477,33.477,0,0,1,74.2-108.658Zm-49.463-5.908h34.9a17.588,17.588,0,0,0-6.32-9.824,17.921,17.921,0,0,0-10.992-3.366,18.392,18.392,0,0,0-11.473,3.5A16.716,16.716,0,0,0,24.739-114.566Zm100.3-24.594h15.526L112.674-76.507h-7.557L77.087-139.16H93.163L109.1-100.139Zm48.089-.962a36.864,36.864,0,0,1,14.564,2.748,23.252,23.252,0,0,1,10.236,8.175q3.778,5.427,3.778,13.534v23.907A27.957,27.957,0,0,1,190.853-79.6q-6.87,4.053-17.312,4.053a38.59,38.59,0,0,1-13.259-2.267,23.885,23.885,0,0,1-10.167-6.8A16.628,16.628,0,0,1,146.2-95.88a16.53,16.53,0,0,1,6.458-13.465q6.458-5.221,18.824-5.221h15.938v-1.1q0-6.046-3.985-9.068a16.587,16.587,0,0,0-10.3-3.023,31.492,31.492,0,0,0-9.893,1.58,46.945,46.945,0,0,0-8.656,3.778l-6.046-11.129a57.429,57.429,0,0,1,11.61-4.809A46.086,46.086,0,0,1,173.129-140.122Zm14.289,42.044v-4.672H171.48q-5.633,0-8.106,1.649a5.683,5.683,0,0,0-2.473,5.084,6.479,6.479,0,0,0,3.71,6.183,19.519,19.519,0,0,0,9.068,1.924,24.135,24.135,0,0,0,6.6-.893,10.7,10.7,0,0,0,5.152-3.091A8.882,8.882,0,0,0,187.418-98.078ZM246.5-102.75h14.289v4.259q0,11.129-6.114,17.037t-16.694,5.908q-10.717,0-16.763-5.908T215.172-98.49V-152.9h14.289v19.648H255.98v12.366H229.462v22.4q0,5.221,1.855,7.763t6.664,2.542q4.809,0,6.664-2.542T246.5-98.49Zm83.126-36.41L291.841-49.439H276.177l14.839-33.8L265.46-139.16h15.8l17.312,39.021,15.663-39.021Z" transform="translate(-9.625 152.9)" fill="#00a2d7"/></svg>