<svg id="easy" xmlns="http://www.w3.org/2000/svg" width="541" height="363.776" viewBox="0 0 541 363.776">
  <circle id="Ellipse_1" data-name="Ellipse 1" cx="38.849" cy="38.849" r="38.849" transform="translate(26.465 127.027)" fill="#ff6884"/>
  <path id="Pfad_358" data-name="Pfad 358" d="M87.089,362.671H12.281L29.187,85.332,40.22,19.968l2.1-11.028C44.813-4.117,63.6-2.374,63.746,10.929c.345,30.928-12.335,60.034-11.716,74.4,2.791,65.052,8.624,157.3,19.867,184.485,8.349,20.2,12.814,85.254,15.193,92.853Z" transform="translate(-4.941 0)" fill="#3f3d56"/>
  <path id="Pfad_359" data-name="Pfad 359" d="M808.617,368.459H739.455L732.187,90.971,718.252,25.584c-.16-13.341,18.643-15.5,21.382-2.457h0s13.729,29.1,15.4,67.844c2.791,65.087,27.152,157.379,38.394,184.584,8.349,20.213,12.814,85.3,15.193,92.9Z" transform="translate(-277.312 -5.788)" fill="#3f3d56"/>
  <path id="Pfad_360" data-name="Pfad 360" d="M172.295,296.118c15.647,1.258,52,20.321,52,20.321,28.248,28.282,70.438,29.959,98.616,31.079,41.9,1.665,73.611-11.375,96.823-20.918,0,0,54.263-12.5,54.986-12.551.865-.064,1.684,2.068,1.793,2.391,1.791,5.294-17.9,24.908-40.642,31.677a48.684,48.684,0,0,0-17.332,8.367,44.345,44.345,0,0,0-7.77,7.77c-6.1,7.681-38.532,36.939-75.307,38.251-31.451,1.122-56.592-18.534-84.869-40.642-11.215-8.768-9.87-9.416-23.907-20.321-31.833-24.731-47.75-37.1-54.986-41.239-1-.574-4.515-2.537-4.184-3.586C167.815,295.757,171.173,296.027,172.295,296.118Z" transform="translate(-62.086 -113.532)" fill="#00a2d7"/>
  <path id="Pfad_361" data-name="Pfad 361" d="M114.74,264.866a.6.6,0,0,1-.315-.09l-77.819-48.3a.6.6,0,1,1,.63-1.016l77.82,48.3a.6.6,0,0,1-.316,1.105Z" transform="translate(-14.614 -83.354)" fill="#3f3d56"/>
  <path id="Pfad_362" data-name="Pfad 362" d="M681.126,302.715a.6.6,0,0,1-.277-1.128l67.323-35.16a.6.6,0,0,1,.553,1.06L681.4,302.647a.6.6,0,0,1-.276.068Z" transform="translate(-262.135 -103.258)" fill="#3f3d56"/>
  <path id="Pfad_363" data-name="Pfad 363" d="M0,593.868a.709.709,0,0,0,.711.711h95.2a.711.711,0,0,0,0-1.422H.711A.709.709,0,0,0,0,593.868Z" transform="translate(0 -230.803)" fill="#3f3d56"/>
  <path id="Pfad_364" data-name="Pfad 364" d="M713,593.868a.709.709,0,0,0,.711.711H815.489a.711.711,0,0,0,0-1.422H713.711A.709.709,0,0,0,713,593.868Z" transform="translate(-275.2 -230.803)" fill="#3f3d56"/>
  <path id="Pfad_365" data-name="Pfad 365" d="M395,593.868a.709.709,0,0,0,.711.711H497.489a.711.711,0,1,0,0-1.422H395.711A.709.709,0,0,0,395,593.868Z" transform="translate(-152.46 -230.803)" fill="#3f3d56"/>
  <g id="Gruppe_48" data-name="Gruppe 48" transform="translate(168.502 176.48)">
    <path id="Pfad_366" data-name="Pfad 366" d="M277.335,314.566s-3.816,5.995-.677,9.525,22.11,17.593,22.11,17.593,11.952,7.328,10.781-2.764-18.209-20.894-18.209-20.894l-14.006-3.46Z" transform="translate(-275.419 -298.69)" fill="#e6e6e6"/>
    <path id="Pfad_367" data-name="Pfad 367" d="M324.6,288.014c-2.041-.2-3.946,2.243-4.255,5.451a8.064,8.064,0,0,0,.488,3.777l-.305,3.639-.063.006L316.211,317.6a12.847,12.847,0,0,0,2.32,11.182c1.488,1.864,3.241,3,4.836,1.321,2.647-2.789,2.563-16.418,2.284-24.211l.877-8.1a8.064,8.064,0,0,0,1.2-3.615c.31-3.207-1.094-5.966-3.135-6.163Z" transform="translate(-291.666 -288.003)" fill="#ffb6b6"/>
  </g>
  <g id="Gruppe_49" data-name="Gruppe 49" transform="translate(197.566 172.264)">
    <path id="Pfad_368" data-name="Pfad 368" d="M334.166,286.205l-.022-.252a.75.75,0,0,0-.246-.5.579.579,0,0,0-.492-.135L325,287.16a.64.64,0,0,0-.414.322.849.849,0,0,0-.073.574l.078.335.559,2.405,2.158,9.286a.634.634,0,0,0,.643.529.32.32,0,0,0,.078-.006l6.648-1.509a.481.481,0,0,0,.185-.077.755.755,0,0,0,.319-.7Z" transform="translate(-323.767 -283.151)" fill="#00a2d7"/>
    <path id="Pfad_369" data-name="Pfad 369" d="M333.517,283.355c-.12,0-.281.009-.474.019a.647.647,0,0,0,.009-.379l-.254-.9a.506.506,0,0,0-.467-.394c-1.269-.008-5.619.106-8.164,1.921a.6.6,0,0,0-.228.539l.085.988a.612.612,0,0,0,.118.316c-.217.1-.433.21-.646.323a.44.44,0,0,0-.216.4l0,.425a.393.393,0,0,0,.447.418l10.043-2.29a.443.443,0,0,0,.277-.58l-.177-.527A.378.378,0,0,0,333.517,283.355Z" transform="translate(-323.281 -281.7)" fill="#3f3d56"/>
  </g>
  <path id="Pfad_370" data-name="Pfad 370" d="M287.377,301.579l-2.58,8.384-10.963-2.579-.645-13.543Z" transform="translate(-106.216 -114.168)" fill="#ffb6b6"/>
  <path id="Pfad_371" data-name="Pfad 371" d="M265.831,313.262l14.188,1.29L285.7,320.1l7.858,6.7a22.158,22.158,0,0,1,3.224,14.833l7.739,6.449L285.178,367.92l-24.506-20.479s-8.384-25.151,5.159-34.179Z" transform="translate(-100.119 -121.162)" fill="#e6e6e6"/>
  <path id="Pfad_372" data-name="Pfad 372" d="M317.589,359.8l5.631-.645,9.14.645,30.028-17.882a8.1,8.1,0,0,1,11,2.648l24.169,38.45-7.739,5.159-23.861-24.506L336.2,388.177s-30.218,15.807-32.8-9.186L317.589,359.8Z" transform="translate(-117.208 -131.845)" fill="#2f2e41"/>
  <path id="Pfad_373" data-name="Pfad 373" d="M358.43,393.443l48.367-4.514,45.787,11.608,2.58-9.673-62.555-22.571-22.571,5.8Z" transform="translate(-138.432 -142.843)" fill="#2f2e41"/>
  <path id="Pfad_374" data-name="Pfad 374" d="M265.931,322.037s-4.438,5.55-1.7,9.4S284.325,351.3,284.325,351.3s11.1,8.57,11.016-1.59-15.858-22.73-15.858-22.73l-13.553-4.945Z" transform="translate(-102.259 -124.897)" fill="#e6e6e6"/>
  <g id="Gruppe_50" data-name="Gruppe 50" transform="translate(149.118 157.869)">
    <circle id="Ellipse_2" data-name="Ellipse 2" cx="12.244" cy="12.244" r="12.244" transform="translate(15.823 5.517)" fill="#ffb6b6"/>
    <path id="Pfad_375" data-name="Pfad 375" d="M283.029,272.918c-3.14-.008-3.318.013-3.826,0-3.895-.1-4.913-1.635-6.887-1.531-3.523.187,1.127,17.852,3.061,26.019,1.9,8.01-4.514,15.187-4.974,15.688-6.507,7.076-17.936,8.37-19.9,5.357-1.587-2.439,4.038-6.148,2.678-11.479-1.329-5.211-7.467-4.656-9.183-9.566-1.8-5.141,4.242-7.734,8.035-20.279,2.179-7.2,1.793-8.547,3.826-13.009,5.434-11.928,32.07-6.849,29.08,4.209-.578,2.139.961,4.6-1.913,4.592Z" transform="translate(-243.675 -257.262)" fill="#2f2e41"/>
  </g>
  <path id="Pfad_376" data-name="Pfad 376" d="M166.984,296.068c15.647,1.258,51.722,27.46,51.722,27.46,28.248,28.282,70.438,29.959,98.616,31.079,41.9,1.665,73.611-11.375,96.823-20.918,0,0,48.092,7.821,53.79-10.758.054-.177.473-1.739,1.2-1.793.865-.064,1.684,2.068,1.793,2.391,1.791,5.294-17.9,24.908-40.642,31.677a48.683,48.683,0,0,0-17.332,8.367,44.339,44.339,0,0,0-7.77,7.77c-6.1,7.681-38.532,36.939-75.306,38.251-31.451,1.122-56.592-18.534-84.869-40.642-11.215-8.768-9.87-9.416-23.907-20.321-31.833-24.731-47.75-37.1-54.986-41.239-1-.574-2.446-10.871-2.115-11.921C164.3,294.512,165.862,295.978,166.984,296.068Z" transform="translate(-60.82 -113.017)" fill="#00a2d7"/>
  <path id="Pfad_377" data-name="Pfad 377" d="M353.22,389.683c.909-1.838-.7-4.485-3.585-5.913a8.063,8.063,0,0,0-3.7-.885l-3.294-1.577.016-.061-14.116-9.906a12.847,12.847,0,0,0-11.278-1.8c-2.271.73-3.957,1.965-2.952,4.052,1.668,3.464,14.438,8.225,21.823,10.73l7.261,3.7a8.063,8.063,0,0,0,2.952,2.407c2.888,1.428,5.966,1.1,6.874-.742Z" transform="translate(-121.869 -143.256)" fill="#ffb6b6"/>
  <g id="Gruppe_56" data-name="Gruppe 56" transform="translate(242.899 120.835)">
    <path id="Pfad_378" data-name="Pfad 378" d="M499.32,238.218s-4.644-9.287-3.715-17.646l-15.455,8.011.6,15.207,18.575-5.572Z" transform="translate(-429.666 -201.737)" fill="#a0616a"/>
    <circle id="Ellipse_3" data-name="Ellipse 3" cx="13.942" cy="13.942" r="13.942" transform="translate(42.062 3.253)" fill="#a0616a"/>
    <g id="Gruppe_51" data-name="Gruppe 51" transform="translate(44.753 203.316)">
      <path id="Pfad_379" data-name="Pfad 379" d="M511.554,562.053h-8.507L499,529.237h12.556Z" transform="translate(-482.002 -529.237)" fill="#a0616a"/>
      <path id="Pfad_380" data-name="Pfad 380" d="M470.965,577.359h0a7.305,7.305,0,0,0-.4,2.4h0a2.887,2.887,0,0,0,2.887,2.887h26.346a1.97,1.97,0,0,0,1.97-1.97v-1.1s1.3-3.3-1.38-7.36c0,0-3.335,3.182-8.318-1.8l-1.47-2.662-10.638,7.78-5.9.726c-1.29.159-2.434-.025-3.1,1.093Z" transform="translate(-470.56 -544.736)" fill="#2f2e41"/>
    </g>
    <path id="Pfad_381" data-name="Pfad 381" d="M470.651,248.221l20.432-2.786,15.789,7.43.929,57.581s-38.839,4.644-44.959-1.393-1.477-54.331-1.477-54.331Z" transform="translate(-421.429 -211.74)" fill="#e6e6e6"/>
    <path id="Pfad_382" data-name="Pfad 382" d="M482.26,209.8h3.748s3.252-4,2.814-1.564,1.313,5.064,1.313,5.064l2.625-.875s5.25-22.074-10.5-23.287-19.25,11.037-19.25,11.037.875,6.125,2.625,4.375,11.375-2.625,11.375-2.625l5.25,7.875Z" transform="translate(-422.77 -189.057)" fill="#2f2e41"/>
    <g id="Gruppe_52" data-name="Gruppe 52" transform="translate(13.023 141.151)">
      <path id="Pfad_383" data-name="Pfad 383" d="M445.547,455.237l-7.78,3.44L420.792,430.3l11.484-5.078Z" transform="translate(-418.807 -425.226)" fill="#a0616a"/>
      <path id="Pfad_384" data-name="Pfad 384" d="M417.477,483.615h0a7.3,7.3,0,0,0,.6,2.363h0a2.887,2.887,0,0,0,3.809,1.473l24.095-10.657a1.97,1.97,0,0,0,1-2.6l-.444-1s-.142-3.542-4.239-6.173c0,0-1.763,4.259-8.336,1.717l-2.421-1.84-6.581,11.418-5.1,3.049c-1.116.667-2.236.962-2.39,2.252h0Z" transform="translate(-417.471 -441.991)" fill="#2f2e41"/>
    </g>
    <path id="Pfad_385" data-name="Pfad 385" d="M479.267,344.886l2.786,8.424v28.959l-9.1,26.235.742,61.168h-16.33l-1.843-62.393,1.455-30.816-11.145-4.644-29.273,1.807,13.69,33.653-15.065,10.048S392.654,365.979,396.025,361s42.842-13.75,42.842-13.75,40.4-1.441,40.4-2.369Z" transform="translate(-395.681 -251.751)" fill="#2f2e41"/>
    <g id="Gruppe_53" data-name="Gruppe 53" transform="translate(65.145 40.688)">
      <path id="Pfad_386" data-name="Pfad 386" d="M539.642,288.945l4.49,7.354s6.348,24.949,0,25.05-19.163-12.714-19.163-12.714l1.671-6.688,4.644,1.857-.929-14.86h9.287Z" transform="translate(-512.842 -269.933)" fill="#a0616a"/>
      <path id="Pfad_387" data-name="Pfad 387" d="M526.21,257.455s14.86-2.618,16.253,7.108,2.168,18.937,2.168,18.937l-16.1,1.334-2.322-27.379Z" transform="translate(-513.341 -257.135)" fill="#e6e6e6"/>
      <ellipse id="Ellipse_4" data-name="Ellipse 4" cx="4.193" cy="8.386" rx="4.193" ry="8.386" transform="matrix(0.58, -0.815, 0.815, 0.58, 0, 31.569)" fill="#a0616a"/>
    </g>
    <g id="Gruppe_54" data-name="Gruppe 54" transform="translate(42.195 51.693)">
      <path id="Pfad_388" data-name="Pfad 388" d="M482.811,282.39l-.034-.382a1.139,1.139,0,0,0-.374-.764.879.879,0,0,0-.747-.206l-12.769,2.8a.972.972,0,0,0-.628.49,1.288,1.288,0,0,0-.11.872l.119.509.849,3.653,3.277,14.1a.963.963,0,0,0,.976.8.486.486,0,0,0,.119-.01l10.095-2.292a.729.729,0,0,0,.28-.118,1.146,1.146,0,0,0,.484-1.058Z" transform="translate(-467.019 -277.751)" fill="#00a2d7"/>
      <path id="Pfad_389" data-name="Pfad 389" d="M481.825,278.061c-.182,0-.427.014-.719.029a.984.984,0,0,0,.013-.576l-.386-1.367a.769.769,0,0,0-.709-.6c-1.927-.012-8.533.161-12.4,2.917a.91.91,0,0,0-.346.818l.129,1.5a.929.929,0,0,0,.179.48c-.329.156-.657.319-.981.491a.669.669,0,0,0-.327.6l.007.646a.6.6,0,0,0,.679.635l15.251-3.478a.672.672,0,0,0,.42-.881l-.269-.8a.575.575,0,0,0-.544-.419Z" transform="translate(-466.28 -275.549)" fill="#3f3d56"/>
    </g>
    <g id="Gruppe_55" data-name="Gruppe 55" transform="translate(21.889 41.286)">
      <path id="Pfad_390" data-name="Pfad 390" d="M439.616,289.945l-4.49,7.354s-6.348,24.949,0,25.05,19.163-12.714,19.163-12.714l-1.671-6.688-4.644,1.857.929-14.86h-9.287Z" transform="translate(-432.305 -270.933)" fill="#a0616a"/>
      <path id="Pfad_391" data-name="Pfad 391" d="M455.447,258.455s-14.86-2.618-16.253,7.108-2.168,18.937-2.168,18.937l16.1,1.334Z" transform="translate(-434.204 -258.135)" fill="#e6e6e6"/>
      <ellipse id="Ellipse_5" data-name="Ellipse 5" cx="8.386" cy="4.193" rx="8.386" ry="4.193" transform="matrix(0.815, -0.58, 0.58, 0.815, 15.584, 34.47)" fill="#a0616a"/>
    </g>
  </g>
</svg>
