<svg id="explore" xmlns="http://www.w3.org/2000/svg" width="541" height="369.421" viewBox="0 0 541 369.421">
  <circle id="Ellipse_6" data-name="Ellipse 6" cx="29.599" cy="29.599" r="29.599" transform="translate(130.472)" fill="#ff6584"/>
  <path id="Pfad_392" data-name="Pfad 392" d="M459.252,142.619c-14.345-1.939-30.722,5.815-34.44,19.8a12.534,12.534,0,0,0-23.85,1.224l1.642,1.176a216.059,216.059,0,0,0,93.242-.422C485.868,153.915,473.6,144.558,459.252,142.619Z" transform="translate(-245.805 -135.73)" fill="#f0f0f0"/>
  <path id="Pfad_393" data-name="Pfad 393" d="M353.252,210.619c-14.345-1.939-30.722,5.815-34.44,19.8a12.534,12.534,0,0,0-23.85,1.224l1.642,1.176a216.059,216.059,0,0,0,93.242-.422C379.868,221.915,367.6,212.558,353.252,210.619Z" transform="translate(-201.256 -164.265)" fill="#f0f0f0"/>
  <path id="Pfad_394" data-name="Pfad 394" d="M491.318,332.73c-4.855-8.03-10.609-16.6-19.619-19.227-10.435-3.037-21.154,3-30.246,8.948a881.358,881.358,0,0,0-78.436,57.79l.027.312,58.53-4.036c14.1-.972,28.676-2.078,41.133-8.746,4.727-2.53,9.335-5.91,14.691-6.146,6.655-.293,12.458,4.355,17.018,9.211,26.974,28.724,34.78,72.649,65.042,97.886a960.394,960.394,0,0,0-68.141-135.992Z" transform="translate(-229.901 -207.389)" fill="#f2f2f2"/>
  <path id="Pfad_395" data-name="Pfad 395" d="M610.292,562.811c-2.983-3.767-4.2-4.649-7.144-8.45q-35.937-46.479-67.555-96.1-21.477-33.7-40.823-68.693-9.211-16.636-17.916-33.534-6.755-13.1-13.209-26.361c-1.23-2.525-2.426-5.061-3.616-7.6-2.8-5.978-5.554-11.985-8.508-17.881-3.366-6.721-7.464-13.766-13.645-18.282a18.616,18.616,0,0,0-9.7-3.732c-5.032-.325-9.675,1.753-14.039,4.022a451.935,451.935,0,0,0-88.867,61.282,462.651,462.651,0,0,0-72.2,80.144c-.638.911-2.147.041-1.5-.876q3.8-5.38,7.76-10.644A465.2,465.2,0,0,1,378.1,305.322q11.553-7.487,23.54-14.271c4.028-2.281,8.073-4.533,12.188-6.645,4.034-2.072,8.317-3.935,12.925-4,15.682-.244,23.8,17.516,29.379,29.465q2.629,5.641,5.322,11.248Q471.626,342.4,482.587,363.3q6.764,12.9,13.825,25.652,21.973,39.706,46.708,77.8c21.845,33.644,43.516,63.365,68.4,94.827C612.207,562.451,610.983,563.693,610.292,562.811Z" transform="translate(-182.876 -194.01)" fill="#e4e4e4"/>
  <path id="Pfad_396" data-name="Pfad 396" d="M274.167,360.09c-.911-1.016-1.816-2.031-2.734-3.047-7.231-8-14.991-15.9-24.921-20.487a36.156,36.156,0,0,0-15.148-3.511,43.229,43.229,0,0,0-15.728,3.43c-2.368.946-4.684,2.02-6.964,3.163-2.606,1.312-5.166,2.71-7.713,4.121q-7.174,3.97-14.161,8.288-13.9,8.592-26.935,18.5-6.756,5.136-13.233,10.609-6.024,5.084-11.8,10.441c-.824.76-2.055-.47-1.23-1.23,1.016-.946,2.043-1.886,3.07-2.815q4.353-3.935,8.845-7.719,8.192-6.912,16.808-13.291,13.4-9.924,27.718-18.5,7.156-4.283,14.509-8.206c1.48-.789,2.978-1.561,4.492-2.292a71.611,71.611,0,0,1,10.679-4.347,37.99,37.99,0,0,1,16.129-1.584,41.992,41.992,0,0,1,14.881,5.148c9.75,5.45,17.312,13.877,24.671,22.1C276.141,359.689,274.916,360.926,274.167,360.09Z" transform="translate(-133.323 -215.176)" fill="#e4e4e4"/>
  <path id="Pfad_397" data-name="Pfad 397" d="M719.463,509.787l23.364-8.545,11.6-4.243a118.63,118.63,0,0,1,11.453-3.944,18.067,18.067,0,0,1,10.366.132,23.889,23.889,0,0,1,8.085,5.012,65.626,65.626,0,0,1,6.631,7.082c2.526,3.035,5.014,6.1,7.513,9.159q15.474,18.924,30.745,38.011t30.338,38.337q15.1,19.3,30,38.755,1.825,2.384,3.646,4.77c.671.879,2.184.012,1.5-.879q-15.006-19.654-30.221-39.147-15.252-19.54-30.715-38.913T802.637,516.8q-3.9-4.785-7.821-9.559c-2.2-2.685-4.381-5.4-6.8-7.9-4.435-4.587-9.976-8.64-16.609-8.75-3.9-.065-7.674,1.173-11.3,2.484-3.906,1.413-7.8,2.853-11.7,4.279l-23.527,8.605L719,508.109c-1.044.382-.593,2.065.463,1.679Z" transform="translate(-379.339 -282.211)" fill="#e4e4e4"/>
  <path id="Pfad_398" data-name="Pfad 398" d="M295.588,354.847a37.72,37.72,0,0,0-37.989,2.717,541.843,541.843,0,0,1,61.644,14.388C310.835,367.023,304.257,359.3,295.588,354.847Z" transform="translate(-185.473 -223.401)" fill="#f2f2f2"/>
  <path id="Pfad_399" data-name="Pfad 399" d="M255.745,362.307l-2.286,1.858c.773-.65,1.577-1.26,2.4-1.837Z" transform="translate(-183.735 -228.165)" fill="#f2f2f2"/>
  <path id="Pfad_400" data-name="Pfad 400" d="M822.209,518.851c-2.3-2.8-4.786-5.731-8.227-6.868l-3.212.127A364.3,364.3,0,0,0,907.8,623.04Z" transform="translate(-418.097 -291.189)" fill="#f2f2f2"/>
  <path id="Pfad_401" data-name="Pfad 401" d="M418.153,694.638c1.31-10.53,7.835-20.9,17.878-24.331a48.889,48.889,0,0,0,0,33.565c1.543,4.174,3.694,8.656,2.243,12.863a10.928,10.928,0,0,1-5.582,5.872,32.456,32.456,0,0,1-7.917,2.434l-.533.441C419.947,715.779,416.843,705.167,418.153,694.638Z" transform="translate(-252.876 -357.626)" fill="#f0f0f0"/>
  <path id="Pfad_402" data-name="Pfad 402" d="M440.58,670.344a41.787,41.787,0,0,0-10.388,23.518,18,18,0,0,0,.2,5.634,10.322,10.322,0,0,0,2.567,4.787,21.361,21.361,0,0,1,3.315,3.968,6.319,6.319,0,0,1,.309,5.159,16.419,16.419,0,0,1-3.638,5.427c-1.629,1.8-3.349,3.646-4.041,6.033-.084.289-.528.142-.444-.147,1.2-4.154,5.237-6.513,7.16-10.255a6.4,6.4,0,0,0,.433-5.615,16.574,16.574,0,0,0-3.289-4.092,11.013,11.013,0,0,1-2.684-4.587,16.636,16.636,0,0,1-.421-5.606,40.542,40.542,0,0,1,2.961-12.32,42.528,42.528,0,0,1,7.647-12.255c.2-.224.508.128.309.351Z" transform="translate(-257.329 -357.464)" fill="#fff"/>
  <path id="Pfad_403" data-name="Pfad 403" d="M428.2,701.391a6.269,6.269,0,0,1-4.772-6.567c.024-.3.491-.277.467.023a5.805,5.805,0,0,0,4.452,6.1c.293.07.144.513-.147.444Z" transform="translate(-255.208 -367.825)" fill="#fff"/>
  <path id="Pfad_404" data-name="Pfad 404" d="M434.981,723a12.084,12.084,0,0,0,5.4-6.959c.085-.289.529-.142.444.147a12.568,12.568,0,0,1-5.63,7.23C434.932,723.575,434.723,723.157,434.981,723Z" transform="translate(-260.02 -376.753)" fill="#fff"/>
  <path id="Pfad_405" data-name="Pfad 405" d="M439.32,684.037a3.549,3.549,0,0,0,3.363-.171c.257-.157.466.262.21.418a3.977,3.977,0,0,1-3.72.2.242.242,0,0,1-.149-.3A.235.235,0,0,1,439.32,684.037Z" transform="translate(-261.764 -363.302)" fill="#fff"/>
  <path id="Pfad_406" data-name="Pfad 406" d="M471.1,701.9c-.158.1-.316.205-.474.312a46.728,46.728,0,0,0-5.976,4.665c-.146.13-.292.265-.434.4a49.27,49.27,0,0,0-10.7,14.647,47.85,47.85,0,0,0-2.621,6.781c-.967,3.209-1.76,6.765-3.675,9.39a8.207,8.207,0,0,1-.639.789h-17.3c-.039-.02-.079-.036-.118-.055l-.691.032c.028-.122.059-.249.087-.371.016-.071.035-.142.051-.213.012-.047.024-.095.032-.138,0-.016.008-.032.012-.043.008-.043.02-.083.028-.122q.26-1.06.537-2.12s0,0,0-.008a70.349,70.349,0,0,1,5.921-15.543c.079-.146.158-.3.245-.442a45.65,45.65,0,0,1,4.1-6.22,40.352,40.352,0,0,1,2.688-3.075,33.565,33.565,0,0,1,8.4-6.291c6.2-3.276,13.388-4.531,20.019-2.53C470.761,701.8,470.927,701.847,471.1,701.9Z" transform="translate(-257.345 -370.415)" fill="#f0f0f0"/>
  <path id="Pfad_407" data-name="Pfad 407" d="M471.115,702.749a41.786,41.786,0,0,0-22.453,12.523,18,18,0,0,0-3.229,4.622,10.321,10.321,0,0,0-.833,5.368,21.362,21.362,0,0,1,.258,5.164,6.319,6.319,0,0,1-2.86,4.3,16.419,16.419,0,0,1-6.172,2.143c-2.385.457-4.869.895-6.859,2.384-.241.181-.507-.2-.266-.384,3.463-2.591,8.1-2.048,11.891-3.877a6.4,6.4,0,0,0,3.726-4.223,16.574,16.574,0,0,0-.163-5.248,11.014,11.014,0,0,1,.618-5.279,16.634,16.634,0,0,1,3.039-4.729,40.542,40.542,0,0,1,9.781-8.054,42.529,42.529,0,0,1,13.484-5.181c.294-.058.328.408.036.466Z" transform="translate(-257.403 -371.042)" fill="#fff"/>
  <path id="Pfad_408" data-name="Pfad 408" d="M465.245,714.979a6.269,6.269,0,0,1,.144-8.117c.2-.225.559.074.359.3a5.805,5.805,0,0,0-.118,7.551c.192.232-.194.5-.384.266Z" transform="translate(-272.188 -372.932)" fill="#fff"/>
  <path id="Pfad_409" data-name="Pfad 409" d="M455.634,738.7a12.084,12.084,0,0,0,8.5-2.308c.242-.18.508.205.266.384a12.569,12.569,0,0,1-8.848,2.383C455.25,739.128,455.336,738.668,455.634,738.7Z" transform="translate(-268.635 -385.338)" fill="#fff"/>
  <path id="Pfad_410" data-name="Pfad 410" d="M485.565,707.922a3.549,3.549,0,0,0,2.788,1.888c.3.03.214.489-.084.46a3.977,3.977,0,0,1-3.089-2.082.242.242,0,0,1,.059-.325A.235.235,0,0,1,485.565,707.922Z" transform="translate(-281.145 -373.368)" fill="#fff"/>
  <path id="Pfad_411" data-name="Pfad 411" d="M630.94,571.423c-8.485-18.769-8.172-42.559,5-58.4a94.9,94.9,0,0,0,33.967,55.6c6.78,5.353,14.878,10.6,16.73,19.04,1.153,5.25-.481,10.8-3.305,15.377s-6.761,8.336-10.653,12.043l-.437,1.269C655.3,604.631,639.425,590.191,630.94,571.423Z" transform="translate(-340.022 -291.627)" fill="#f0f0f0"/>
  <path id="Pfad_412" data-name="Pfad 412" d="M642.74,513a81.117,81.117,0,0,0,6.587,49.471,34.933,34.933,0,0,0,6.04,9.127,20.035,20.035,0,0,0,9.1,5.333c3.2.935,6.587,1.521,9.507,3.218a12.267,12.267,0,0,1,5.732,8.234c.91,4.212.253,8.5-.536,12.672-.876,4.631-1.859,9.428-.59,14.083.154.564-.731.77-.884.206-2.208-8.1,2.085-16.089,1.485-24.232-.28-3.8-1.707-7.539-4.965-9.74-2.849-1.925-6.339-2.532-9.59-3.451a21.378,21.378,0,0,1-9.088-4.883,32.29,32.29,0,0,1-6.369-8.861,78.7,78.7,0,0,1-7.561-23.405,82.558,82.558,0,0,1,.268-28.039c.1-.573.972-.3.868.268Z" transform="translate(-346.455 -291.369)" fill="#fff"/>
  <path id="Pfad_413" data-name="Pfad 413" d="M640.55,585.5A12.17,12.17,0,0,1,626,579.451c-.264-.521.533-.956.8-.434a11.269,11.269,0,0,0,13.547,5.6c.555-.181.759.7.206.884Z" transform="translate(-340.312 -319.123)" fill="#fff"/>
  <path id="Pfad_414" data-name="Pfad 414" d="M678.817,610.451a23.457,23.457,0,0,0,1.9-16.989c-.152-.565.732-.77.884-.206a24.4,24.4,0,0,1-2.01,17.674C679.315,611.447,678.545,610.965,678.817,610.451Z" transform="translate(-362.496 -325.073)" fill="#fff"/>
  <path id="Pfad_415" data-name="Pfad 415" d="M641.533,542.938a6.889,6.889,0,0,0,5.4-3.686c.267-.52,1.036-.038.771.479a7.719,7.719,0,0,1-5.963,4.091.469.469,0,0,1-.545-.339.456.456,0,0,1,.339-.545Z" transform="translate(-346.709 -302.419)" fill="#fff"/>
  <path id="Pfad_416" data-name="Pfad 416" d="M734.159,513.341c-.158.33-.315.659-.469,1a90.729,90.729,0,0,0-5.179,13.775c-.11.364-.216.734-.316,1.1A95.642,95.642,0,0,0,725.29,564.3a92.892,92.892,0,0,0,2.52,13.885c1.645,6.294,3.929,12.988,3.414,19.274a15.915,15.915,0,0,1-.261,1.955l-28.659,17.5c-.085.007-.167.021-.252.028l-1.112.751c-.078-.231-.154-.472-.231-.7-.046-.134-.085-.271-.131-.4-.028-.09-.057-.181-.087-.261-.01-.03-.019-.06-.024-.084-.031-.08-.051-.157-.078-.231q-.641-2.019-1.255-4.054c0-.007,0-.007,0-.017a136.572,136.572,0,0,1-5.919-31.74c-.017-.322-.038-.65-.042-.98a88.62,88.62,0,0,1,.5-14.455,78.323,78.323,0,0,1,1.342-7.813,65.155,65.155,0,0,1,7.548-18.921c6.964-11.705,17.594-21.053,30.6-24.448C733.5,513.5,733.822,513.421,734.159,513.341Z" transform="translate(-368.532 -291.759)" fill="#f0f0f0"/>
  <path id="Pfad_417" data-name="Pfad 417" d="M739.74,513.422a81.117,81.117,0,0,0-24.525,43.466,34.931,34.931,0,0,0-.672,10.924,20.034,20.034,0,0,0,4.052,9.734c1.994,2.675,4.344,5.18,5.653,8.294a12.267,12.267,0,0,1-.381,10.025c-1.809,3.911-4.916,6.939-8.057,9.795-3.488,3.171-7.16,6.409-8.95,10.89-.217.543-1.047.175-.83-.367,3.114-7.8,11.351-11.591,15.775-18.454,2.064-3.2,3.176-7.047,1.9-10.766-1.116-3.253-3.537-5.838-5.579-8.529a21.379,21.379,0,0,1-4.317-9.371,32.293,32.293,0,0,1,.25-10.91,78.7,78.7,0,0,1,8.055-23.24,82.555,82.555,0,0,1,17.1-22.226c.429-.395.957.344.531.736Z" transform="translate(-373.957 -291.437)" fill="#fff"/>
  <path id="Pfad_418" data-name="Pfad 418" d="M717.325,569.454a12.17,12.17,0,0,1-7.975-13.592c.1-.575,1-.442.9.134a11.269,11.269,0,0,0,7.444,12.628C718.245,568.814,717.874,569.643,717.325,569.454Z" transform="translate(-375.275 -309.342)" fill="#fff"/>
  <path id="Pfad_419" data-name="Pfad 419" d="M725.46,613.243A23.456,23.456,0,0,0,737.2,600.82c.219-.542,1.049-.174.83.367a24.4,24.4,0,0,1-12.247,12.9c-.53.248-.854-.6-.327-.847Z" transform="translate(-382.011 -328.276)" fill="#fff"/>
  <path id="Pfad_420" data-name="Pfad 420" d="M742.172,538.3a6.889,6.889,0,0,0,6.529.307c.527-.255.851.594.327.847a7.719,7.719,0,0,1-7.224-.324.469.469,0,0,1-.231-.6.456.456,0,0,1,.6-.231Z" transform="translate(-388.877 -302.095)" fill="#fff"/>
  <path id="Pfad_421" data-name="Pfad 421" d="M722.212,502.435l32.236-24.474,15.713,15.713-52.515,35.937Z" transform="translate(-301.642 -200.906)" fill="#3f3d56"/>
  <path id="Pfad_422" data-name="Pfad 422" d="M727.3,624.915H617.031l3.868-12.531h0c23.97-8.677,10.506-27.329,33.307-38.73,55.771-27.885,77.362-111.1,69.2-143.993l36.548-1.545S810.422,571.451,727.3,624.915Z" transform="translate(-336.665 -255.996)" fill="#3f3d56"/>
  <path id="Pfad_423" data-name="Pfad 423" d="M930.342,614.162a18.535,18.535,0,0,1-23.951.448l-.072-.059,0-.092a17.759,17.759,0,0,0-.712-4.532,12.687,12.687,0,0,1-.461,3.137l-.092.344-.248-.256c-.214-.221-.421-.445-.615-.666a18.689,18.689,0,0,1-2.847-4.311,54.488,54.488,0,0,0-15.118-18.844,26.463,26.463,0,0,1-3.172-3.052,26.148,26.148,0,0,1,32.835-39.836l.163.1-.085.169a13.623,13.623,0,0,1-2.43,3.505,17.757,17.757,0,0,0,3.743-2.7l.119-.112.135.093a26.258,26.258,0,0,1,4.782,4.256l.152.175a11.673,11.673,0,0,0,8.644,3.989,18.529,18.529,0,0,1,17.942,21.708l-.021.122-.119.036a15.9,15.9,0,0,1-6.476.808,18.063,18.063,0,0,0,5.768,1.445l.257.02-.082.245a18.518,18.518,0,0,1-5.344,8.058l-.07.062-.075.065a18.2,18.2,0,0,0-6.286,12.63A18.671,18.671,0,0,1,930.342,614.162Z" transform="translate(-445.697 -304.15)" fill="#00a2d7"/>
  <path id="Pfad_424" data-name="Pfad 424" d="M974.9,649.084a18.487,18.487,0,0,1-.208,1.992A18.733,18.733,0,0,0,977.7,641.8c.025-.506.078-1.01.149-1.512A17.58,17.58,0,0,0,974.9,649.084Z" transform="translate(-486.883 -344.968)" opacity="0.15"/>
  <path id="Pfad_425" data-name="Pfad 425" d="M985.1,616.089a18.037,18.037,0,0,0,4.609,1.3,18.575,18.575,0,0,0,1.689-2.061A15.715,15.715,0,0,1,985.1,616.089Z" transform="translate(-491.25 -334.477)" opacity="0.15"/>
  <path id="Pfad_426" data-name="Pfad 426" d="M996.71,606.152a18.643,18.643,0,0,1-.132,4.808,18.428,18.428,0,0,0,2.086-4.3l.082-.245-.257-.02A17.924,17.924,0,0,1,996.71,606.152Z" transform="translate(-496.067 -330.622)" opacity="0.15"/>
  <path id="Pfad_427" data-name="Pfad 427" d="M945.02,561.868a18.572,18.572,0,0,0-13.6-6.289,11.672,11.672,0,0,1-8.644-3.989l-.152-.175a26.261,26.261,0,0,0-4.782-4.256l-.135-.093-.119.112a17.762,17.762,0,0,1-3.743,2.7,13.622,13.622,0,0,0,2.43-3.505l.085-.169-.163-.1a26.128,26.128,0,0,0-38.711,16.915,26.133,26.133,0,0,1,35.908-9.627l.163.1-.085.169a13.624,13.624,0,0,1-2.43,3.505,17.757,17.757,0,0,0,3.743-2.7l.119-.112.134.093a26.265,26.265,0,0,1,4.782,4.256l.152.175a11.673,11.673,0,0,0,8.644,3.989A18.532,18.532,0,0,1,946.539,578.1a22.447,22.447,0,0,0,2.682-.653l.119-.036.021-.122A18.458,18.458,0,0,0,945.02,561.868Z" transform="translate(-446.092 -303.912)" opacity="0.15"/>
  <path id="Pfad_428" data-name="Pfad 428" d="M878.765,339.359a59.679,59.679,0,0,1-49.844,58.859l-.3.049-.228-.19a57.182,57.182,0,0,0-12.472-7.917,40.852,40.852,0,0,1,6.608,7.785l.635.955-1.145.055c-.988.048-1.97.072-2.918.072a60.182,60.182,0,0,1-16.477-2.285c-24.348-6.927-50.494-8.112-77.711-3.521a85.169,85.169,0,0,1-14.123,1.178A84.193,84.193,0,0,1,684.3,230.3l.579-.192.228.565A43.86,43.86,0,0,1,688.415,244a57.188,57.188,0,0,0,1.422-14.8l-.018-.525.51-.128a84.552,84.552,0,0,1,20.459-2.509l.747,0a37.585,37.585,0,0,0,28.025-12.416,59.662,59.662,0,0,1,90.64,2.784l.251.311-.166.365c-3.486,7.684-7.284,13.281-11.818,17.375a58.162,58.162,0,0,0,15.759-10.873l.6-.578.418.718a59.621,59.621,0,0,1,8.117,30.056v.3c0,.106,0,.213,0,.32,0,16.155,6.247,31.466,17.168,42.056a60.118,60.118,0,0,1,18.242,42.9Z" transform="translate(-340.824 -157.463)" fill="#00a2d7"/>
  <g id="Gruppe_57" data-name="Gruppe 57" transform="translate(293.882 40.888)" opacity="0.15">
    <path id="Pfad_429" data-name="Pfad 429" d="M929.949,201.414a42.152,42.152,0,0,1-7.518,9.223,58.016,58.016,0,0,0,11.746-7.341Q932.1,202.272,929.949,201.414Z" transform="translate(-758.835 -201.414)"/>
    <path id="Pfad_430" data-name="Pfad 430" d="M982.592,290.464a59.913,59.913,0,0,1,8.58,10.452,60.987,60.987,0,0,1-5.582-25.621c0-.106,0-.213,0-.32v-.3a59.623,59.623,0,0,0-8.117-30.056l-.418-.718-.6.578a58.3,58.3,0,0,1-10.882,8.287C966.594,267.292,972.659,280.831,982.592,290.464Z" transform="translate(-776.94 -219.243)"/>
    <path id="Pfad_431" data-name="Pfad 431" d="M962.578,235.467v.3c0,.106,0,.213,0,.32,0,.586.011,1.17.027,1.753a62.139,62.139,0,0,0,7.068-12.184l.166-.365-.251-.311a60.149,60.149,0,0,0-10.794-10.44,59.758,59.758,0,0,1,3.786,20.926Z" transform="translate(-774.093 -206.923)"/>
    <path id="Pfad_432" data-name="Pfad 432" d="M866.367,363.767a53.943,53.943,0,0,1-7.6-9.252A59.607,59.607,0,0,1,814.6,438.64l-.295.048-.228-.19a57.185,57.185,0,0,0-12.473-7.917,40.846,40.846,0,0,1,6.605,7.785l.635.955-1.145.055c-.988.048-1.97.072-2.918.072a60.184,60.184,0,0,1-16.477-2.285c-24.348-6.927-50.494-8.112-77.711-3.521a85.179,85.179,0,0,1-14.123,1.178A83.808,83.808,0,0,1,640.549,413.5a84.269,84.269,0,0,0,76.082,48.211,85.184,85.184,0,0,0,14.128-1.179c27.213-4.59,53.359-3.406,77.707,3.522a60.185,60.185,0,0,0,16.477,2.285c.948,0,1.93-.024,2.918-.072l1.145-.055-.635-.955a40.853,40.853,0,0,0-6.605-7.785,57.181,57.181,0,0,1,12.472,7.917l.228.19.295-.048a59.636,59.636,0,0,0,31.606-101.759Z" transform="translate(-640.549 -265.659)"/>
  </g>
  <path id="Pfad_433" data-name="Pfad 433" d="M543.012,408.918c-3.212-3.461-4.877-8.654-3.17-13.055a21.753,21.753,0,0,0,11.434,9.609c1.863.669,4.006,1.22,5.023,2.919a4.863,4.863,0,0,1,.4,3.582,14.442,14.442,0,0,1-1.438,3.394l0,.308C550.726,414.359,546.223,412.378,543.012,408.918Z" transform="translate(-303.847 -242.271)" fill="#00a2d7"/>
  <path id="Pfad_434" data-name="Pfad 434" d="M817.883,581.871c-3.212-3.461-4.877-8.654-3.17-13.055a21.753,21.753,0,0,0,11.434,9.608c1.864.669,4.006,1.22,5.023,2.919a4.862,4.862,0,0,1,.4,3.582,14.434,14.434,0,0,1-1.437,3.394l0,.308C825.6,587.312,821.094,585.331,817.883,581.871Z" transform="translate(-419.343 -314.945)" fill="#00a2d7"/>
  <path id="Pfad_435" data-name="Pfad 435" d="M949,693.224c-2.244-4.154-2.557-9.6.2-13.433a21.753,21.753,0,0,0,8.666,12.164c1.637,1.114,3.573,2.183,4.133,4.083a4.862,4.862,0,0,1-.507,3.569,14.446,14.446,0,0,1-2.241,2.926l-.079.3C955.1,700.423,951.24,697.378,949,693.224Z" transform="translate(-475.355 -361.606)" fill="#00a2d7"/>
  <path id="Pfad_436" data-name="Pfad 436" d="M1042.426,555.016c-2.244-4.154-2.557-9.6.2-13.433a21.752,21.752,0,0,0,8.666,12.164c1.637,1.114,3.573,2.183,4.133,4.083a4.862,4.862,0,0,1-.507,3.569,14.438,14.438,0,0,1-2.241,2.926l-.079.3C1048.532,562.215,1044.666,559.17,1042.426,555.016Z" transform="translate(-514.561 -303.504)" fill="#00a2d7"/>
  <path id="Pfad_437" data-name="Pfad 437" d="M431.681,608.292c-2.244-4.154-2.557-9.6.2-13.433a21.753,21.753,0,0,0,8.666,12.164c1.637,1.114,3.573,2.183,4.133,4.083a4.863,4.863,0,0,1-.507,3.569,14.444,14.444,0,0,1-2.241,2.926l-.079.3C437.789,615.49,433.925,612.446,431.681,608.292Z" transform="translate(-257.94 -325.89)" fill="#e6e6e6"/>
  <path id="Pfad_438" data-name="Pfad 438" d="M781.724,660.373c1.949-15.668,11.659-31.106,26.6-36.205a72.746,72.746,0,0,0,0,49.945c2.3,6.211,5.5,12.88,3.337,19.14-1.344,3.895-4.631,6.875-8.306,8.738s-7.753,2.751-11.781,3.622l-.793.656C784.393,691.831,779.776,676.041,781.724,660.373Z" transform="translate(-405.588 -338.265)" fill="#e6e6e6"/>
  <path id="Pfad_439" data-name="Pfad 439" d="M815.1,624.224a62.177,62.177,0,0,0-15.457,34.994,26.771,26.771,0,0,0,.3,8.384,15.356,15.356,0,0,0,3.82,7.123c1.722,1.891,3.7,3.627,4.933,5.9a9.4,9.4,0,0,1,.459,7.677c-1.088,3.119-3.231,5.662-5.414,8.075-2.423,2.68-4.983,5.425-6.013,8.977-.125.43-.785.212-.661-.218,1.792-6.181,7.792-9.692,10.654-15.259,1.335-2.6,1.9-5.613.644-8.356-1.095-2.4-3.135-4.189-4.894-6.089a16.387,16.387,0,0,1-3.994-6.826,24.754,24.754,0,0,1-.626-8.341,60.322,60.322,0,0,1,4.406-18.332A63.281,63.281,0,0,1,814.635,623.7c.3-.333.756.191.46.522Z" transform="translate(-412.208 -338.025)" fill="#fff"/>
  <path id="Pfad_440" data-name="Pfad 440" d="M796.676,670.421a9.329,9.329,0,0,1-7.1-9.772c.035-.446.731-.412.7.035a8.638,8.638,0,0,0,6.624,9.077C797.33,669.864,797.109,670.524,796.676,670.421Z" transform="translate(-409.048 -353.44)" fill="#fff"/>
  <path id="Pfad_441" data-name="Pfad 441" d="M806.765,702.582a17.981,17.981,0,0,0,8.029-10.355c.126-.43.787-.211.661.218a18.7,18.7,0,0,1-8.377,10.759c-.386.229-.7-.394-.313-.621Z" transform="translate(-416.21 -366.727)" fill="#fff"/>
  <path id="Pfad_442" data-name="Pfad 442" d="M813.222,644.6a5.281,5.281,0,0,0,5-.254c.383-.234.693.389.313.621a5.917,5.917,0,0,1-5.535.293.36.36,0,0,1-.221-.44.35.35,0,0,1,.44-.221Z" transform="translate(-418.803 -346.71)" fill="#fff"/>
  <path id="Pfad_443" data-name="Pfad 443" d="M860.5,671.183c-.235.153-.47.305-.7.464a69.547,69.547,0,0,0-8.892,6.942c-.217.194-.435.393-.646.593a73.312,73.312,0,0,0-15.922,21.8,71.18,71.18,0,0,0-3.9,10.09c-1.439,4.775-2.619,10.067-5.468,13.972a12.209,12.209,0,0,1-.952,1.175H798.279c-.058-.029-.117-.053-.176-.082l-1.028.047c.041-.182.088-.37.129-.552.024-.106.053-.211.076-.317.018-.07.035-.141.047-.206.006-.024.012-.047.018-.065.012-.065.029-.123.041-.182q.388-1.577.8-3.154c0-.006,0-.006.006-.012A104.683,104.683,0,0,1,807,698.563c.118-.217.235-.44.364-.658a67.934,67.934,0,0,1,6.1-9.256,60.075,60.075,0,0,1,4-4.575,49.945,49.945,0,0,1,12.5-9.362c9.233-4.875,19.922-6.742,29.789-3.765C860.005,671.024,860.252,671.1,860.5,671.183Z" transform="translate(-412.253 -357.295)" fill="#e6e6e6"/>
  <path id="Pfad_444" data-name="Pfad 444" d="M860.533,672.443a62.178,62.178,0,0,0-33.411,18.634,26.776,26.776,0,0,0-4.8,6.877,15.357,15.357,0,0,0-1.239,7.987c.236,2.547.772,5.125.384,7.684a9.4,9.4,0,0,1-4.255,6.406c-2.746,1.836-5.989,2.575-9.184,3.188-3.548.681-7.245,1.331-10.206,3.548-.359.268-.755-.3-.4-.572,5.152-3.856,12.057-3.047,17.693-5.769,2.63-1.27,4.893-3.341,5.545-6.284.57-2.574.019-5.232-.242-7.809a16.387,16.387,0,0,1,.92-7.855,24.754,24.754,0,0,1,4.522-7.037,60.323,60.323,0,0,1,14.555-11.984,63.283,63.283,0,0,1,20.064-7.709C860.918,671.662,860.968,672.357,860.533,672.443Z" transform="translate(-412.34 -358.228)" fill="#fff"/>
  <path id="Pfad_445" data-name="Pfad 445" d="M851.8,690.639a9.329,9.329,0,0,1,.214-12.078c.3-.335.832.111.534.446a8.638,8.638,0,0,0-.176,11.235C852.654,690.588,852.081,690.982,851.8,690.639Z" transform="translate(-434.312 -361.04)" fill="#fff"/>
  <path id="Pfad_446" data-name="Pfad 446" d="M837.5,725.939a17.98,17.98,0,0,0,12.646-3.434c.36-.267.756.305.4.572a18.7,18.7,0,0,1-13.166,3.547C836.926,726.574,837.053,725.89,837.5,725.939Z" transform="translate(-429.03 -379.501)" fill="#fff"/>
  <path id="Pfad_447" data-name="Pfad 447" d="M882.035,680.139a5.281,5.281,0,0,0,4.148,2.81c.446.044.319.728-.124.685a5.917,5.917,0,0,1-4.6-3.1.36.36,0,0,1,.088-.484.35.35,0,0,1,.484.088Z" transform="translate(-447.737 -361.69)" fill="#fff"/>
  <path id="Pfad_448" data-name="Pfad 448" d="M400.615,547.561,379.25,531.34l-10.414,10.414,34.806,23.818Z" transform="translate(-154.984 -223.305)" fill="#3f3d56"/>
  <path id="Pfad_449" data-name="Pfad 449" d="M568.329,672.9h73.085l-2.563-8.305h0c-15.887-5.751-6.963-18.113-22.075-25.669-36.963-18.482-51.273-73.632-45.86-95.433l-24.223-1.024S513.241,637.467,568.329,672.9Z" transform="translate(-302.829 -303.983)" fill="#3f3d56"/>
  <path id="Pfad_450" data-name="Pfad 450" d="M470.5,657.123a12.059,12.059,0,0,0-4.166-8.371l-.05-.043-.047-.041a12.273,12.273,0,0,1-3.542-5.34l-.054-.162.17-.013a11.972,11.972,0,0,0,3.823-.958,10.536,10.536,0,0,1-4.292-.535l-.079-.024-.014-.081a12.28,12.28,0,0,1,11.891-14.387,7.736,7.736,0,0,0,5.729-2.644l.1-.116a17.4,17.4,0,0,1,3.169-2.821l.089-.061.079.074a11.769,11.769,0,0,0,2.481,1.792,9.024,9.024,0,0,1-1.611-2.323l-.056-.112.108-.063a17.33,17.33,0,0,1,21.762,26.4,17.54,17.54,0,0,1-2.1,2.023,36.113,36.113,0,0,0-10.02,12.489,12.387,12.387,0,0,1-1.887,2.857c-.129.147-.266.3-.408.441l-.164.169-.061-.228a8.409,8.409,0,0,1-.305-2.079,11.767,11.767,0,0,0-.472,3l0,.061-.047.039a12.275,12.275,0,0,1-20.024-8.948Z" transform="translate(-271.464 -335.896)" fill="#e6e6e6"/>
  <path id="Pfad_451" data-name="Pfad 451" d="M478.476,688.919a12.257,12.257,0,0,0,.138,1.321,12.416,12.416,0,0,1-2-6.151c-.016-.335-.052-.669-.1-1A11.65,11.65,0,0,1,478.476,688.919Z" transform="translate(-277.522 -362.989)" opacity="0.15"/>
  <path id="Pfad_452" data-name="Pfad 452" d="M470.213,667.052a11.953,11.953,0,0,1-3.055.864,12.294,12.294,0,0,1-1.119-1.366,10.415,10.415,0,0,0,4.174.5Z" transform="translate(-273.118 -356.05)" opacity="0.15"/>
  <path id="Pfad_453" data-name="Pfad 453" d="M464.5,660.465a12.358,12.358,0,0,0,.087,3.187A12.214,12.214,0,0,1,463.2,660.8l-.054-.162.17-.014q.593-.051,1.178-.161Z" transform="translate(-271.904 -353.496)" opacity="0.15"/>
  <path id="Pfad_454" data-name="Pfad 454" d="M465.218,631.115a12.309,12.309,0,0,1,9.014-4.168,7.736,7.736,0,0,0,5.729-2.644l.1-.116a17.406,17.406,0,0,1,3.169-2.821l.089-.062.079.074a11.772,11.772,0,0,0,2.481,1.792,9.029,9.029,0,0,1-1.61-2.323l-.056-.112.108-.063a17.317,17.317,0,0,1,25.656,11.211,17.32,17.32,0,0,0-23.8-6.381l-.108.063.056.112A9.026,9.026,0,0,0,487.738,628a11.769,11.769,0,0,1-2.481-1.792l-.079-.074-.089.062a17.4,17.4,0,0,0-3.169,2.821l-.1.116a7.737,7.737,0,0,1-5.729,2.643,12.283,12.283,0,0,0-11.879,10.095,14.875,14.875,0,0,1-1.778-.432l-.079-.024-.014-.081A12.233,12.233,0,0,1,465.218,631.115Z" transform="translate(-271.503 -335.741)" opacity="0.15"/>
  <path id="Pfad_455" data-name="Pfad 455" d="M434.97,455.212a38.83,38.83,0,0,0,11.378-27.873c0-.07,0-.141,0-.212v-.2a39.516,39.516,0,0,1,5.379-19.92l.277-.476.395.383a38.549,38.549,0,0,0,10.445,7.207c-3-2.713-5.522-6.423-7.832-11.515l-.11-.242.167-.206a39.542,39.542,0,0,1,60.073-1.845,24.91,24.91,0,0,0,18.574,8.229l.495,0a56.055,56.055,0,0,1,13.568,1.665l.33.083-.012.348a37.9,37.9,0,0,0,.942,9.809,29.067,29.067,0,0,1,2.192-8.835l.151-.374.383.127a55.8,55.8,0,0,1-17.555,108.761,56.465,56.465,0,0,1-9.363-.781c-18.036-3.042-35.365-2.257-51.5,2.334a39.89,39.89,0,0,1-10.92,1.514c-.628,0-1.279-.016-1.934-.048l-.759-.036.421-.633a27.074,27.074,0,0,1,4.378-5.16,37.9,37.9,0,0,0-8.266,5.247l-.151.126-.2-.032a39.525,39.525,0,0,1-20.947-67.442Z" transform="translate(-255.052 -238.78)" fill="#e6e6e6"/>
  <g id="Gruppe_58" data-name="Gruppe 58" transform="translate(167.829 151.409)" opacity="0.15">
    <path id="Pfad_456" data-name="Pfad 456" d="M504.156,392.22a27.934,27.934,0,0,0,4.983,6.112,38.452,38.452,0,0,1-7.785-4.866Q502.729,392.789,504.156,392.22Z" transform="translate(-455.808 -392.22)"/>
    <path id="Pfad_457" data-name="Pfad 457" d="M462.63,451.238a39.7,39.7,0,0,0-5.686,6.927,40.421,40.421,0,0,0,3.7-16.981c0-.07,0-.141,0-.212v-.2a39.516,39.516,0,0,1,5.379-19.92l.277-.476.395.383a38.639,38.639,0,0,0,7.213,5.492A38.52,38.52,0,0,1,462.63,451.238Z" transform="translate(-437.173 -404.036)"/>
    <path id="Pfad_458" data-name="Pfad 458" d="M482.865,414.788v.2c0,.07,0,.141,0,.212,0,.388-.007.775-.018,1.162a41.186,41.186,0,0,1-4.684-8.075l-.11-.242.167-.206a39.865,39.865,0,0,1,7.154-6.919,39.606,39.606,0,0,0-2.509,13.869Z" transform="translate(-446.031 -395.871)"/>
    <path id="Pfad_459" data-name="Pfad 459" d="M434.97,499.821a35.753,35.753,0,0,0,5.04-6.132,39.506,39.506,0,0,0,29.272,55.755l.2.032.151-.126a37.9,37.9,0,0,1,8.266-5.247,27.078,27.078,0,0,0-4.378,5.16l-.421.633.759.036c.655.032,1.306.048,1.934.048a39.892,39.892,0,0,0,10.92-1.514c16.137-4.591,33.466-5.376,51.5-2.334a56.443,56.443,0,0,0,9.36.781,55.545,55.545,0,0,0,37.06-14.133,55.85,55.85,0,0,1-50.424,31.952,56.464,56.464,0,0,1-9.363-.781c-18.036-3.042-35.365-2.257-51.5,2.334a39.885,39.885,0,0,1-10.92,1.514c-.628,0-1.279-.016-1.934-.048l-.759-.036.421-.633a27.073,27.073,0,0,1,4.378-5.16,37.9,37.9,0,0,0-8.266,5.247l-.151.126-.2-.032a39.525,39.525,0,0,1-20.947-67.442Z" transform="translate(-422.878 -434.799)"/>
  </g>
  <path id="Pfad_460" data-name="Pfad 460" d="M162.264,611.071a27.006,27.006,0,0,1-26.635-22.556l-.022-.136.086-.1a25.874,25.874,0,0,0,3.583-5.644,18.487,18.487,0,0,1-3.523,2.989l-.432.287-.025-.518c-.022-.447-.033-.892-.033-1.321a27.235,27.235,0,0,1,1.034-7.456,79.4,79.4,0,0,0,1.593-35.166,38.547,38.547,0,0,1-.533-6.391,38.1,38.1,0,0,1,74.26-11.986l.087.262-.256.1a19.845,19.845,0,0,1-6.032,1.5,25.883,25.883,0,0,0,6.7.643l.238-.008.058.231a38.262,38.262,0,0,1,1.136,9.258v.338a17.008,17.008,0,0,0,5.618,12.682,27,27,0,0,1-1.26,41.017l-.141.114-.165-.075a23.166,23.166,0,0,1-7.863-5.348,26.32,26.32,0,0,0,4.921,7.131l.262.27-.325.189a26.979,26.979,0,0,1-13.6,3.673h-.281a26.513,26.513,0,0,0-19.031,7.769,27.2,27.2,0,0,1-19.413,8.256Z" transform="translate(-134.137 -284.888)" fill="#e4e4e4"/>
  <path id="Pfad_461" data-name="Pfad 461" d="M164.261,694.671a.487.487,0,0,1-.482-.419,163.16,163.16,0,0,1-.227-34.209c1.682-17.952,7.084-43.808,23.265-65.044a.487.487,0,1,1,.775.591c-16.041,21.052-21.4,46.719-23.069,64.544a162.057,162.057,0,0,0,.222,33.981.488.488,0,0,1-.483.556Z" transform="translate(-145.689 -325.944)" fill="#3f3d56"/>
  <path id="Pfad_462" data-name="Pfad 462" d="M178.907,634.749a.487.487,0,0,1-.287-.882,67.168,67.168,0,0,1,14.828-7.548c8.181-2.995,20.621-5.71,33.427-1.634a.487.487,0,0,1-.3.929c-12.544-3.992-24.759-1.322-32.8,1.621a66.058,66.058,0,0,0-14.59,7.421A.485.485,0,0,1,178.907,634.749Z" transform="translate(-152.247 -337.547)" fill="#3f3d56"/>
  <path id="Pfad_463" data-name="Pfad 463" d="M265.58,583.482a3.99,3.99,0,0,0,2.556-5.558l8.6-28.032-6.324-1.254-7.864,27.477a4.011,4.011,0,0,0,3.034,7.367Z" transform="translate(-186.685 -306.477)" fill="#ffb6b6"/>
  <path id="Pfad_464" data-name="Pfad 464" d="M281.81,536.452a4.608,4.608,0,0,0-2.867-.174v.006a4.111,4.111,0,0,0-.923.342,4.317,4.317,0,0,0-.894.586,4.517,4.517,0,0,0-1.323,1.834l-4.19,7.3a1.672,1.672,0,0,0,.836,2.385l.905.354,4.3,1.689,1.584.627,1.068.418a1.665,1.665,0,0,0,2.234-1.178l1.892-8.177A4.646,4.646,0,0,0,281.81,536.452Z" transform="translate(-191.259 -301.207)" fill="#3f3d56"/>
  <path id="Pfad_465" data-name="Pfad 465" d="M177.492,610.856h4.378l2.084-16.887h-6.462Z" transform="translate(-74.576 -249.586)" fill="#ffb6b6"/>
  <path id="Pfad_466" data-name="Pfad 466" d="M306.834,759.143h3.14l.56-2.964,1.435,2.964H320.3a1.872,1.872,0,0,0,1.064-3.412l-6.65-4.593v-3l-6.994.417Z" transform="translate(-206.228 -390.288)" fill="#2f2e41"/>
  <path id="Pfad_467" data-name="Pfad 467" d="M104.13,597.6l3.765,2.233L118.3,586.368l-5.558-3.3Z" transform="translate(-43.696 -245.013)" fill="#ffb6b6"/>
  <path id="Pfad_468" data-name="Pfad 468" d="M227.362,742.014l2.7,1.6,1.994-2.264-.277,3.282,7.162,4.248a1.872,1.872,0,0,0,2.655-2.392l-3.377-7.342,1.529-2.578-6.229-3.209Z" transform="translate(-172.784 -384.085)" fill="#2f2e41"/>
  <path id="Pfad_469" data-name="Pfad 469" d="M167.784,437.027l2.128,13.563-20.212.266,2.66-13.031Z" transform="translate(-62.818 -183.631)" fill="#ffb6b6"/>
  <path id="Pfad_470" data-name="Pfad 470" d="M287.285,589l5.773,14,.421,37.44-4.926,35.747H283.1l-2.234-35.164-5.494-24.061-5.418,25.165-16.848,24.632h-8.278l15.22-27.143,1.761-29.568s-1.1-12.543,4.521-19.945l1.368-3.951Z" transform="translate(-180.113 -322.314)" fill="#2f2e41"/>
  <path id="Pfad_471" data-name="Pfad 471" d="M302.315,539.3c-.012-.122-.029-.25-.052-.371a11.187,11.187,0,0,0-12.67-9.419,11.422,11.422,0,0,0-7.046,3.941v.006c-.093.11-.18.226-.267.342-.157.2-.3.406-.441.615a11.2,11.2,0,0,0-1.857,6.419v.006a11.059,11.059,0,0,0,.366,2.6,41.636,41.636,0,0,1,.911,4.51c.151.963.267,1.909.354,2.832.052.464.093.923.128,1.37v.006c.174,2.211.232,4.2.284,5.734.023.836.046,1.532.087,2.066a.636.636,0,0,0,.012.1,1.76,1.76,0,0,0,.441.963.838.838,0,0,0,.1.1,2.08,2.08,0,0,0,.905.476,1.79,1.79,0,0,0,.354.035h.035l3.384-1.579,2.67-1.242,9.06-4.225a1.823,1.823,0,0,0,1.683-1.219v-.006c.012-.046.029-.093.041-.145a37.935,37.935,0,0,0,1.66-7.3c.041-.476.075-.969.093-1.5v-.006a34.215,34.215,0,0,0-.232-5.125Z" transform="translate(-194.864 -298.389)" fill="#3f3d56"/>
  <circle id="Ellipse_7" data-name="Ellipse 7" cx="8.546" cy="8.546" r="8.546" transform="translate(86.323 212.226)" fill="#ffb6b6"/>
  <path id="Pfad_472" data-name="Pfad 472" d="M276.154,534.6a6.8,6.8,0,0,0-6.79,6.79v14.074a6.782,6.782,0,0,0,5.531,6.669h.006a6.855,6.855,0,0,0,1.254.116h9.4V534.6Z" transform="translate(-190.409 -300.571)" fill="#00a2d7"/>
  <path id="Pfad_473" data-name="Pfad 473" d="M281.274,536.987v10.267a1.184,1.184,0,0,0,2.368,0V536.987Z" transform="translate(-195.407 -301.565)" fill="#3f3d56"/>
  <path id="Pfad_474" data-name="Pfad 474" d="M284.209,566.247h-6.883a1.492,1.492,0,0,0-1.492,1.5v4.115a1.5,1.5,0,0,0,1.491,1.5h6.883a1.5,1.5,0,0,0,1.5-1.5v-4.115a1.5,1.5,0,0,0-1.5-1.5Z" transform="translate(-193.124 -313.857)" fill="#3f3d56"/>
  <path id="Pfad_475" data-name="Pfad 475" d="M303.866,549.952a13.081,13.081,0,0,0,2.8-8.376c0-6.1-3.632-11.059-8.1-11.059a7.445,7.445,0,0,0-6.2,3.93l.672.415a6.679,6.679,0,0,1,5.523-3.555c4.029,0,7.307,4.607,7.307,10.269a12.284,12.284,0,0,1-2.616,7.865Z" transform="translate(-200.066 -298.852)" fill="#00a2d7"/>
  <path id="Pfad_476" data-name="Pfad 476" d="M327.717,577.44a3.99,3.99,0,0,0-2.465-5.6L309.97,546.817l-5.132,3.9,15.354,24.106a4.011,4.011,0,0,0,7.526,2.614Z" transform="translate(-205.391 -305.71)" fill="#ffb6b6"/>
  <path id="Pfad_477" data-name="Pfad 477" d="M312.963,545.307l-2.583-3.627L309,539.741l-.9-1.265a4.641,4.641,0,0,0-8.282,4.19l2.681,7.98a1.675,1.675,0,0,0,2.345.952l.865-.441,1.364-.7,1.225-.621h.006l2.269-1.161.772-.389,1.021-.522a1.677,1.677,0,0,0,.6-2.461Z" transform="translate(-203.072 -301.129)" fill="#3f3d56"/>
  <path id="Pfad_478" data-name="Pfad 478" d="M647.458,767.3H135.8a.534.534,0,0,1,0-1.067H647.46a.534.534,0,0,1,0,1.067Z" transform="translate(-134.137 -397.88)" fill="#ccc"/>
  <path id="Pfad_479" data-name="Pfad 479" d="M601.681,681.292c-2.244-4.154-2.557-9.6.2-13.433a21.753,21.753,0,0,0,8.666,12.164c1.637,1.114,3.573,2.183,4.133,4.083a4.863,4.863,0,0,1-.507,3.569,14.446,14.446,0,0,1-2.241,2.926l-.079.3C607.789,688.49,603.925,685.446,601.681,681.292Z" transform="translate(-329.37 -356.599)" fill="#e6e6e6"/>
  <path id="Pfad_480" data-name="Pfad 480" d="M364.681,500.292c-2.244-4.154-2.557-9.6.2-13.433a21.753,21.753,0,0,0,8.666,12.164c1.637,1.114,3.573,2.183,4.133,4.083a4.863,4.863,0,0,1-.507,3.569,14.439,14.439,0,0,1-2.241,2.926l-.079.3C370.789,507.49,366.925,504.446,364.681,500.292Z" transform="translate(-229.788 -280.509)" fill="#e6e6e6"/>
  <path id="Pfad_481" data-name="Pfad 481" d="M281.51,496.554v.006a4.3,4.3,0,0,1-.141,1.1c-.015.063-.033.129-.054.192v0a4.358,4.358,0,0,1-2.687,2.8c-.093.036-.189.066-.285.093a3.9,3.9,0,0,1-.618.126,3.947,3.947,0,0,1-.567.039,4.3,4.3,0,0,1-.444-.021,4.207,4.207,0,0,1-1.012-.231,1.271,1.271,0,0,1-.15-.054.763.763,0,0,1-.072-.03,4.357,4.357,0,0,1-2.248-5.9l0,0a4.271,4.271,0,0,1,.856-1.2,4.337,4.337,0,0,1,3.068-1.267,1.651,1.651,0,0,1,.171.006,4.37,4.37,0,0,1,3.368,1.816,4.3,4.3,0,0,1,.7,1.549,4.357,4.357,0,0,1,.111.976Z" transform="translate(-191.853 -282.748)" fill="#2f2e41"/>
  <path id="Pfad_482" data-name="Pfad 482" d="M261.419,491.327a7.107,7.107,0,0,0-13.461-.834c-.935,2.319-.592,4.951-1.152,7.389a10.44,10.44,0,0,1-9.908,7.857l8.472,3.414a5.551,5.551,0,0,0,2.932.594,4.1,4.1,0,0,0,2.915-3.094,42.939,42.939,0,0,0,.644-4.434,11.318,11.318,0,0,1,6.573-8.265,6.836,6.836,0,0,0,2.688-1.5c.674-.788.637-2.275-.341-2.622" transform="translate(-176.786 -280.166)" fill="#2f2e41"/>
  <path id="Pfad_483" data-name="Pfad 483" d="M292.4,493.8c-1.149-2.511-4.181-2-6.923-1.669a8.521,8.521,0,0,0-6.384,4.737,11.644,11.644,0,0,0-.631,8.082,8.855,8.855,0,0,0,2.8,4.713c1.448,1.164,8.254,3.918,8.821,1.547-.708,3.094.717,2.609,2.826,4.981,1.093-3.282,1.6-9.466,2.7-12.748l.493-1.482c.347-1.041.694-2.084.944-3.153a4.785,4.785,0,0,0-.4-3.98c-.834-1.1-2.934-1.141-3.356.172" transform="translate(-194.041 -282.607)" fill="#2f2e41"/>
  <path id="Pfad_484" data-name="Pfad 484" d="M300.169,505.658l-.365-2.325c.248-2.892-.157-7.493,1.741-8.125l1.161,1.161C301.972,496.613,300.575,500.938,300.169,505.658Z" transform="translate(-203.183 -284.01)" fill="#ff6584"/>
</svg>
