<svg id="planing-together" xmlns="http://www.w3.org/2000/svg" width="541" height="453.737" viewBox="0 0 541 453.737">
  <path id="Pfad_485" data-name="Pfad 485" d="M594.283,695.111,493.211,512.883a2.719,2.719,0,0,0-1.349-2.178,2.686,2.686,0,0,0-1.46-.353h-.1a2.682,2.682,0,0,0-2.8,2.444L380.386,695.111a2.717,2.717,0,1,0,4.705,2.717L490.281,518.8l99.3,179.027a2.717,2.717,0,0,0,4.706-2.717Z" transform="translate(-242.443 -246.434)" fill="#3f3d56"/>
  <path id="Pfad_486" data-name="Pfad 486" d="M375.235,657.9l11.424-2.621-4.673-45.312-16.861,3.868Z" transform="translate(-144.067 -240.488)" fill="#ffb6b6"/>
  <path id="Pfad_487" data-name="Pfad 487" d="M461.616,655.258l-16.258,3.73-5.2-10.159-.294-.36a16.165,16.165,0,0,1-3.631-10.009l-13.513-35.745-1.1-.525a6.654,6.654,0,0,1-2.731-9.621l-1.431-3.784-40.366.074-.04-.011-49.569-13.9,5.2-31.026,13.944,8.771c4.595-.3,83.3-5.131,90.574,12.508,6.475,15.708,15.806,42.543,22.493,62.289a15.416,15.416,0,0,0,1.238,2.551,11.135,11.135,0,0,1,1.773,5.352,13.041,13.041,0,0,0,.472,2.449c2.779,8.309-1.455,17.2-1.5,17.292Z" transform="translate(-221.856 -259.735)" fill="#2f2e41"/>
  <path id="Pfad_488" data-name="Pfad 488" d="M528.638,751.708l3.714-.852,13.149-9.224,9.125,4.114h0a16.993,16.993,0,0,1,20.361,12.762l.123.538-42.55,9.763Z" transform="translate(-301.28 -338.085)" fill="#2f2e41"/>
  <path id="Pfad_489" data-name="Pfad 489" d="M249.116,740.457c1.161-12.643,8.567-25.3,20.445-29.784a58.5,58.5,0,0,0,1.292,40.14c2.006,4.932,4.75,10.21,3.176,15.3a13.076,13.076,0,0,1-6.45,7.237,38.831,38.831,0,0,1-9.375,3.215l-.62.547C252.073,765.672,247.954,753.1,249.116,740.457Z" transform="translate(-191.106 -325.817)" fill="#f0f0f0"/>
  <path id="Pfad_490" data-name="Pfad 490" d="M275.174,710.733a50,50,0,0,0-11.52,28.523,21.531,21.531,0,0,0,.461,6.73,12.348,12.348,0,0,0,3.254,5.626,25.559,25.559,0,0,1,4.117,4.617,7.562,7.562,0,0,1,.567,6.158,19.648,19.648,0,0,1-4.142,6.63c-1.878,2.216-3.865,4.488-4.6,7.37-.089.349-.626.19-.537-.158,1.281-5.014,6.012-7.99,8.168-12.538a7.658,7.658,0,0,0,.3-6.732c-.942-1.9-2.628-3.286-4.091-4.767a13.178,13.178,0,0,1-3.386-5.383,19.905,19.905,0,0,1-.718-6.688,48.506,48.506,0,0,1,3.068-14.847,50.883,50.883,0,0,1,8.674-14.949c.231-.275.613.134.384.408Z" transform="translate(-196.593 -325.643)" fill="#fff"/>
  <path id="Pfad_491" data-name="Pfad 491" d="M260.392,747.483a7.5,7.5,0,0,1-5.959-7.67.28.28,0,0,1,.56.01,6.946,6.946,0,0,0,5.558,7.124c.353.072.192.608-.158.537Z" transform="translate(-193.289 -337.259)" fill="#fff"/>
  <path id="Pfad_492" data-name="Pfad 492" d="M268.938,771.965a14.458,14.458,0,0,0,6.186-8.53c.09-.349.627-.19.537.158a15.038,15.038,0,0,1-6.455,8.863c-.3.194-.57-.3-.268-.492Z" transform="translate(-198.987 -346.647)" fill="#fff"/>
  <path id="Pfad_493" data-name="Pfad 493" d="M272.312,726.736a4.246,4.246,0,0,0,4.015-.333c.3-.2.567.3.268.491a4.758,4.758,0,0,1-4.441.379.289.289,0,0,1-.189-.347.281.281,0,0,1,.348-.189Z" transform="translate(-200.235 -332.032)" fill="#fff"/>
  <path id="Pfad_494" data-name="Pfad 494" d="M312.411,745.272c-.185.129-.37.258-.555.391a55.916,55.916,0,0,0-6.967,5.809c-.17.161-.339.327-.5.493a58.95,58.95,0,0,0-12.233,17.927,57.239,57.239,0,0,0-2.874,8.21c-1.033,3.875-1.845,8.158-4.034,11.37a9.834,9.834,0,0,1-.734.969l-20.688.665c-.048-.022-.1-.04-.144-.062l-.825.064c.029-.147.061-.3.09-.447.016-.086.037-.171.053-.257.012-.057.025-.114.032-.167,0-.019.008-.038.012-.052.008-.052.021-.1.029-.147q.271-1.277.56-2.555s0,0,0-.01a84.176,84.176,0,0,1,6.483-18.815c.089-.178.177-.36.276-.538a54.634,54.634,0,0,1,4.665-7.6,48.289,48.289,0,0,1,3.1-3.78,40.159,40.159,0,0,1,9.8-7.847c7.294-4.156,15.837-5.933,23.843-3.794C312.006,745.157,312.206,745.212,312.411,745.272Z" transform="translate(-196.629 -339.099)" fill="#f0f0f0"/>
  <path id="Pfad_495" data-name="Pfad 495" d="M312.425,746.047a50,50,0,0,0-26.371,15.838,21.528,21.528,0,0,0-3.684,5.651,12.348,12.348,0,0,0-.789,6.451,25.561,25.561,0,0,1,.507,6.166,7.561,7.561,0,0,1-3.254,5.258,19.643,19.643,0,0,1-7.3,2.8c-2.834.639-5.788,1.257-8.111,3.115-.281.225-.614-.225-.333-.45,4.041-3.232,9.611-2.76,14.071-5.093a7.657,7.657,0,0,0,4.294-5.193c.392-2.083-.12-4.205-.4-6.27a13.176,13.176,0,0,1,.537-6.336,19.9,19.9,0,0,1,3.453-5.772A48.506,48.506,0,0,1,296.438,752.2a50.885,50.885,0,0,1,15.926-6.714c.35-.081.408.476.061.556Z" transform="translate(-196.68 -339.61)" fill="#fff"/>
  <path id="Pfad_496" data-name="Pfad 496" d="M303.414,761.769a7.5,7.5,0,0,1-.14-9.712c.23-.277.671.068.441.345a6.946,6.946,0,0,0,.149,9.034C304.1,761.706,303.651,762.038,303.414,761.769Z" transform="translate(-211.967 -342.175)" fill="#fff"/>
  <path id="Pfad_497" data-name="Pfad 497" d="M293.141,788.946a14.458,14.458,0,0,0,10.074-3.086c.282-.224.615.226.333.45a15.038,15.038,0,0,1-10.49,3.19c-.36-.028-.275-.582.082-.553Z" transform="translate(-208.506 -355.587)" fill="#fff"/>
  <path id="Pfad_498" data-name="Pfad 498" d="M326.358,752.571a4.246,4.246,0,0,0,3.407,2.151c.36.024.275.577-.082.554a4.758,4.758,0,0,1-3.774-2.371.289.289,0,0,1,.058-.391.281.281,0,0,1,.391.058Z" transform="translate(-221.311 -342.375)" fill="#fff"/>
  <path id="Pfad_499" data-name="Pfad 499" d="M793.236,740.457c-1.161-12.643-8.567-25.3-20.445-29.784a58.5,58.5,0,0,1-1.292,40.14c-2.006,4.932-4.75,10.21-3.176,15.3a13.075,13.075,0,0,0,6.45,7.237,38.832,38.832,0,0,0,9.375,3.215l.62.547C790.278,765.672,794.4,753.1,793.236,740.457Z" transform="translate(-395.692 -325.817)" fill="#f0f0f0"/>
  <path id="Pfad_500" data-name="Pfad 500" d="M775.775,710.733a50,50,0,0,1,11.52,28.523,21.533,21.533,0,0,1-.461,6.73,12.349,12.349,0,0,1-3.254,5.626,25.567,25.567,0,0,0-4.117,4.617,7.561,7.561,0,0,0-.567,6.158,19.645,19.645,0,0,0,4.142,6.63c1.878,2.216,3.865,4.488,4.6,7.37.089.349.626.19.537-.158-1.281-5.014-6.012-7.99-8.168-12.538a7.658,7.658,0,0,1-.3-6.732c.942-1.9,2.628-3.286,4.091-4.767a13.177,13.177,0,0,0,3.386-5.383,19.9,19.9,0,0,0,.718-6.688,48.5,48.5,0,0,0-3.067-14.847,50.887,50.887,0,0,0-8.674-14.949c-.23-.275-.613.134-.384.408Z" transform="translate(-398.816 -325.643)" fill="#fff"/>
  <path id="Pfad_501" data-name="Pfad 501" d="M794.6,747.482a7.5,7.5,0,0,0,5.959-7.67.28.28,0,0,0-.56.01,6.946,6.946,0,0,1-5.558,7.124C794.087,747.018,794.247,747.554,794.6,747.482Z" transform="translate(-406.143 -337.258)" fill="#fff"/>
  <path id="Pfad_502" data-name="Pfad 502" d="M785.7,771.965a14.459,14.459,0,0,1-6.186-8.53c-.09-.349-.627-.19-.537.158a15.039,15.039,0,0,0,6.455,8.863c.3.194.57-.3.267-.492Z" transform="translate(-400.113 -346.647)" fill="#fff"/>
  <path id="Pfad_503" data-name="Pfad 503" d="M783.7,726.736a4.246,4.246,0,0,1-4.015-.333c-.3-.2-.567.3-.268.491a4.758,4.758,0,0,0,4.441.379.289.289,0,0,0,.189-.347.281.281,0,0,0-.347-.189Z" transform="translate(-400.243 -332.032)" fill="#fff"/>
  <path id="Pfad_504" data-name="Pfad 504" d="M714.2,745.272c.185.129.37.258.555.391a55.921,55.921,0,0,1,6.967,5.809c.17.161.339.327.5.493a58.952,58.952,0,0,1,12.233,17.927,57.248,57.248,0,0,1,2.874,8.21c1.033,3.875,1.845,8.158,4.034,11.37a9.814,9.814,0,0,0,.734.969l20.688.665c.048-.022.1-.04.144-.062l.825.064c-.028-.147-.061-.3-.09-.447-.016-.086-.037-.171-.053-.257-.012-.057-.025-.114-.032-.167,0-.019-.008-.038-.012-.052-.008-.052-.021-.1-.028-.147q-.271-1.277-.56-2.555s0,0,0-.01a84.178,84.178,0,0,0-6.483-18.815c-.089-.178-.177-.36-.276-.538a54.621,54.621,0,0,0-4.665-7.6,48.282,48.282,0,0,0-3.1-3.78,40.156,40.156,0,0,0-9.8-7.846c-7.294-4.156-15.837-5.933-23.843-3.795C714.606,745.157,714.406,745.212,714.2,745.272Z" transform="translate(-374.475 -339.099)" fill="#f0f0f0"/>
  <path id="Pfad_505" data-name="Pfad 505" d="M714.111,746.047a50,50,0,0,1,26.37,15.839,21.524,21.524,0,0,1,3.684,5.651,12.35,12.35,0,0,1,.79,6.451,25.552,25.552,0,0,0-.507,6.166,7.561,7.561,0,0,0,3.254,5.258,19.643,19.643,0,0,0,7.3,2.8c2.834.639,5.788,1.257,8.111,3.115.281.225.614-.225.333-.45-4.041-3.232-9.611-2.76-14.071-5.093a7.658,7.658,0,0,1-4.294-5.193c-.391-2.083.12-4.205.4-6.27a13.179,13.179,0,0,0-.537-6.336,19.9,19.9,0,0,0-3.453-5.772A48.505,48.505,0,0,0,730.1,752.2a50.885,50.885,0,0,0-15.926-6.714c-.35-.081-.408.476-.061.556Z" transform="translate(-374.348 -339.61)" fill="#fff"/>
  <path id="Pfad_506" data-name="Pfad 506" d="M754.169,761.769a7.5,7.5,0,0,0,.14-9.712c-.23-.277-.671.068-.441.345a6.946,6.946,0,0,1-.149,9.034C753.481,761.706,753.932,762.038,754.169,761.769Z" transform="translate(-390.133 -342.175)" fill="#fff"/>
  <path id="Pfad_507" data-name="Pfad 507" d="M758.892,788.946a14.459,14.459,0,0,1-10.074-3.086c-.282-.224-.615.226-.333.45a15.039,15.039,0,0,0,10.49,3.19c.36-.028.276-.582-.082-.553Z" transform="translate(-388.035 -355.587)" fill="#fff"/>
  <path id="Pfad_508" data-name="Pfad 508" d="M730.065,752.571a4.246,4.246,0,0,1-3.407,2.151c-.36.024-.275.577.082.553a4.758,4.758,0,0,0,3.774-2.371.289.289,0,0,0-.058-.391A.281.281,0,0,0,730.065,752.571Z" transform="translate(-379.386 -342.375)" fill="#fff"/>
  <path id="Pfad_509" data-name="Pfad 509" d="M694.16,823.1a.721.721,0,0,1-.72.718H153.88a.718.718,0,1,1,0-1.437H693.44A.721.721,0,0,1,694.16,823.1Z" transform="translate(-153.16 -370.085)" fill="#3f3d56"/>
  <circle id="Ellipse_8" data-name="Ellipse 8" cx="2.717" cy="2.717" r="2.717" transform="translate(344.831 168.902)" fill="#3f3d56"/>
  <path id="Pfad_510" data-name="Pfad 510" d="M670.636,378l36.626-23.011a2.9,2.9,0,1,1,2.852,5.033l-38.559,19.6a.933.933,0,0,1-.919-1.622Z" transform="translate(-357.133 -185.435)" fill="#e4e4e4"/>
  <path id="Pfad_511" data-name="Pfad 511" d="M548.928,467.322a2.537,2.537,0,0,1,.042-2.892,5.971,5.971,0,0,1,2.394-1.9,19.988,19.988,0,0,1,6.248-1.974c1.654-.235,3.46-.31,4.744-1.38s1.986-3.051,3.637-3.217c1.6-.16,2.825,1.587,4.426,1.7,1.974.134,3.266-2.176,5.187-2.65a6.021,6.021,0,0,1,3.814.79l7.237,3.283,3.709,1.683c1.3.588,2.757,1.379,3,2.781.336,1.926-1.805,3.285-3.637,3.968a58.543,58.543,0,0,1-40.525.005" transform="translate(-309.116 -225.048)" fill="#00a2d7"/>
  <ellipse id="Ellipse_9" data-name="Ellipse 9" cx="95.087" cy="13.584" rx="95.087" ry="13.584" transform="translate(155.571 250.663)" fill="#3f3d56"/>
  <rect id="Rechteck_87" data-name="Rechteck 87" width="76.07" height="10.867" rx="5.434" transform="translate(373.439 348.712)" fill="#3f3d56"/>
  <path id="Pfad_512" data-name="Pfad 512" d="M918.9,487.192l-21.535,102.3,5.609,26.184,10.589,49.415V687.3a.468.468,0,0,1-.006.091,4.188,4.188,0,0,1-.266,1.437h-8.512a4.188,4.188,0,0,1-.266-1.437.455.455,0,0,1-.006-.091V666.047L894.894,621.2l-1.944-9.056-3.761-17.55-1.086-5.083V589.5l1.074-5.1.827-3.93,20.032-95.142a4.528,4.528,0,1,1,8.862,1.859Z" transform="translate(-442.937 -235.094)" fill="#3f3d56"/>
  <path id="Pfad_513" data-name="Pfad 513" d="M780.328,657.263v97.8a.469.469,0,0,1-.006.091,4.187,4.187,0,0,1-.266,1.437h-8.512a4.187,4.187,0,0,1-.266-1.437.46.46,0,0,1-.006-.091v-97.8a4.528,4.528,0,1,1,9.056,0Z" transform="translate(-397.073 -302.857)" fill="#3f3d56"/>
  <path id="Pfad_514" data-name="Pfad 514" d="M632.913,558h43.469a16.3,16.3,0,0,1,16.3,16.3h-76.07A16.3,16.3,0,0,1,632.913,558Z" transform="translate(-243.173 -220.174)" fill="#3f3d56"/>
  <path id="Pfad_515" data-name="Pfad 515" d="M851.87,706.791H775.8a4.528,4.528,0,1,1,0-9.056h76.07a4.528,4.528,0,1,1,0,9.056Z" transform="translate(-396.901 -320.69)" fill="#3f3d56"/>
  <rect id="Rechteck_88" data-name="Rechteck 88" width="87.595" height="12.514" rx="6.257" transform="translate(182.396 359.743) rotate(180)" fill="#3f3d56"/>
  <path id="Pfad_516" data-name="Pfad 516" d="M294.927,578.217l-1.389,5.723-5.1,20.961-2.2,9.056-10.2,42.007v18.227a4.463,4.463,0,0,1-.761,2.505,4.371,4.371,0,0,1-1.551,1.437H269.3a4.373,4.373,0,0,1-1.551-1.437,4.463,4.463,0,0,1-.761-2.505V654.878l11.338-46.668,7.317-30.138L260.828,460.194a4.525,4.525,0,1,1,8.857-1.859L292.62,567.265l1.056,5.023,1.231,5.856Z" transform="translate(-195.787 -224.397)" fill="#3f3d56"/>
  <path id="Pfad_517" data-name="Pfad 517" d="M445.968,656.173V752.22a4.461,4.461,0,0,1-.761,2.505,4.372,4.372,0,0,1-1.551,1.437h-4.437a4.407,4.407,0,0,1-1.546-1.437,4.463,4.463,0,0,1-.761-2.505V656.173a4.528,4.528,0,0,1,9.056,0Z" transform="translate(-265.131 -302.425)" fill="#3f3d56"/>
  <path id="Pfad_518" data-name="Pfad 518" d="M0,0H87.6V2.47a16.3,16.3,0,0,1-16.3,16.3H16.3A16.3,16.3,0,0,1,0,2.47Z" transform="translate(182.396 353.465) rotate(180)" fill="#3f3d56"/>
  <path id="Pfad_519" data-name="Pfad 519" d="M383.94,712.518h-87.6a4.528,4.528,0,1,1,0-9.056h87.6a4.528,4.528,0,0,1,0,9.056Z" transform="translate(-207.83 -322.959)" fill="#3f3d56"/>
  <path id="Pfad_520" data-name="Pfad 520" d="M471.467,679.554,461.95,675l13.073-39.779,14.046,6.717Z" transform="translate(-182.263 -250.496)" fill="#9e616a"/>
  <path id="Pfad_521" data-name="Pfad 521" d="M568.093,676.2l-10.233,2.525-14.827-39.15,15.1-3.727Z" transform="translate(-214.258 -250.743)" fill="#9e616a"/>
  <path id="Pfad_522" data-name="Pfad 522" d="M671.763,487.919a9.921,9.921,0,0,0,13.44,3.372,9.5,9.5,0,0,0,1.275-.924l30.088,17.266-1.307-17.724-28.371-13.679a9.884,9.884,0,0,0-11.99-1.562,9.512,9.512,0,0,0-3.135,13.251Z" transform="translate(-357.157 -232.281)" fill="#9e616a"/>
  <path id="Pfad_523" data-name="Pfad 523" d="M725.519,479.063l5.318,3.241,23.886,14.566a14.084,14.084,0,0,0,19.417-4.482,13.78,13.78,0,0,0,1.756-9.728L765.281,429.62a14.717,14.717,0,0,0-19.319-11.168,14.012,14.012,0,0,0-8.841,17.022l11.1,37.641-17.016-7.933Z" transform="translate(-378.938 -210.233)" fill="#e6e6e6"/>
  <path id="Pfad_524" data-name="Pfad 524" d="M693.943,675.85l-16.375-32.842,0-.075,1.617-60.238c.02-.536.064-1.074.129-1.6a18.324,18.324,0,0,1,6.972-12.331,17.607,17.607,0,0,1,13.133-3.592l46.825,6.06,1.624-6.64.3-.11,44.866-16.443.259.421c5.876,9.561,9.984,28.659,11.1,34.284l.016.081c.024.119.038.19.043.211,2.31,9.6-7.234,25.5-16.741,27.892-20.026,5.1-37.936,1.123-58.674-3.488-7.436-1.654-15.122-3.363-23.587-4.841l.252,4.982a37.331,37.331,0,0,0,2.362,11.207c1.509,4.421,2.7,7.913.18,15.193L707.03,637.5a12,12,0,0,1-1.234,10.643l-.245.375,10.8,27.327Z" transform="translate(-359.847 -261.368)" fill="#2f2e41"/>
  <path id="Pfad_525" data-name="Pfad 525" d="M647.308,655.13l-19.528-1.815L634.7,631.19a144.457,144.457,0,0,1,10.671-41.969l9.436-22.363c.022-.5.064-1,.125-1.489a18.321,18.321,0,0,1,6.972-12.331,17.618,17.618,0,0,1,13.133-3.591l46.756,6.051,2.036-17.092L768.7,532.4l.205.334c7.844,12.763,12.824,22.754,15.672,31.444.143.443.27.9.378,1.346a18.1,18.1,0,0,1-12.94,21.842c-24.11,6.147-53.1,5.976-91.221-.54l-18.448,43.9a67.427,67.427,0,0,1-6.516,11.951Z" transform="translate(-340.143 -255.172)" fill="#2f2e41"/>
  <ellipse id="Ellipse_10" data-name="Ellipse 10" cx="22.62" cy="23.124" rx="22.62" ry="23.124" transform="translate(352.602 131.243)" fill="#9e616a"/>
  <path id="Pfad_526" data-name="Pfad 526" d="M760.92,493.241l-3.246-11.627-.8-5.735-4.665.156L743.056,454.9l-3.556-5.572q-1.088-1.145-1.971-2.2a49.645,49.645,0,0,1-8.787-14.15,37.175,37.175,0,0,1-2.572-11.652c-.664-11.807,4.314-24.3,15.217-38.188a6.551,6.551,0,0,1-.355-1.523,6.443,6.443,0,0,1,5.6-7.132L757.15,373.3a6.207,6.207,0,0,1,4.6,1.342,6.453,6.453,0,0,1,2.383,4.38,6.6,6.6,0,0,1-.744,3.815,28.085,28.085,0,0,1,23.31,19.614A186.517,186.517,0,0,1,801.663,439.4a18.88,18.88,0,0,1,.089,7.6,21.431,21.431,0,0,0-.084,7.081,32.033,32.033,0,0,0,3.015,7.424c1.478,2.946,3.005,5.992,3.418,9.1l.029.218Z" transform="translate(-379.1 -192.671)" fill="#e4e4e4"/>
  <path id="Pfad_527" data-name="Pfad 527" d="M730.931,452.429a49.483,49.483,0,0,0,8.739,14.07c.631.753,1.3,1.493,1.994,2.234l3.578,5.614c13.19-9.887,23.877-48.816,23.877-48.816l-14.883-2.9Z" transform="translate(-381.099 -212.26)" opacity="0.2"/>
  <path id="Pfad_528" data-name="Pfad 528" d="M703.709,369a9.944,9.944,0,0,1-3.358,13.457,9.536,9.536,0,0,1-1.416.694l1.053,34.675-15.016-9.453,1.3-31.479a9.916,9.916,0,0,1,4.271-11.328A9.49,9.49,0,0,1,703.709,369Z" transform="translate(-363 -189.207)" fill="#9e616a"/>
  <path id="Pfad_529" data-name="Pfad 529" d="M701.192,420.828l-16.513,2.348.71,34.2a14.308,14.308,0,0,0,6.995,12.058h0a13.709,13.709,0,0,0,16.376-1.859l38.986-37.5a14.782,14.782,0,0,0,1.089-20.3h0A14.019,14.019,0,0,0,728.75,408.4a14.391,14.391,0,0,0-1.1,1.093L701.91,439.107Z" transform="translate(-362.793 -205.202)" fill="#e6e6e6"/>
  <path id="Pfad_530" data-name="Pfad 530" d="M330.1,695.893h11.721l5.576-45.21H330.1Z" transform="translate(-130.253 -256.623)" fill="#ffb6b6"/>
  <circle id="Ellipse_11" data-name="Ellipse 11" cx="23.393" cy="23.393" r="23.393" transform="translate(109.788 131.377)" fill="#ffb6b6"/>
  <path id="Pfad_531" data-name="Pfad 531" d="M430.266,689.865h-16.6l-4.232-5.672-1.145-5.344-.986-.954a8.228,8.228,0,0,1-1.387-10.119l-12.029-56.123c-3.15-.277-38.68-3.454-63.378-7.825a21.7,21.7,0,0,1-14.668-9.132c-8.384-12.141-4.793-31.787-4.755-31.984l.041-.219.222-.025,57.689-6.475.078.037c1.914.907,46.971,22.3,54.334,29.659,3.325,3.325,10.743,23.079,12.4,44.08.3,3.762-.773,7.594-1.808,11.3-.969,3.467-1.97,7.052-1.772,10.441.305,5.229.595,10.715.86,16.3a5.718,5.718,0,0,0,1.362,2.7,5.562,5.562,0,0,1,1.359,2.731c.394,8.925-5.439,16.426-5.5,16.5Z" transform="translate(-215.092 -264.521)" fill="#2f2e41"/>
  <path id="Pfad_532" data-name="Pfad 532" d="M495.148,433.937a8.911,8.911,0,0,0-11.225,7.792L464.485,447.8l.811,12.712,27.329-8.965a8.96,8.96,0,0,0,2.523-17.615Z" transform="translate(-275.983 -216.631)" fill="#ffb6b6"/>
  <path id="Pfad_533" data-name="Pfad 533" d="M440.191,441.441l-14.527,5.5-.371.721a7.329,7.329,0,0,1-9.873,3.157h0l-32.652,12.358S368.186,448.583,357.8,435.56l3.538-21.763a41.693,41.693,0,0,1,5.138-14.324c21.291,4.669,33.513,34.432,33.513,34.432l38.372-7.322Z" transform="translate(-233.86 -203.105)" fill="#00a2d7"/>
  <path id="Pfad_534" data-name="Pfad 534" d="M349.947,333.781c-5.857,1.582-12.313-.521-16.884-4.51s-7.429-9.641-9.077-15.48c-1.207-4.276-1.779-9.022.125-13.037s7.028-6.723,10.981-4.695c-2.439-2.841-1.22-7.541,1.628-9.971s6.759-3.127,10.484-3.508c5.406-.553,10.99-.615,16.134,1.137s9.818,5.58,11.428,10.77a8.2,8.2,0,0,0,9.777-2.207,7.426,7.426,0,0,1-4.092,8.052l7.882-2.555c1.356,2.869-1.02,6.42-4.057,7.339s-6.316-.086-9.2-1.413-5.675-3.006-8.806-3.523-6.808.488-8.256,3.312c-.759,1.479-.8,3.211-1.238,4.814s-1.556,3.264-3.213,3.4c-1.047.083-2.072-.475-3.116-.361a3.357,3.357,0,0,0-2.629,2.569,9.857,9.857,0,0,0-.009,3.878l2,15.3" transform="translate(-220.098 -156.881)" fill="#2f2e41"/>
  <path id="Pfad_535" data-name="Pfad 535" d="M311.674,525.99h-.013l-.185-.031-.054-.18c-.673-2.262-1.528-4.578-2.356-6.817a82.218,82.218,0,0,1-3.082-9.5,72.756,72.756,0,0,1-1.362-9.352c-.231-2.282-.47-4.642-.876-6.966-.18-1.031.5-2.008,1.164-2.953a3.912,3.912,0,0,0,1.07-2.486,5.915,5.915,0,0,0-1.87-2.53c-.941-.932-1.914-1.9-2.052-2.91a289.861,289.861,0,0,1-2.612-41.756c.194-19.32,1.067-32.488,2.595-39.14,4.109-17.887,23.092-21.151,26.063-21.554a6.561,6.561,0,0,1,8.874-3.66l13.488,6.174a21.959,21.959,0,0,1,11.675,13.039l2,6.108,1,41-5.562,28.876,10.867,16.3C312.536,519.455,311.861,525.99,311.674,525.99Z" transform="translate(-210.849 -193.51)" fill="#00a2d7"/>
  <path id="Pfad_536" data-name="Pfad 536" d="M472.817,789.286h3.811l14.878-6.05,7.974,6.05h0a16.993,16.993,0,0,1,16.992,16.991v.553l-43.655,0Z" transform="translate(-279.263 -354.571)" fill="#2f2e41"/>
  <path id="Pfad_537" data-name="Pfad 537" d="M499.732,481.807a8.912,8.912,0,0,0-12.87,4.594l-20.349.793-2.742,9.479,28.929,1.481a8.96,8.96,0,0,0,7.031-16.347Z" transform="translate(-275.698 -235.172)" fill="#ffb6b6"/>
  <path id="Pfad_538" data-name="Pfad 538" d="M438.1,472.539l-20.9-.261-2.646-.036-42.527-.536s-11.549-11.018-21.6-22.361l1.409-10.195a41.652,41.652,0,0,1,13.966-25.789c14.4,9.624,22.755,28.673,22.755,28.673l14,6.266h0a61.315,61.315,0,0,1,28,8.2l4.605,2.668Z" transform="translate(-230.943 -208.59)" fill="#00a2d7"/>
  <path id="Pfad_539" data-name="Pfad 539" d="M727.02,794.786l-6.955,1.716-2.862-6.26-1.559,7.351L697.2,802.146a4.271,4.271,0,0,1-4.222-6.977L705.2,781.36l-1.638-6.638,15.722-2.9Z" transform="translate(-365.708 -350.049)" fill="#2f2e41"/>
  <path id="Pfad_540" data-name="Pfad 540" d="M607.618,793.7l-6.633-2.707,1.372-6.745-5.588,5.024-17.591-7.18a4.271,4.271,0,0,1,.7-8.125L597.881,770l2.584-6.33,14.415,6.913Z" transform="translate(-320.182 -346.818)" fill="#2f2e41"/>
  <path id="Pfad_541" data-name="Pfad 541" d="M571.741,493.073h-5.434a22.061,22.061,0,0,1-22.036-22.036v-.3h49.506v.3A22.061,22.061,0,0,1,571.741,493.073Z" transform="translate(-307.443 -231.281)" fill="#e4e4e4"/>
  <path id="Pfad_542" data-name="Pfad 542" d="M577.206,455.952c0,1.5-2.717,2.717-2.717,2.717s-2.717-1.216-2.717-2.717,2.717-2.717,2.717-2.717S577.206,454.452,577.206,455.952Z" transform="translate(-318.353 -224.401)" fill="#3f3d56"/>
  <path id="Pfad_543" data-name="Pfad 543" d="M604.206,455.952c0,1.5-2.717,2.717-2.717,2.717s-2.717-1.216-2.717-2.717,2.717-2.717,2.717-2.717S604.206,454.452,604.206,455.952Z" transform="translate(-329.008 -224.401)" fill="#3f3d56"/>
  <path id="Pfad_544" data-name="Pfad 544" d="M586.206,464.952c0,1.5-2.717,2.717-2.717,2.717s-2.717-1.216-2.717-2.717,2.717-2.717,2.717-2.717S586.206,463.452,586.206,464.952Z" transform="translate(-321.905 -227.952)" fill="#3f3d56"/>
  <circle id="Ellipse_12" data-name="Ellipse 12" cx="2.717" cy="2.717" r="2.717" transform="translate(242.522 220.359)" fill="#3f3d56"/>
  <path id="Pfad_545" data-name="Pfad 545" d="M492.13,434.058l42.848,5.918a2.9,2.9,0,1,1-1.05,5.689l-42.136-9.773a.933.933,0,0,1,.339-1.834Z" transform="translate(-286.46 -216.821)" fill="#e4e4e4"/>
  <path id="Pfad_546" data-name="Pfad 546" d="M557.671,156.867V75.235h-5.434v81.632a29.883,29.883,0,0,0-27.168,29.756v8.15h19.017a10.867,10.867,0,1,0,21.734,0h19.017v-8.15a29.882,29.882,0,0,0-27.164-29.756Z" transform="translate(-299.854 -75.235)" fill="#f0f0f0"/>
  <path id="Pfad_547" data-name="Pfad 547" d="M678.9,136.459V75.235h-4.075v61.224a22.412,22.412,0,0,0-20.376,22.317v6.113h14.263a8.15,8.15,0,0,0,16.3,0h14.263v-6.113A22.412,22.412,0,0,0,678.9,136.459Z" transform="translate(-350.912 -75.235)" fill="#f0f0f0"/>
  <path id="Pfad_548" data-name="Pfad 548" d="M450.9,136.459V75.235h-4.075v61.224a22.412,22.412,0,0,0-20.376,22.317v6.113h14.263a8.15,8.15,0,0,0,16.3,0h14.263v-6.113A22.412,22.412,0,0,0,450.9,136.459Z" transform="translate(-260.968 -75.235)" fill="#f0f0f0"/>
  <path id="Pfad_549" data-name="Pfad 549" d="M815.429,297.79c-3.845-4.484-5.673-10.433-8.747-15.524s-8.423-9.649-14.074-8.464c-3.9.817-6.906,4.254-8.43,8.086s-1.809,8.058-2.076,12.2c.094-8.508-5.511-16.756-13.233-19.471a19.488,19.488,0,0,0-21.814,7.149,11.79,11.79,0,0,0-15.66-.329,13.135,13.135,0,0,0-2.109,16.209,11.871,11.871,0,0,0,15.176,4.047l1.793,1.65a7.774,7.774,0,0,0,4.238,9.029c2.668,1.078,6.435.9,7.433,3.7.7,1.956-.606,4.045-1.994,5.548s-3.034,3.056-3.2,5.136c-.252,3.139,2.992,5.338,5.941,6a18.523,18.523,0,0,0,19.1-7.971q.119-.182.258-.363a27.458,27.458,0,0,0,5.523-20.995c-.231-1.45,0-2.529,1-2.872,4.322-1.485,16.431,1.631,20.1,4.447s6.6,6.543,10.129,9.54,8.028,5.31,12.51,4.494c3.59-.654,6.643-3.26,8.7-6.4a38.552,38.552,0,0,0,4.295-10.449A20.215,20.215,0,0,1,815.429,297.79Z" transform="translate(-379.255 -153.473)" fill="#2f2e41"/>
</svg>
